{"glyphs":{"0":{"ha":636,"x_min":31,"x_max":613,"o":"m 229 -21 q 109 19 144 -21 q 74 124 74 60 q 97 247 74 179 q 86 256 92 251 q 75 267 81 261 q 47 300 58 282 q 32 336 35 318 q 31 348 31 343 q 31 358 31 353 q 64 453 31 413 q 149 519 97 493 q 258 560 200 546 q 364 579 315 575 q 394 594 379 588 q 422 607 408 601 l 425 607 q 440 600 432 607 q 439 582 449 593 q 535 550 496 576 q 593 483 575 524 q 613 388 613 438 q 575 242 613 308 q 491 120 543 181 q 373 19 439 60 q 229 -21 307 -21 m 224 3 q 319 28 272 3 q 408 95 367 54 q 483 181 450 136 q 533 265 515 226 q 568 407 568 340 q 536 511 568 471 q 447 551 504 551 q 397 543 425 551 q 300 461 358 519 q 190 308 242 403 q 157 238 169 271 q 174 221 169 226 q 168 214 175 214 q 156 217 160 214 q 150 218 151 217 q 136 165 140 190 q 132 117 132 139 q 156 33 132 64 q 224 3 181 3 m 108 276 l 117 294 q 193 424 149 364 q 289 526 238 483 q 187 492 240 514 q 97 440 133 471 q 61 367 61 408 q 71 327 61 349 q 103 282 81 306 q 108 276 104 278 z "},"1":{"ha":293,"x_min":56,"x_max":336,"o":"m 72 0 q 58 8 60 0 q 57 26 56 17 q 60 36 60 35 q 140 249 92 146 q 224 460 189 351 q 121 377 151 397 q 88 354 90 357 q 78 351 82 349 q 75 357 75 354 q 76 367 75 361 q 79 375 78 374 q 111 403 88 382 q 165 450 135 424 q 220 500 194 476 q 258 535 246 524 l 274 563 q 289 583 279 574 q 307 588 296 588 q 327 583 318 588 q 335 572 336 579 q 286 467 314 525 q 229 344 258 408 q 174 215 200 281 q 129 88 147 150 q 128 78 128 83 q 129 69 128 72 q 131 60 131 67 q 131 55 131 58 q 129 47 131 51 q 109 17 126 33 q 72 0 92 0 z "},"2":{"ha":413,"x_min":-42,"x_max":381,"o":"m 328 -43 q 318 -39 318 -50 l 318 -26 q 317 -12 318 -19 q 313 3 317 -4 q 263 33 299 25 q 182 42 226 42 q 153 41 168 42 q 124 39 139 40 q 86 31 110 38 q 40 15 63 24 q 24 10 39 15 q -4 -1 10 4 q -19 -6 -18 -6 q -42 4 -42 -6 q -20 31 -42 15 q 11 53 1 47 l 24 61 l 28 63 l 29 64 q 95 118 54 81 q 180 206 136 156 q 258 310 224 256 q 303 414 292 364 q 307 439 306 426 q 308 464 308 451 q 294 519 308 496 q 240 543 281 543 q 230 543 235 543 q 218 542 225 543 q 179 521 197 539 q 154 483 161 503 q 126 463 147 463 q 110 485 110 463 q 115 506 110 490 q 121 526 119 521 q 128 556 125 542 q 133 582 132 571 q 144 593 135 593 q 154 583 157 593 q 150 560 153 574 q 149 538 147 547 q 181 565 164 551 q 221 585 197 578 q 245 590 233 589 q 267 592 257 592 q 350 556 319 592 q 381 471 381 521 q 367 403 381 436 q 308 303 347 354 q 228 207 269 251 q 153 132 189 164 q 101 85 118 100 q 196 89 150 89 q 252 88 224 89 q 310 88 281 88 q 340 73 331 88 q 350 43 350 58 q 345 3 350 24 q 335 -36 340 -17 l 328 -43 z "},"3":{"ha":378,"x_min":-28,"x_max":350,"o":"m 85 -8 q 6 22 32 -8 q -28 79 -19 53 q -19 86 -25 83 q -14 89 -14 89 q -3 70 -7 79 q 8 53 0 61 q 33 37 17 43 q 79 31 49 31 q 178 62 135 31 q 248 138 222 93 q 274 222 274 182 q 252 281 274 257 q 182 304 231 304 q 156 301 168 304 q 129 294 143 297 q 121 306 121 301 q 121 318 121 310 q 194 361 153 338 q 267 416 236 385 q 297 488 297 447 q 281 528 297 511 q 229 546 264 546 q 177 527 199 546 q 149 489 156 508 q 119 468 142 468 q 103 489 103 468 q 108 510 103 496 q 114 531 113 525 q 123 560 119 546 q 128 588 126 575 q 138 599 128 599 q 147 590 147 599 q 144 567 147 582 q 143 542 142 551 q 197 578 163 561 q 264 594 231 594 q 318 575 297 594 q 342 543 335 561 q 350 506 350 525 q 335 446 350 475 q 297 397 319 417 q 263 369 282 383 q 228 347 244 356 q 221 340 221 344 q 242 339 222 339 q 318 308 294 339 q 342 236 342 278 q 341 224 342 231 q 339 210 340 217 q 293 100 331 150 q 201 21 256 50 q 85 -8 146 -8 z "},"4":{"ha":401,"x_min":-7,"x_max":378,"o":"m 156 0 q 141 8 143 0 q 140 26 139 17 q 143 36 143 35 q 174 121 156 78 q 211 204 193 164 l 117 199 q 57 193 85 197 q 18 185 29 189 q 3 181 10 181 q -7 193 -7 181 q -3 210 -7 201 q 38 247 11 219 q 96 309 64 274 q 159 380 128 344 q 214 443 190 415 q 244 483 238 471 l 243 485 q 240 503 240 496 q 247 522 240 514 q 282 556 256 533 l 326 597 q 335 602 329 600 q 344 604 340 604 q 350 589 361 604 q 283 499 319 550 q 210 399 246 449 q 146 308 174 349 q 104 249 118 268 l 231 257 q 263 325 242 281 q 305 415 283 369 q 340 489 326 461 q 358 506 350 506 q 367 499 364 506 q 371 483 371 492 q 367 465 371 474 q 317 364 340 418 q 271 257 294 310 q 301 259 290 258 q 325 260 313 260 q 363 256 349 260 q 378 235 378 251 q 374 220 378 229 q 367 201 371 211 q 358 181 363 192 q 349 158 353 169 l 336 158 q 338 167 338 163 q 338 174 338 171 q 322 203 338 196 q 286 210 306 210 q 267 209 276 210 q 250 207 258 208 q 230 147 240 181 q 213 88 219 113 q 211 78 211 83 q 213 69 211 72 q 214 60 214 67 q 214 55 214 58 q 213 47 214 51 q 192 17 208 33 q 156 0 175 0 z "},"5":{"ha":428,"x_min":-33,"x_max":485,"o":"m 92 -15 q 10 6 40 -15 q -31 50 -21 26 q -33 65 -33 58 q -13 110 -33 89 q 22 133 7 131 l 26 133 q 33 126 33 133 q 29 117 32 119 q 21 88 21 103 q 25 67 21 75 q 62 32 36 43 q 118 21 88 21 q 197 36 157 21 q 263 78 236 51 q 290 140 290 106 q 271 183 290 164 q 200 235 251 201 q 174 255 193 240 q 137 290 154 269 q 117 329 119 310 q 128 377 115 343 q 153 439 142 411 q 163 460 156 446 q 176 488 169 474 q 182 506 182 501 q 181 507 182 507 q 181 507 181 507 q 172 521 176 514 q 165 535 168 528 q 163 547 163 543 q 190 567 163 567 q 208 569 203 567 q 221 579 214 572 q 238 594 225 583 q 256 596 250 604 q 257 590 257 594 q 253 575 257 586 q 315 571 281 571 q 412 576 364 571 q 474 586 460 582 q 485 576 485 585 q 480 567 485 571 q 469 560 475 563 q 422 551 453 556 q 355 540 390 546 q 289 529 319 535 q 242 519 258 524 q 212 497 221 514 q 196 464 203 481 q 185 435 192 456 q 172 394 178 414 q 165 368 165 375 q 181 342 165 358 q 218 308 196 326 q 262 274 240 289 q 296 251 283 258 q 332 214 321 236 q 343 168 343 192 q 328 107 343 138 q 286 54 313 76 q 197 6 254 28 q 92 -15 140 -15 z "},"6":{"ha":393,"x_min":1,"x_max":394,"o":"m 107 -8 q 46 24 63 -8 q 29 97 29 56 q 35 153 29 125 q 47 203 40 182 q 31 190 42 199 q 11 182 19 182 q 3 197 1 182 l 49 243 q 70 264 60 254 q 88 279 81 274 q 138 360 114 321 q 190 439 161 400 q 256 514 218 476 q 350 588 294 551 q 365 592 354 590 q 381 593 375 593 q 394 583 394 593 q 383 574 394 578 q 324 531 357 565 q 257 451 290 497 q 196 362 224 406 q 151 290 168 318 q 257 317 197 317 q 321 301 293 317 q 349 249 349 286 q 335 193 349 225 q 297 128 322 163 q 240 62 272 93 q 173 11 207 31 q 107 -8 139 -8 m 110 42 q 179 65 135 42 q 258 128 224 89 q 291 172 278 149 q 304 214 304 194 q 279 256 304 239 q 254 265 269 263 q 222 267 239 267 q 168 260 196 267 q 125 242 140 253 q 87 166 103 203 q 69 83 71 129 q 110 42 69 42 z "},"7":{"ha":376,"x_min":44,"x_max":390,"o":"m 60 -11 q 44 1 44 -11 q 47 17 44 8 l 51 25 q 112 144 76 81 q 185 272 147 208 q 257 389 221 333 q 322 490 293 444 q 296 484 308 485 q 278 485 283 483 q 237 496 258 489 q 193 508 215 503 q 154 521 175 515 q 114 528 133 526 q 92 519 99 529 q 86 492 86 508 q 94 453 86 474 q 108 424 103 433 q 111 417 111 421 q 106 408 111 411 q 94 411 100 406 q 67 463 78 431 q 56 526 56 496 q 69 581 56 561 q 99 590 78 590 q 135 585 114 590 q 178 574 156 581 l 249 551 q 281 544 265 547 q 306 540 296 540 q 337 558 326 540 q 357 589 347 575 q 382 574 374 593 q 390 544 390 556 q 385 528 390 539 q 372 506 379 517 l 351 476 q 275 349 317 421 q 194 206 233 278 q 129 74 156 133 q 126 60 124 64 q 126 46 128 56 q 122 33 126 42 q 97 5 117 21 q 60 -11 78 -11 z "},"8":{"ha":407,"x_min":-32,"x_max":522,"o":"m 86 -36 q -5 0 22 -36 q -32 78 -32 36 q -12 147 -32 119 q -12 148 -12 147 q -11 149 -12 149 q 50 232 10 189 q 140 317 90 275 l 140 318 q 110 399 110 354 q 133 478 110 440 q 192 543 157 517 q 251 574 219 563 q 313 586 283 586 q 368 572 344 586 q 399 525 392 557 q 400 518 400 522 q 400 511 400 514 q 399 500 400 506 q 397 489 399 494 q 508 538 464 524 l 513 538 q 522 529 522 538 q 515 519 522 521 q 385 453 461 501 q 231 342 308 404 q 271 313 250 328 q 307 279 292 299 q 327 245 319 265 q 335 200 335 225 q 329 156 335 178 q 287 76 319 117 q 211 5 254 35 q 124 -33 168 -25 q 104 -35 114 -35 q 86 -36 94 -36 m 200 364 q 368 472 285 425 q 374 500 374 485 q 353 538 374 525 q 306 551 333 551 q 227 526 267 551 q 175 447 188 500 q 173 436 174 442 q 172 425 172 431 q 178 394 172 410 q 200 364 185 379 m 94 11 q 113 12 104 11 q 132 14 122 13 q 246 69 206 26 q 288 156 286 113 q 275 208 290 188 q 236 247 260 229 q 202 269 219 258 q 169 290 185 279 l 151 275 q 111 240 136 263 q 60 188 86 217 q 17 127 35 158 q -1 67 -1 96 q -1 58 -1 63 q 0 50 -1 54 l 0 47 q 40 19 14 28 q 94 11 65 11 z "},"9":{"ha":376,"x_min":-11,"x_max":396,"o":"m 125 -6 q 53 26 82 -6 q 8 99 24 57 q -7 160 -3 129 q -10 210 -11 190 q 1 222 -7 219 q 7 213 8 224 q 44 101 14 139 q 115 64 75 64 q 180 86 147 64 q 242 154 213 108 q 281 228 263 188 q 314 308 300 269 q 310 308 313 308 q 306 307 308 307 q 243 278 279 289 q 174 267 207 267 q 157 267 165 267 q 142 269 149 268 q 94 295 108 276 q 79 339 79 314 q 103 419 79 375 q 165 503 128 463 q 244 569 203 543 q 318 594 285 594 q 379 562 363 594 q 396 489 396 529 q 389 423 396 456 q 375 371 382 390 l 372 368 q 361 334 367 350 q 353 313 356 318 q 324 235 342 283 q 283 139 307 188 q 231 51 261 92 q 160 0 200 11 q 125 -6 143 -6 m 206 319 q 271 327 238 319 q 319 346 304 335 q 345 406 331 363 q 360 486 360 449 q 350 526 360 510 q 315 543 340 543 q 247 519 290 543 q 168 458 204 496 q 135 413 149 436 q 122 371 122 390 q 146 331 122 344 q 172 322 156 325 q 206 319 188 319 z "},"\r":{"ha":833,"x_min":0,"x_max":0,"o":""}," ":{"ha":282,"x_min":0,"x_max":0,"o":""}," ":{"ha":282,"x_min":0,"x_max":0,"o":""},"A":{"ha":821,"x_min":21,"x_max":960,"o":"m 213 232 q 179 239 192 232 q 174 244 174 240 q 177 249 174 247 q 186 247 181 250 q 199 244 194 244 q 236 258 217 244 q 270 296 256 272 q 285 349 285 319 q 278 386 285 365 q 258 424 271 406 q 238 461 246 443 q 222 504 226 485 q 217 542 217 524 q 244 612 217 586 q 316 652 272 638 q 408 674 360 667 q 497 686 457 681 q 581 698 532 690 q 685 715 631 706 q 788 735 739 724 q 873 757 838 746 q 918 779 908 768 q 924 782 921 782 q 928 778 928 782 q 925 769 929 774 q 861 736 910 753 q 747 704 813 719 q 610 675 681 689 q 476 649 539 661 q 375 625 414 636 q 249 510 249 590 q 267 448 249 478 q 302 389 285 418 q 319 329 319 360 q 284 259 319 286 q 213 232 249 232 m 196 -19 q 99 8 138 -19 q 40 78 60 35 q 21 171 21 121 q 29 235 21 204 q 49 263 33 263 q 53 257 53 263 q 49 242 53 251 q 47 231 46 233 q 94 84 51 131 q 200 38 138 38 q 388 117 289 38 q 460 187 424 146 q 533 275 497 228 q 501 268 517 272 q 469 260 485 264 q 433 250 450 254 q 404 244 417 246 q 393 243 399 243 q 383 243 388 243 q 367 249 368 243 q 369 260 365 254 q 394 281 378 271 q 424 293 410 292 q 489 303 453 297 q 564 315 525 310 q 667 461 617 388 q 758 592 717 535 q 787 628 774 611 q 814 661 800 644 q 864 689 832 683 q 892 717 871 697 q 929 744 913 738 q 936 747 935 747 q 944 741 943 747 q 942 732 944 735 q 915 703 929 722 q 893 667 901 685 q 824 499 856 585 q 764 325 792 413 q 810 309 794 324 q 826 279 826 294 q 815 258 826 260 q 808 267 803 256 q 811 278 811 271 q 796 296 811 289 q 757 304 781 303 q 735 226 747 274 q 717 136 724 179 q 715 113 715 124 q 714 94 714 103 q 724 49 714 63 q 749 35 733 35 q 792 51 768 35 q 840 89 817 67 q 879 131 864 111 q 894 150 882 133 q 922 185 907 167 q 946 215 938 204 q 953 216 947 218 q 957 211 960 214 q 886 118 924 164 q 838 65 868 97 q 774 9 808 33 q 706 -15 739 -15 q 697 -15 701 -15 q 689 -12 693 -14 q 657 15 667 -7 q 647 68 647 38 q 650 101 647 83 q 657 138 653 119 q 682 219 667 175 q 714 304 697 263 q 706 303 710 304 q 699 303 703 303 q 629 294 664 300 q 574 283 594 288 q 461 138 521 207 q 335 24 401 68 q 196 -19 269 -19 m 599 321 q 665 325 633 324 q 724 326 696 326 q 744 373 735 351 q 758 411 753 394 q 801 525 782 472 q 821 588 821 578 q 804 589 821 592 q 764 558 788 586 q 685 451 726 514 q 599 321 643 388 z "},"Æ":{"ha":1132,"x_min":21,"x_max":1226,"o":"m 213 232 q 190 235 207 232 q 174 244 174 238 q 179 249 174 249 q 189 247 185 249 q 199 244 193 244 q 243 262 224 244 q 274 304 263 279 q 285 350 285 329 q 267 410 285 382 q 233 470 250 439 q 215 542 215 501 q 247 614 215 588 q 324 655 278 640 q 417 676 369 669 q 497 686 464 682 q 565 695 519 689 q 664 710 610 701 q 771 731 718 719 q 864 754 824 742 q 918 779 904 767 q 925 782 924 782 q 929 776 929 782 q 925 769 929 774 q 857 736 908 753 q 737 703 806 719 q 596 672 668 686 q 465 645 524 657 q 375 625 406 633 q 319 604 349 618 q 269 568 289 590 q 249 513 249 546 q 267 448 249 478 q 302 390 285 418 q 319 329 319 361 q 286 260 319 288 q 213 232 253 232 m 857 -35 q 786 -26 822 -35 q 719 0 750 -18 q 677 44 689 18 q 658 101 665 69 q 656 112 657 107 q 656 122 656 117 q 665 165 656 136 q 686 228 674 194 q 710 293 699 263 q 729 339 722 324 q 663 330 696 333 q 599 319 631 326 q 524 213 567 271 q 430 101 482 154 q 319 15 378 49 q 194 -19 260 -19 q 66 37 111 -19 q 21 171 21 93 q 23 202 21 181 q 31 243 25 224 q 47 264 36 263 l 51 261 q 53 257 53 260 q 50 244 53 251 q 47 231 47 238 q 63 139 47 183 q 113 66 79 94 q 200 38 147 38 q 308 65 257 38 q 406 134 360 92 q 492 224 453 176 q 561 313 531 272 q 505 299 538 308 q 440 281 472 289 q 386 274 408 274 q 376 275 383 274 q 368 282 368 276 q 392 310 368 297 q 426 324 415 322 q 508 338 467 331 q 589 350 549 346 q 674 472 633 411 q 758 592 715 532 q 786 627 772 610 q 814 661 800 644 q 837 680 825 674 q 864 689 849 686 q 885 710 871 696 q 914 735 899 724 q 938 747 929 747 q 944 739 944 747 q 942 732 944 735 q 925 716 932 725 q 911 697 918 707 q 930 701 921 700 q 949 701 939 703 l 1215 700 l 1224 697 q 1226 692 1225 694 q 1226 686 1226 689 q 1226 685 1226 686 q 1225 682 1225 683 q 1213 671 1224 678 q 1197 661 1201 664 q 1152 630 1175 646 q 1110 593 1129 614 l 1088 568 q 1078 561 1085 565 q 1067 557 1072 557 q 1064 560 1064 557 q 1078 583 1064 567 q 1105 617 1092 600 q 1118 642 1118 633 q 1106 651 1118 649 q 1082 653 1093 653 q 1022 654 1051 653 q 963 656 993 656 q 935 656 949 656 q 908 653 921 656 q 897 649 900 651 q 888 639 893 646 q 862 592 876 625 q 833 522 847 560 q 806 449 818 483 q 788 396 794 415 l 846 403 q 930 412 888 408 q 1015 415 972 415 q 1053 413 1032 415 q 1089 401 1074 411 q 1104 369 1104 392 q 1101 353 1104 364 q 1089 343 1097 343 q 1085 347 1085 343 q 1088 355 1085 350 q 1090 365 1090 360 q 1068 385 1090 382 q 1035 388 1046 388 q 910 374 976 388 q 786 347 843 361 q 762 283 776 324 q 736 203 747 243 q 725 138 725 163 q 746 79 725 103 q 799 42 767 56 q 865 22 831 28 q 928 17 900 17 q 1057 42 996 17 q 1163 119 1118 68 q 1167 123 1164 121 q 1171 125 1169 125 q 1174 122 1174 125 q 1169 108 1174 115 q 1160 97 1164 101 q 1022 1 1106 36 q 857 -35 938 -35 m 621 353 q 736 357 679 357 q 754 402 740 368 q 783 476 768 436 q 810 547 799 515 q 821 588 821 579 q 818 590 821 590 q 814 590 815 590 q 786 579 800 590 q 764 558 772 568 q 690 458 724 511 q 621 353 656 406 z "},"Ǽ":{"ha":1132,"x_min":21,"x_max":1226,"o":"m 213 232 q 190 235 207 232 q 174 244 174 238 q 179 249 174 249 q 189 247 185 249 q 199 244 193 244 q 243 262 224 244 q 274 304 263 279 q 285 350 285 329 q 267 410 285 382 q 233 470 250 439 q 215 542 215 501 q 247 614 215 588 q 324 655 278 640 q 417 676 369 669 q 497 686 464 682 q 565 695 519 689 q 664 710 610 701 q 771 731 718 719 q 864 754 824 742 q 918 779 904 767 q 925 782 924 782 q 929 776 929 782 q 925 769 929 774 q 857 736 908 753 q 737 703 806 719 q 596 672 668 686 q 465 645 524 657 q 375 625 406 633 q 319 604 349 618 q 269 568 289 590 q 249 513 249 546 q 267 448 249 478 q 302 390 285 418 q 319 329 319 361 q 286 260 319 288 q 213 232 253 232 m 857 -35 q 786 -26 822 -35 q 719 0 750 -18 q 677 44 689 18 q 658 101 665 69 q 656 112 657 107 q 656 122 656 117 q 665 165 656 136 q 686 228 674 194 q 710 293 699 263 q 729 339 722 324 q 663 330 696 333 q 599 319 631 326 q 524 213 567 271 q 430 101 482 154 q 319 15 378 49 q 194 -19 260 -19 q 66 37 111 -19 q 21 171 21 93 q 23 202 21 181 q 31 243 25 224 q 47 264 36 263 l 51 261 q 53 257 53 260 q 50 244 53 251 q 47 231 47 238 q 63 139 47 183 q 113 66 79 94 q 200 38 147 38 q 308 65 257 38 q 406 134 360 92 q 492 224 453 176 q 561 313 531 272 q 505 299 538 308 q 440 281 472 289 q 386 274 408 274 q 376 275 383 274 q 368 282 368 276 q 392 310 368 297 q 426 324 415 322 q 508 338 467 331 q 589 350 549 346 q 674 472 633 411 q 758 592 715 532 q 786 627 772 610 q 814 661 800 644 q 837 680 825 674 q 864 689 849 686 q 885 710 871 696 q 914 735 899 724 q 938 747 929 747 q 944 739 944 747 q 942 732 944 735 q 925 716 932 725 q 911 697 918 707 q 930 701 921 700 q 949 701 939 703 l 1215 700 l 1224 697 q 1226 692 1225 694 q 1226 686 1226 689 q 1226 685 1226 686 q 1225 682 1225 683 q 1213 671 1224 678 q 1197 661 1201 664 q 1152 630 1175 646 q 1110 593 1129 614 l 1088 568 q 1078 561 1085 565 q 1067 557 1072 557 q 1064 560 1064 557 q 1078 583 1064 567 q 1105 617 1092 600 q 1118 642 1118 633 q 1106 651 1118 649 q 1082 653 1093 653 q 1022 654 1051 653 q 963 656 993 656 q 935 656 949 656 q 908 653 921 656 q 897 649 900 651 q 888 639 893 646 q 862 592 876 625 q 833 522 847 560 q 806 449 818 483 q 788 396 794 415 l 846 403 q 930 412 888 408 q 1015 415 972 415 q 1053 413 1032 415 q 1089 401 1074 411 q 1104 369 1104 392 q 1101 353 1104 364 q 1089 343 1097 343 q 1085 347 1085 343 q 1088 355 1085 350 q 1090 365 1090 360 q 1068 385 1090 382 q 1035 388 1046 388 q 910 374 976 388 q 786 347 843 361 q 762 283 776 324 q 736 203 747 243 q 725 138 725 163 q 746 79 725 103 q 799 42 767 56 q 865 22 831 28 q 928 17 900 17 q 1057 42 996 17 q 1163 119 1118 68 q 1167 123 1164 121 q 1171 125 1169 125 q 1174 122 1174 125 q 1169 108 1174 115 q 1160 97 1164 101 q 1022 1 1106 36 q 857 -35 938 -35 m 621 353 q 736 357 679 357 q 754 402 740 368 q 783 476 768 436 q 810 547 799 515 q 821 588 821 579 q 818 590 821 590 q 814 590 815 590 q 786 579 800 590 q 764 558 772 568 q 690 458 724 511 q 621 353 656 406 m 1014 835 q 1035 856 1015 842 q 1104 903 1054 871 l 1164 943 q 1176 946 1172 946 q 1193 925 1193 943 q 1171 901 1193 914 q 1143 888 1157 893 q 1108 874 1129 883 q 1065 854 1088 865 q 1028 837 1043 843 q 1014 835 1014 831 z "},"Á":{"ha":821,"x_min":21,"x_max":1072,"o":"m 213 232 q 179 239 192 232 q 174 244 174 240 q 177 249 174 247 q 186 247 181 250 q 199 244 194 244 q 236 258 217 244 q 270 296 256 272 q 285 349 285 319 q 278 386 285 365 q 258 424 271 406 q 238 461 246 443 q 222 504 226 485 q 217 542 217 524 q 244 612 217 586 q 316 652 272 638 q 408 674 360 667 q 497 686 457 681 q 581 698 532 690 q 685 715 631 706 q 788 735 739 724 q 873 757 838 746 q 918 779 908 768 q 924 782 921 782 q 928 778 928 782 q 925 769 929 774 q 861 736 910 753 q 747 704 813 719 q 610 675 681 689 q 476 649 539 661 q 375 625 414 636 q 249 510 249 590 q 267 448 249 478 q 302 389 285 418 q 319 329 319 360 q 284 259 319 286 q 213 232 249 232 m 196 -19 q 99 8 138 -19 q 40 78 60 35 q 21 171 21 121 q 29 235 21 204 q 49 263 33 263 q 53 257 53 263 q 49 242 53 251 q 47 231 46 233 q 94 84 51 131 q 200 38 138 38 q 388 117 289 38 q 460 187 424 146 q 533 275 497 228 q 501 268 517 272 q 469 260 485 264 q 433 250 450 254 q 404 244 417 246 q 393 243 399 243 q 383 243 388 243 q 367 249 368 243 q 369 260 365 254 q 394 281 378 271 q 424 293 410 292 q 489 303 453 297 q 564 315 525 310 q 667 461 617 388 q 758 592 717 535 q 787 628 774 611 q 814 661 800 644 q 864 689 832 683 q 892 717 871 697 q 929 744 913 738 q 936 747 935 747 q 944 741 943 747 q 942 732 944 735 q 915 703 929 722 q 893 667 901 685 q 824 499 856 585 q 764 325 792 413 q 810 309 794 324 q 826 279 826 294 q 815 258 826 260 q 808 267 803 256 q 811 278 811 271 q 796 296 811 289 q 757 304 781 303 q 735 226 747 274 q 717 136 724 179 q 715 113 715 124 q 714 94 714 103 q 724 49 714 63 q 749 35 733 35 q 792 51 768 35 q 840 89 817 67 q 879 131 864 111 q 894 150 882 133 q 922 185 907 167 q 946 215 938 204 q 953 216 947 218 q 957 211 960 214 q 886 118 924 164 q 838 65 868 97 q 774 9 808 33 q 706 -15 739 -15 q 697 -15 701 -15 q 689 -12 693 -14 q 657 15 667 -7 q 647 68 647 38 q 650 101 647 83 q 657 138 653 119 q 682 219 667 175 q 714 304 697 263 q 706 303 710 304 q 699 303 703 303 q 629 294 664 300 q 574 283 594 288 q 461 138 521 207 q 335 24 401 68 q 196 -19 269 -19 m 599 321 q 665 325 633 324 q 724 326 696 326 q 744 373 735 351 q 758 411 753 394 q 801 525 782 472 q 821 588 821 578 q 804 589 821 592 q 764 558 788 586 q 685 451 726 514 q 599 321 643 388 m 893 832 q 914 853 894 839 q 983 900 933 868 l 1043 940 q 1056 943 1051 943 q 1072 922 1072 940 q 1050 899 1072 911 q 1022 885 1036 890 q 988 871 1008 881 q 944 851 967 863 q 908 834 922 840 q 893 832 893 828 z "},"Ă":{"ha":821,"x_min":21,"x_max":1088,"o":"m 213 232 q 179 239 192 232 q 174 244 174 240 q 177 249 174 247 q 186 247 181 250 q 199 244 194 244 q 236 258 217 244 q 270 296 256 272 q 285 349 285 319 q 278 386 285 365 q 258 424 271 406 q 238 461 246 443 q 222 504 226 485 q 217 542 217 524 q 244 612 217 586 q 316 652 272 638 q 408 674 360 667 q 497 686 457 681 q 581 698 532 690 q 685 715 631 706 q 788 735 739 724 q 873 757 838 746 q 918 779 908 768 q 924 782 921 782 q 928 778 928 782 q 925 769 929 774 q 861 736 910 753 q 747 704 813 719 q 610 675 681 689 q 476 649 539 661 q 375 625 414 636 q 249 510 249 590 q 267 448 249 478 q 302 389 285 418 q 319 329 319 360 q 284 259 319 286 q 213 232 249 232 m 196 -19 q 99 8 138 -19 q 40 78 60 35 q 21 171 21 121 q 29 235 21 204 q 49 263 33 263 q 53 257 53 263 q 49 242 53 251 q 47 231 46 233 q 94 84 51 131 q 200 38 138 38 q 388 117 289 38 q 460 187 424 146 q 533 275 497 228 q 501 268 517 272 q 469 260 485 264 q 433 250 450 254 q 404 244 417 246 q 393 243 399 243 q 383 243 388 243 q 367 249 368 243 q 369 260 365 254 q 394 281 378 271 q 424 293 410 292 q 489 303 453 297 q 564 315 525 310 q 667 461 617 388 q 758 592 717 535 q 787 628 774 611 q 814 661 800 644 q 864 689 832 683 q 892 717 871 697 q 929 744 913 738 q 936 747 935 747 q 944 741 943 747 q 942 732 944 735 q 915 703 929 722 q 893 667 901 685 q 824 499 856 585 q 764 325 792 413 q 810 309 794 324 q 826 279 826 294 q 815 258 826 260 q 808 267 803 256 q 811 278 811 271 q 796 296 811 289 q 757 304 781 303 q 735 226 747 274 q 717 136 724 179 q 715 113 715 124 q 714 94 714 103 q 724 49 714 63 q 749 35 733 35 q 792 51 768 35 q 840 89 817 67 q 879 131 864 111 q 894 150 882 133 q 922 185 907 167 q 946 215 938 204 q 953 216 947 218 q 957 211 960 214 q 886 118 924 164 q 838 65 868 97 q 774 9 808 33 q 706 -15 739 -15 q 697 -15 701 -15 q 689 -12 693 -14 q 657 15 667 -7 q 647 68 647 38 q 650 101 647 83 q 657 138 653 119 q 682 219 667 175 q 714 304 697 263 q 706 303 710 304 q 699 303 703 303 q 629 294 664 300 q 574 283 594 288 q 461 138 521 207 q 335 24 401 68 q 196 -19 269 -19 m 599 321 q 665 325 633 324 q 724 326 696 326 q 744 373 735 351 q 758 411 753 394 q 801 525 782 472 q 821 588 821 578 q 804 589 821 592 q 764 558 788 586 q 685 451 726 514 q 599 321 643 388 m 953 817 q 893 837 914 817 q 872 889 872 857 q 874 917 872 900 q 888 932 876 933 q 903 879 889 899 q 961 860 918 860 q 1037 878 1011 860 q 1072 914 1063 896 q 1086 932 1082 932 q 1088 929 1088 932 q 1086 922 1088 926 q 1083 914 1085 917 q 1039 845 1069 874 q 953 817 1008 817 z "},"Ắ":{"ha":821,"x_min":21,"x_max":1106,"o":"m 213 232 q 179 239 192 232 q 174 244 174 240 q 177 249 174 247 q 186 247 181 250 q 199 244 194 244 q 236 258 217 244 q 270 296 256 272 q 285 349 285 319 q 278 386 285 365 q 258 424 271 406 q 238 461 246 443 q 222 504 226 485 q 217 542 217 524 q 244 612 217 586 q 316 652 272 638 q 408 674 360 667 q 497 686 457 681 q 581 698 532 690 q 685 715 631 706 q 788 735 739 724 q 873 757 838 746 q 918 779 908 768 q 924 782 921 782 q 928 778 928 782 q 925 769 929 774 q 861 736 910 753 q 747 704 813 719 q 610 675 681 689 q 476 649 539 661 q 375 625 414 636 q 249 510 249 590 q 267 448 249 478 q 302 389 285 418 q 319 329 319 360 q 284 259 319 286 q 213 232 249 232 m 196 -19 q 99 8 138 -19 q 40 78 60 35 q 21 171 21 121 q 29 235 21 204 q 49 263 33 263 q 53 257 53 263 q 49 242 53 251 q 47 231 46 233 q 94 84 51 131 q 200 38 138 38 q 388 117 289 38 q 460 187 424 146 q 533 275 497 228 q 501 268 517 272 q 469 260 485 264 q 433 250 450 254 q 404 244 417 246 q 393 243 399 243 q 383 243 388 243 q 367 249 368 243 q 369 260 365 254 q 394 281 378 271 q 424 293 410 292 q 489 303 453 297 q 564 315 525 310 q 667 461 617 388 q 758 592 717 535 q 787 628 774 611 q 814 661 800 644 q 864 689 832 683 q 892 717 871 697 q 929 744 913 738 q 936 747 935 747 q 944 741 943 747 q 942 732 944 735 q 915 703 929 722 q 893 667 901 685 q 824 499 856 585 q 764 325 792 413 q 810 309 794 324 q 826 279 826 294 q 815 258 826 260 q 808 267 803 256 q 811 278 811 271 q 796 296 811 289 q 757 304 781 303 q 735 226 747 274 q 717 136 724 179 q 715 113 715 124 q 714 94 714 103 q 724 49 714 63 q 749 35 733 35 q 792 51 768 35 q 840 89 817 67 q 879 131 864 111 q 894 150 882 133 q 922 185 907 167 q 946 215 938 204 q 953 216 947 218 q 957 211 960 214 q 886 118 924 164 q 838 65 868 97 q 774 9 808 33 q 706 -15 739 -15 q 697 -15 701 -15 q 689 -12 693 -14 q 657 15 667 -7 q 647 68 647 38 q 650 101 647 83 q 657 138 653 119 q 682 219 667 175 q 714 304 697 263 q 706 303 710 304 q 699 303 703 303 q 629 294 664 300 q 574 283 594 288 q 461 138 521 207 q 335 24 401 68 q 196 -19 269 -19 m 599 321 q 665 325 633 324 q 724 326 696 326 q 744 373 735 351 q 758 411 753 394 q 801 525 782 472 q 821 588 821 578 q 804 589 821 592 q 764 558 788 586 q 685 451 726 514 q 599 321 643 388 m 953 817 q 893 837 914 817 q 872 889 872 857 q 874 917 872 900 q 888 932 876 933 q 903 879 889 899 q 961 860 918 860 q 1037 878 1011 860 q 1072 914 1063 896 q 1086 932 1082 932 q 1088 929 1088 932 q 1086 922 1088 926 q 1083 914 1085 917 q 1039 845 1069 874 q 953 817 1008 817 m 926 951 q 947 973 928 958 q 1017 1019 967 988 l 1076 1060 q 1089 1063 1085 1063 q 1106 1042 1106 1060 q 1083 1018 1106 1031 q 1056 1005 1069 1010 q 1021 990 1042 1000 q 978 971 1000 982 q 941 953 956 960 q 926 951 926 947 z "},"Ặ":{"ha":821,"x_min":21,"x_max":1088,"o":"m 213 232 q 179 239 192 232 q 174 244 174 240 q 177 249 174 247 q 186 247 181 250 q 199 244 194 244 q 236 258 217 244 q 270 296 256 272 q 285 349 285 319 q 278 386 285 365 q 258 424 271 406 q 238 461 246 443 q 222 504 226 485 q 217 542 217 524 q 244 612 217 586 q 316 652 272 638 q 408 674 360 667 q 497 686 457 681 q 581 698 532 690 q 685 715 631 706 q 788 735 739 724 q 873 757 838 746 q 918 779 908 768 q 924 782 921 782 q 928 778 928 782 q 925 769 929 774 q 861 736 910 753 q 747 704 813 719 q 610 675 681 689 q 476 649 539 661 q 375 625 414 636 q 249 510 249 590 q 267 448 249 478 q 302 389 285 418 q 319 329 319 360 q 284 259 319 286 q 213 232 249 232 m 196 -19 q 99 8 138 -19 q 40 78 60 35 q 21 171 21 121 q 29 235 21 204 q 49 263 33 263 q 53 257 53 263 q 49 242 53 251 q 47 231 46 233 q 94 84 51 131 q 200 38 138 38 q 388 117 289 38 q 460 187 424 146 q 533 275 497 228 q 501 268 517 272 q 469 260 485 264 q 433 250 450 254 q 404 244 417 246 q 393 243 399 243 q 383 243 388 243 q 367 249 368 243 q 369 260 365 254 q 394 281 378 271 q 424 293 410 292 q 489 303 453 297 q 564 315 525 310 q 667 461 617 388 q 758 592 717 535 q 787 628 774 611 q 814 661 800 644 q 864 689 832 683 q 892 717 871 697 q 929 744 913 738 q 936 747 935 747 q 944 741 943 747 q 942 732 944 735 q 915 703 929 722 q 893 667 901 685 q 824 499 856 585 q 764 325 792 413 q 810 309 794 324 q 826 279 826 294 q 815 258 826 260 q 808 267 803 256 q 811 278 811 271 q 796 296 811 289 q 757 304 781 303 q 735 226 747 274 q 717 136 724 179 q 715 113 715 124 q 714 94 714 103 q 724 49 714 63 q 749 35 733 35 q 792 51 768 35 q 840 89 817 67 q 879 131 864 111 q 894 150 882 133 q 922 185 907 167 q 946 215 938 204 q 953 216 947 218 q 957 211 960 214 q 886 118 924 164 q 838 65 868 97 q 774 9 808 33 q 706 -15 739 -15 q 697 -15 701 -15 q 689 -12 693 -14 q 657 15 667 -7 q 647 68 647 38 q 650 101 647 83 q 657 138 653 119 q 682 219 667 175 q 714 304 697 263 q 706 303 710 304 q 699 303 703 303 q 629 294 664 300 q 574 283 594 288 q 461 138 521 207 q 335 24 401 68 q 196 -19 269 -19 m 599 321 q 665 325 633 324 q 724 326 696 326 q 744 373 735 351 q 758 411 753 394 q 801 525 782 472 q 821 588 821 578 q 804 589 821 592 q 764 558 788 586 q 685 451 726 514 q 599 321 643 388 m 426 -189 q 413 -172 413 -189 q 413 -164 413 -168 q 415 -156 414 -160 q 446 -118 422 -136 q 489 -100 468 -100 q 497 -104 497 -100 q 492 -117 496 -110 q 482 -136 488 -125 q 472 -153 476 -146 q 467 -162 468 -160 q 426 -189 461 -189 m 953 817 q 893 837 914 817 q 872 889 872 857 q 874 917 872 900 q 888 932 876 933 q 903 879 889 899 q 961 860 918 860 q 1037 878 1011 860 q 1072 914 1063 896 q 1086 932 1082 932 q 1088 929 1088 932 q 1086 922 1088 926 q 1083 914 1085 917 q 1039 845 1069 874 q 953 817 1008 817 z "},"Ằ":{"ha":821,"x_min":21,"x_max":1088,"o":"m 213 232 q 179 239 192 232 q 174 244 174 240 q 177 249 174 247 q 186 247 181 250 q 199 244 194 244 q 236 258 217 244 q 270 296 256 272 q 285 349 285 319 q 278 386 285 365 q 258 424 271 406 q 238 461 246 443 q 222 504 226 485 q 217 542 217 524 q 244 612 217 586 q 316 652 272 638 q 408 674 360 667 q 497 686 457 681 q 581 698 532 690 q 685 715 631 706 q 788 735 739 724 q 873 757 838 746 q 918 779 908 768 q 924 782 921 782 q 928 778 928 782 q 925 769 929 774 q 861 736 910 753 q 747 704 813 719 q 610 675 681 689 q 476 649 539 661 q 375 625 414 636 q 249 510 249 590 q 267 448 249 478 q 302 389 285 418 q 319 329 319 360 q 284 259 319 286 q 213 232 249 232 m 196 -19 q 99 8 138 -19 q 40 78 60 35 q 21 171 21 121 q 29 235 21 204 q 49 263 33 263 q 53 257 53 263 q 49 242 53 251 q 47 231 46 233 q 94 84 51 131 q 200 38 138 38 q 388 117 289 38 q 460 187 424 146 q 533 275 497 228 q 501 268 517 272 q 469 260 485 264 q 433 250 450 254 q 404 244 417 246 q 393 243 399 243 q 383 243 388 243 q 367 249 368 243 q 369 260 365 254 q 394 281 378 271 q 424 293 410 292 q 489 303 453 297 q 564 315 525 310 q 667 461 617 388 q 758 592 717 535 q 787 628 774 611 q 814 661 800 644 q 864 689 832 683 q 892 717 871 697 q 929 744 913 738 q 936 747 935 747 q 944 741 943 747 q 942 732 944 735 q 915 703 929 722 q 893 667 901 685 q 824 499 856 585 q 764 325 792 413 q 810 309 794 324 q 826 279 826 294 q 815 258 826 260 q 808 267 803 256 q 811 278 811 271 q 796 296 811 289 q 757 304 781 303 q 735 226 747 274 q 717 136 724 179 q 715 113 715 124 q 714 94 714 103 q 724 49 714 63 q 749 35 733 35 q 792 51 768 35 q 840 89 817 67 q 879 131 864 111 q 894 150 882 133 q 922 185 907 167 q 946 215 938 204 q 953 216 947 218 q 957 211 960 214 q 886 118 924 164 q 838 65 868 97 q 774 9 808 33 q 706 -15 739 -15 q 697 -15 701 -15 q 689 -12 693 -14 q 657 15 667 -7 q 647 68 647 38 q 650 101 647 83 q 657 138 653 119 q 682 219 667 175 q 714 304 697 263 q 706 303 710 304 q 699 303 703 303 q 629 294 664 300 q 574 283 594 288 q 461 138 521 207 q 335 24 401 68 q 196 -19 269 -19 m 599 321 q 665 325 633 324 q 724 326 696 326 q 744 373 735 351 q 758 411 753 394 q 801 525 782 472 q 821 588 821 578 q 804 589 821 592 q 764 558 788 586 q 685 451 726 514 q 599 321 643 388 m 953 817 q 893 837 914 817 q 872 889 872 857 q 874 917 872 900 q 888 932 876 933 q 903 879 889 899 q 961 860 918 860 q 1037 878 1011 860 q 1072 914 1063 896 q 1086 932 1082 932 q 1088 929 1088 932 q 1086 922 1088 926 q 1083 914 1085 917 q 1039 845 1069 874 q 953 817 1008 817 m 1033 951 q 1019 953 1033 947 q 983 971 1004 960 q 939 990 961 982 q 905 1005 918 1000 q 876 1018 892 1010 q 854 1039 854 1029 l 854 1042 q 871 1063 854 1060 q 883 1060 875 1063 l 943 1019 q 1013 973 993 988 q 1033 951 1032 958 z "},"Ẳ":{"ha":821,"x_min":21,"x_max":1100,"o":"m 213 232 q 179 239 192 232 q 174 244 174 240 q 177 249 174 247 q 186 247 181 250 q 199 244 194 244 q 236 258 217 244 q 270 296 256 272 q 285 349 285 319 q 278 386 285 365 q 258 424 271 406 q 238 461 246 443 q 222 504 226 485 q 217 542 217 524 q 244 612 217 586 q 316 652 272 638 q 408 674 360 667 q 497 686 457 681 q 581 698 532 690 q 685 715 631 706 q 788 735 739 724 q 873 757 838 746 q 918 779 908 768 q 924 782 921 782 q 928 778 928 782 q 925 769 929 774 q 861 736 910 753 q 747 704 813 719 q 610 675 681 689 q 476 649 539 661 q 375 625 414 636 q 249 510 249 590 q 267 448 249 478 q 302 389 285 418 q 319 329 319 360 q 284 259 319 286 q 213 232 249 232 m 196 -19 q 99 8 138 -19 q 40 78 60 35 q 21 171 21 121 q 29 235 21 204 q 49 263 33 263 q 53 257 53 263 q 49 242 53 251 q 47 231 46 233 q 94 84 51 131 q 200 38 138 38 q 388 117 289 38 q 460 187 424 146 q 533 275 497 228 q 501 268 517 272 q 469 260 485 264 q 433 250 450 254 q 404 244 417 246 q 393 243 399 243 q 383 243 388 243 q 367 249 368 243 q 369 260 365 254 q 394 281 378 271 q 424 293 410 292 q 489 303 453 297 q 564 315 525 310 q 667 461 617 388 q 758 592 717 535 q 787 628 774 611 q 814 661 800 644 q 864 689 832 683 q 892 717 871 697 q 929 744 913 738 q 936 747 935 747 q 944 741 943 747 q 942 732 944 735 q 915 703 929 722 q 893 667 901 685 q 824 499 856 585 q 764 325 792 413 q 810 309 794 324 q 826 279 826 294 q 815 258 826 260 q 808 267 803 256 q 811 278 811 271 q 796 296 811 289 q 757 304 781 303 q 735 226 747 274 q 717 136 724 179 q 715 113 715 124 q 714 94 714 103 q 724 49 714 63 q 749 35 733 35 q 792 51 768 35 q 840 89 817 67 q 879 131 864 111 q 894 150 882 133 q 922 185 907 167 q 946 215 938 204 q 953 216 947 218 q 957 211 960 214 q 886 118 924 164 q 838 65 868 97 q 774 9 808 33 q 706 -15 739 -15 q 697 -15 701 -15 q 689 -12 693 -14 q 657 15 667 -7 q 647 68 647 38 q 650 101 647 83 q 657 138 653 119 q 682 219 667 175 q 714 304 697 263 q 706 303 710 304 q 699 303 703 303 q 629 294 664 300 q 574 283 594 288 q 461 138 521 207 q 335 24 401 68 q 196 -19 269 -19 m 599 321 q 665 325 633 324 q 724 326 696 326 q 744 373 735 351 q 758 411 753 394 q 801 525 782 472 q 821 588 821 578 q 804 589 821 592 q 764 558 788 586 q 685 451 726 514 q 599 321 643 388 m 953 817 q 893 837 914 817 q 872 889 872 857 q 874 917 872 900 q 888 932 876 933 q 903 879 889 899 q 961 860 918 860 q 1037 878 1011 860 q 1072 914 1063 896 q 1086 932 1082 932 q 1088 929 1088 932 q 1086 922 1088 926 q 1083 914 1085 917 q 1039 845 1069 874 q 953 817 1008 817 m 983 951 q 1005 990 993 976 q 1025 1014 1017 1004 q 1035 1032 1032 1022 q 1040 1047 1039 1042 l 1040 1051 q 1019 1069 1040 1069 q 975 1063 989 1069 q 951 1056 961 1056 q 947 1064 944 1056 q 983 1088 951 1074 q 1047 1101 1015 1101 q 1092 1064 1100 1101 q 1088 1047 1092 1056 q 1060 1012 1078 1025 q 1025 987 1043 999 q 996 953 1007 975 q 988 949 994 950 q 983 951 982 947 z "},"Ẵ":{"ha":821,"x_min":21,"x_max":1132,"o":"m 213 232 q 179 239 192 232 q 174 244 174 240 q 177 249 174 247 q 186 247 181 250 q 199 244 194 244 q 236 258 217 244 q 270 296 256 272 q 285 349 285 319 q 278 386 285 365 q 258 424 271 406 q 238 461 246 443 q 222 504 226 485 q 217 542 217 524 q 244 612 217 586 q 316 652 272 638 q 408 674 360 667 q 497 686 457 681 q 581 698 532 690 q 685 715 631 706 q 788 735 739 724 q 873 757 838 746 q 918 779 908 768 q 924 782 921 782 q 928 778 928 782 q 925 769 929 774 q 861 736 910 753 q 747 704 813 719 q 610 675 681 689 q 476 649 539 661 q 375 625 414 636 q 249 510 249 590 q 267 448 249 478 q 302 389 285 418 q 319 329 319 360 q 284 259 319 286 q 213 232 249 232 m 196 -19 q 99 8 138 -19 q 40 78 60 35 q 21 171 21 121 q 29 235 21 204 q 49 263 33 263 q 53 257 53 263 q 49 242 53 251 q 47 231 46 233 q 94 84 51 131 q 200 38 138 38 q 388 117 289 38 q 460 187 424 146 q 533 275 497 228 q 501 268 517 272 q 469 260 485 264 q 433 250 450 254 q 404 244 417 246 q 393 243 399 243 q 383 243 388 243 q 367 249 368 243 q 369 260 365 254 q 394 281 378 271 q 424 293 410 292 q 489 303 453 297 q 564 315 525 310 q 667 461 617 388 q 758 592 717 535 q 787 628 774 611 q 814 661 800 644 q 864 689 832 683 q 892 717 871 697 q 929 744 913 738 q 936 747 935 747 q 944 741 943 747 q 942 732 944 735 q 915 703 929 722 q 893 667 901 685 q 824 499 856 585 q 764 325 792 413 q 810 309 794 324 q 826 279 826 294 q 815 258 826 260 q 808 267 803 256 q 811 278 811 271 q 796 296 811 289 q 757 304 781 303 q 735 226 747 274 q 717 136 724 179 q 715 113 715 124 q 714 94 714 103 q 724 49 714 63 q 749 35 733 35 q 792 51 768 35 q 840 89 817 67 q 879 131 864 111 q 894 150 882 133 q 922 185 907 167 q 946 215 938 204 q 953 216 947 218 q 957 211 960 214 q 886 118 924 164 q 838 65 868 97 q 774 9 808 33 q 706 -15 739 -15 q 697 -15 701 -15 q 689 -12 693 -14 q 657 15 667 -7 q 647 68 647 38 q 650 101 647 83 q 657 138 653 119 q 682 219 667 175 q 714 304 697 263 q 706 303 710 304 q 699 303 703 303 q 629 294 664 300 q 574 283 594 288 q 461 138 521 207 q 335 24 401 68 q 196 -19 269 -19 m 599 321 q 665 325 633 324 q 724 326 696 326 q 744 373 735 351 q 758 411 753 394 q 801 525 782 472 q 821 588 821 578 q 804 589 821 592 q 764 558 788 586 q 685 451 726 514 q 599 321 643 388 m 953 817 q 893 837 914 817 q 872 889 872 857 q 874 917 872 900 q 888 932 876 933 q 903 879 889 899 q 961 860 918 860 q 1037 878 1011 860 q 1072 914 1063 896 q 1086 932 1082 932 q 1088 929 1088 932 q 1086 922 1088 926 q 1083 914 1085 917 q 1039 845 1069 874 q 953 817 1008 817 m 1051 949 q 1013 961 1032 949 q 974 985 993 974 q 935 997 956 997 q 904 990 914 997 q 886 971 894 982 q 879 956 881 963 q 875 950 878 950 q 872 963 872 950 q 882 992 872 972 q 907 1028 892 1011 q 939 1046 922 1046 q 976 1033 957 1046 q 1016 1006 996 1019 q 1054 993 1036 993 q 1083 999 1067 993 q 1110 1021 1099 1004 q 1117 1032 1114 1028 q 1125 1036 1121 1036 q 1128 1028 1132 1036 q 1110 997 1122 1015 q 1083 963 1099 978 q 1051 949 1068 949 z "},"Ǎ":{"ha":821,"x_min":21,"x_max":1106,"o":"m 847 950 q 876 939 854 953 q 913 914 897 925 q 940 897 924 906 q 964 881 956 888 q 987 891 974 886 q 1010 901 1000 896 q 1074 933 1054 924 q 1103 947 1093 943 q 1104 943 1106 947 q 1081 919 1099 935 q 1036 885 1063 904 q 1001 858 1018 871 q 963 828 983 846 q 949 818 953 818 q 939 828 946 818 q 923 852 936 833 q 899 883 910 871 q 867 920 886 899 q 844 944 847 942 q 847 950 840 950 m 213 232 q 179 239 192 232 q 174 244 174 240 q 177 249 174 247 q 186 247 181 250 q 199 244 194 244 q 236 258 217 244 q 270 296 256 272 q 285 349 285 319 q 278 386 285 365 q 258 424 271 406 q 238 461 246 443 q 222 504 226 485 q 217 542 217 524 q 244 612 217 586 q 316 652 272 638 q 408 674 360 667 q 497 686 457 681 q 581 698 532 690 q 685 715 631 706 q 788 735 739 724 q 873 757 838 746 q 918 779 908 768 q 924 782 921 782 q 928 778 928 782 q 925 769 929 774 q 861 736 910 753 q 747 704 813 719 q 610 675 681 689 q 476 649 539 661 q 375 625 414 636 q 249 510 249 590 q 267 448 249 478 q 302 389 285 418 q 319 329 319 360 q 284 259 319 286 q 213 232 249 232 m 196 -19 q 99 8 138 -19 q 40 78 60 35 q 21 171 21 121 q 29 235 21 204 q 49 263 33 263 q 53 257 53 263 q 49 242 53 251 q 47 231 46 233 q 94 84 51 131 q 200 38 138 38 q 388 117 289 38 q 460 187 424 146 q 533 275 497 228 q 501 268 517 272 q 469 260 485 264 q 433 250 450 254 q 404 244 417 246 q 393 243 399 243 q 383 243 388 243 q 367 249 368 243 q 369 260 365 254 q 394 281 378 271 q 424 293 410 292 q 489 303 453 297 q 564 315 525 310 q 667 461 617 388 q 758 592 717 535 q 787 628 774 611 q 814 661 800 644 q 864 689 832 683 q 892 717 871 697 q 929 744 913 738 q 936 747 935 747 q 944 741 943 747 q 942 732 944 735 q 915 703 929 722 q 893 667 901 685 q 824 499 856 585 q 764 325 792 413 q 810 309 794 324 q 826 279 826 294 q 815 258 826 260 q 808 267 803 256 q 811 278 811 271 q 796 296 811 289 q 757 304 781 303 q 735 226 747 274 q 717 136 724 179 q 715 113 715 124 q 714 94 714 103 q 724 49 714 63 q 749 35 733 35 q 792 51 768 35 q 840 89 817 67 q 879 131 864 111 q 894 150 882 133 q 922 185 907 167 q 946 215 938 204 q 953 216 947 218 q 957 211 960 214 q 886 118 924 164 q 838 65 868 97 q 774 9 808 33 q 706 -15 739 -15 q 697 -15 701 -15 q 689 -12 693 -14 q 657 15 667 -7 q 647 68 647 38 q 650 101 647 83 q 657 138 653 119 q 682 219 667 175 q 714 304 697 263 q 706 303 710 304 q 699 303 703 303 q 629 294 664 300 q 574 283 594 288 q 461 138 521 207 q 335 24 401 68 q 196 -19 269 -19 m 599 321 q 665 325 633 324 q 724 326 696 326 q 744 373 735 351 q 758 411 753 394 q 801 525 782 472 q 821 588 821 578 q 804 589 821 592 q 764 558 788 586 q 685 451 726 514 q 599 321 643 388 z "},"Â":{"ha":821,"x_min":21,"x_max":1088,"o":"m 213 232 q 179 239 192 232 q 174 244 174 240 q 177 249 174 247 q 186 247 181 250 q 199 244 194 244 q 236 258 217 244 q 270 296 256 272 q 285 349 285 319 q 278 386 285 365 q 258 424 271 406 q 238 461 246 443 q 222 504 226 485 q 217 542 217 524 q 244 612 217 586 q 316 652 272 638 q 408 674 360 667 q 497 686 457 681 q 581 698 532 690 q 685 715 631 706 q 788 735 739 724 q 873 757 838 746 q 918 779 908 768 q 924 782 921 782 q 928 778 928 782 q 925 769 929 774 q 861 736 910 753 q 747 704 813 719 q 610 675 681 689 q 476 649 539 661 q 375 625 414 636 q 249 510 249 590 q 267 448 249 478 q 302 389 285 418 q 319 329 319 360 q 284 259 319 286 q 213 232 249 232 m 196 -19 q 99 8 138 -19 q 40 78 60 35 q 21 171 21 121 q 29 235 21 204 q 49 263 33 263 q 53 257 53 263 q 49 242 53 251 q 47 231 46 233 q 94 84 51 131 q 200 38 138 38 q 388 117 289 38 q 460 187 424 146 q 533 275 497 228 q 501 268 517 272 q 469 260 485 264 q 433 250 450 254 q 404 244 417 246 q 393 243 399 243 q 383 243 388 243 q 367 249 368 243 q 369 260 365 254 q 394 281 378 271 q 424 293 410 292 q 489 303 453 297 q 564 315 525 310 q 667 461 617 388 q 758 592 717 535 q 787 628 774 611 q 814 661 800 644 q 864 689 832 683 q 892 717 871 697 q 929 744 913 738 q 936 747 935 747 q 944 741 943 747 q 942 732 944 735 q 915 703 929 722 q 893 667 901 685 q 824 499 856 585 q 764 325 792 413 q 810 309 794 324 q 826 279 826 294 q 815 258 826 260 q 808 267 803 256 q 811 278 811 271 q 796 296 811 289 q 757 304 781 303 q 735 226 747 274 q 717 136 724 179 q 715 113 715 124 q 714 94 714 103 q 724 49 714 63 q 749 35 733 35 q 792 51 768 35 q 840 89 817 67 q 879 131 864 111 q 894 150 882 133 q 922 185 907 167 q 946 215 938 204 q 953 216 947 218 q 957 211 960 214 q 886 118 924 164 q 838 65 868 97 q 774 9 808 33 q 706 -15 739 -15 q 697 -15 701 -15 q 689 -12 693 -14 q 657 15 667 -7 q 647 68 647 38 q 650 101 647 83 q 657 138 653 119 q 682 219 667 175 q 714 304 697 263 q 706 303 710 304 q 699 303 703 303 q 629 294 664 300 q 574 283 594 288 q 461 138 521 207 q 335 24 401 68 q 196 -19 269 -19 m 599 321 q 665 325 633 324 q 724 326 696 326 q 744 373 735 351 q 758 411 753 394 q 801 525 782 472 q 821 588 821 578 q 804 589 821 592 q 764 558 788 586 q 685 451 726 514 q 599 321 643 388 m 1081 810 q 1053 822 1075 808 q 1015 846 1031 835 q 988 864 1004 854 q 964 879 972 874 q 942 869 954 874 q 918 858 929 864 q 856 826 875 836 q 825 813 836 817 q 824 817 822 813 q 847 840 829 825 q 892 875 865 856 q 928 902 911 890 q 965 932 944 914 q 979 942 975 942 q 989 932 982 942 q 1006 908 992 926 q 1029 876 1019 889 q 1062 840 1042 861 q 1083 815 1082 818 q 1081 810 1088 810 z "},"Ấ":{"ha":821,"x_min":21,"x_max":1257,"o":"m 213 232 q 179 239 192 232 q 174 244 174 240 q 177 249 174 247 q 186 247 181 250 q 199 244 194 244 q 236 258 217 244 q 270 296 256 272 q 285 349 285 319 q 278 386 285 365 q 258 424 271 406 q 238 461 246 443 q 222 504 226 485 q 217 542 217 524 q 244 612 217 586 q 316 652 272 638 q 408 674 360 667 q 497 686 457 681 q 581 698 532 690 q 685 715 631 706 q 788 735 739 724 q 873 757 838 746 q 918 779 908 768 q 924 782 921 782 q 928 778 928 782 q 925 769 929 774 q 861 736 910 753 q 747 704 813 719 q 610 675 681 689 q 476 649 539 661 q 375 625 414 636 q 249 510 249 590 q 267 448 249 478 q 302 389 285 418 q 319 329 319 360 q 284 259 319 286 q 213 232 249 232 m 196 -19 q 99 8 138 -19 q 40 78 60 35 q 21 171 21 121 q 29 235 21 204 q 49 263 33 263 q 53 257 53 263 q 49 242 53 251 q 47 231 46 233 q 94 84 51 131 q 200 38 138 38 q 388 117 289 38 q 460 187 424 146 q 533 275 497 228 q 501 268 517 272 q 469 260 485 264 q 433 250 450 254 q 404 244 417 246 q 393 243 399 243 q 383 243 388 243 q 367 249 368 243 q 369 260 365 254 q 394 281 378 271 q 424 293 410 292 q 489 303 453 297 q 564 315 525 310 q 667 461 617 388 q 758 592 717 535 q 787 628 774 611 q 814 661 800 644 q 864 689 832 683 q 892 717 871 697 q 929 744 913 738 q 936 747 935 747 q 944 741 943 747 q 942 732 944 735 q 915 703 929 722 q 893 667 901 685 q 824 499 856 585 q 764 325 792 413 q 810 309 794 324 q 826 279 826 294 q 815 258 826 260 q 808 267 803 256 q 811 278 811 271 q 796 296 811 289 q 757 304 781 303 q 735 226 747 274 q 717 136 724 179 q 715 113 715 124 q 714 94 714 103 q 724 49 714 63 q 749 35 733 35 q 792 51 768 35 q 840 89 817 67 q 879 131 864 111 q 894 150 882 133 q 922 185 907 167 q 946 215 938 204 q 953 216 947 218 q 957 211 960 214 q 886 118 924 164 q 838 65 868 97 q 774 9 808 33 q 706 -15 739 -15 q 697 -15 701 -15 q 689 -12 693 -14 q 657 15 667 -7 q 647 68 647 38 q 650 101 647 83 q 657 138 653 119 q 682 219 667 175 q 714 304 697 263 q 706 303 710 304 q 699 303 703 303 q 629 294 664 300 q 574 283 594 288 q 461 138 521 207 q 335 24 401 68 q 196 -19 269 -19 m 599 321 q 665 325 633 324 q 724 326 696 326 q 744 373 735 351 q 758 411 753 394 q 801 525 782 472 q 821 588 821 578 q 804 589 821 592 q 764 558 788 586 q 685 451 726 514 q 599 321 643 388 m 1081 810 q 1053 822 1075 808 q 1015 846 1031 835 q 988 864 1004 854 q 964 879 972 874 q 942 869 954 874 q 918 858 929 864 q 856 826 875 836 q 825 813 836 817 q 824 817 822 813 q 847 840 829 825 q 892 875 865 856 q 928 902 911 890 q 965 932 944 914 q 979 942 975 942 q 989 932 982 942 q 1006 908 992 926 q 1029 876 1019 889 q 1062 840 1042 861 q 1083 815 1082 818 q 1081 810 1088 810 m 1078 926 q 1099 948 1079 933 q 1168 994 1118 963 l 1228 1035 q 1240 1038 1236 1038 q 1257 1017 1257 1035 q 1235 993 1257 1006 q 1207 980 1221 985 q 1172 965 1193 975 q 1129 946 1151 957 q 1092 928 1107 935 q 1078 926 1078 922 z "},"Ậ":{"ha":821,"x_min":21,"x_max":1088,"o":"m 213 232 q 179 239 192 232 q 174 244 174 240 q 177 249 174 247 q 186 247 181 250 q 199 244 194 244 q 236 258 217 244 q 270 296 256 272 q 285 349 285 319 q 278 386 285 365 q 258 424 271 406 q 238 461 246 443 q 222 504 226 485 q 217 542 217 524 q 244 612 217 586 q 316 652 272 638 q 408 674 360 667 q 497 686 457 681 q 581 698 532 690 q 685 715 631 706 q 788 735 739 724 q 873 757 838 746 q 918 779 908 768 q 924 782 921 782 q 928 778 928 782 q 925 769 929 774 q 861 736 910 753 q 747 704 813 719 q 610 675 681 689 q 476 649 539 661 q 375 625 414 636 q 249 510 249 590 q 267 448 249 478 q 302 389 285 418 q 319 329 319 360 q 284 259 319 286 q 213 232 249 232 m 196 -19 q 99 8 138 -19 q 40 78 60 35 q 21 171 21 121 q 29 235 21 204 q 49 263 33 263 q 53 257 53 263 q 49 242 53 251 q 47 231 46 233 q 94 84 51 131 q 200 38 138 38 q 388 117 289 38 q 460 187 424 146 q 533 275 497 228 q 501 268 517 272 q 469 260 485 264 q 433 250 450 254 q 404 244 417 246 q 393 243 399 243 q 383 243 388 243 q 367 249 368 243 q 369 260 365 254 q 394 281 378 271 q 424 293 410 292 q 489 303 453 297 q 564 315 525 310 q 667 461 617 388 q 758 592 717 535 q 787 628 774 611 q 814 661 800 644 q 864 689 832 683 q 892 717 871 697 q 929 744 913 738 q 936 747 935 747 q 944 741 943 747 q 942 732 944 735 q 915 703 929 722 q 893 667 901 685 q 824 499 856 585 q 764 325 792 413 q 810 309 794 324 q 826 279 826 294 q 815 258 826 260 q 808 267 803 256 q 811 278 811 271 q 796 296 811 289 q 757 304 781 303 q 735 226 747 274 q 717 136 724 179 q 715 113 715 124 q 714 94 714 103 q 724 49 714 63 q 749 35 733 35 q 792 51 768 35 q 840 89 817 67 q 879 131 864 111 q 894 150 882 133 q 922 185 907 167 q 946 215 938 204 q 953 216 947 218 q 957 211 960 214 q 886 118 924 164 q 838 65 868 97 q 774 9 808 33 q 706 -15 739 -15 q 697 -15 701 -15 q 689 -12 693 -14 q 657 15 667 -7 q 647 68 647 38 q 650 101 647 83 q 657 138 653 119 q 682 219 667 175 q 714 304 697 263 q 706 303 710 304 q 699 303 703 303 q 629 294 664 300 q 574 283 594 288 q 461 138 521 207 q 335 24 401 68 q 196 -19 269 -19 m 599 321 q 665 325 633 324 q 724 326 696 326 q 744 373 735 351 q 758 411 753 394 q 801 525 782 472 q 821 588 821 578 q 804 589 821 592 q 764 558 788 586 q 685 451 726 514 q 599 321 643 388 m 426 -189 q 413 -172 413 -189 q 413 -164 413 -168 q 415 -156 414 -160 q 446 -118 422 -136 q 489 -100 468 -100 q 497 -104 497 -100 q 492 -117 496 -110 q 482 -136 488 -125 q 472 -153 476 -146 q 467 -162 468 -160 q 426 -189 461 -189 m 1081 810 q 1053 822 1075 808 q 1015 846 1031 835 q 988 864 1004 854 q 964 879 972 874 q 942 869 954 874 q 918 858 929 864 q 856 826 875 836 q 825 813 836 817 q 824 817 822 813 q 847 840 829 825 q 892 875 865 856 q 928 902 911 890 q 965 932 944 914 q 979 942 975 942 q 989 932 982 942 q 1006 908 992 926 q 1029 876 1019 889 q 1062 840 1042 861 q 1083 815 1082 818 q 1081 810 1088 810 z "},"Ầ":{"ha":821,"x_min":21,"x_max":1126,"o":"m 213 232 q 179 239 192 232 q 174 244 174 240 q 177 249 174 247 q 186 247 181 250 q 199 244 194 244 q 236 258 217 244 q 270 296 256 272 q 285 349 285 319 q 278 386 285 365 q 258 424 271 406 q 238 461 246 443 q 222 504 226 485 q 217 542 217 524 q 244 612 217 586 q 316 652 272 638 q 408 674 360 667 q 497 686 457 681 q 581 698 532 690 q 685 715 631 706 q 788 735 739 724 q 873 757 838 746 q 918 779 908 768 q 924 782 921 782 q 928 778 928 782 q 925 769 929 774 q 861 736 910 753 q 747 704 813 719 q 610 675 681 689 q 476 649 539 661 q 375 625 414 636 q 249 510 249 590 q 267 448 249 478 q 302 389 285 418 q 319 329 319 360 q 284 259 319 286 q 213 232 249 232 m 196 -19 q 99 8 138 -19 q 40 78 60 35 q 21 171 21 121 q 29 235 21 204 q 49 263 33 263 q 53 257 53 263 q 49 242 53 251 q 47 231 46 233 q 94 84 51 131 q 200 38 138 38 q 388 117 289 38 q 460 187 424 146 q 533 275 497 228 q 501 268 517 272 q 469 260 485 264 q 433 250 450 254 q 404 244 417 246 q 393 243 399 243 q 383 243 388 243 q 367 249 368 243 q 369 260 365 254 q 394 281 378 271 q 424 293 410 292 q 489 303 453 297 q 564 315 525 310 q 667 461 617 388 q 758 592 717 535 q 787 628 774 611 q 814 661 800 644 q 864 689 832 683 q 892 717 871 697 q 929 744 913 738 q 936 747 935 747 q 944 741 943 747 q 942 732 944 735 q 915 703 929 722 q 893 667 901 685 q 824 499 856 585 q 764 325 792 413 q 810 309 794 324 q 826 279 826 294 q 815 258 826 260 q 808 267 803 256 q 811 278 811 271 q 796 296 811 289 q 757 304 781 303 q 735 226 747 274 q 717 136 724 179 q 715 113 715 124 q 714 94 714 103 q 724 49 714 63 q 749 35 733 35 q 792 51 768 35 q 840 89 817 67 q 879 131 864 111 q 894 150 882 133 q 922 185 907 167 q 946 215 938 204 q 953 216 947 218 q 957 211 960 214 q 886 118 924 164 q 838 65 868 97 q 774 9 808 33 q 706 -15 739 -15 q 697 -15 701 -15 q 689 -12 693 -14 q 657 15 667 -7 q 647 68 647 38 q 650 101 647 83 q 657 138 653 119 q 682 219 667 175 q 714 304 697 263 q 706 303 710 304 q 699 303 703 303 q 629 294 664 300 q 574 283 594 288 q 461 138 521 207 q 335 24 401 68 q 196 -19 269 -19 m 599 321 q 665 325 633 324 q 724 326 696 326 q 744 373 735 351 q 758 411 753 394 q 801 525 782 472 q 821 588 821 578 q 804 589 821 592 q 764 558 788 586 q 685 451 726 514 q 599 321 643 388 m 1081 810 q 1053 822 1075 808 q 1015 846 1031 835 q 988 864 1004 854 q 964 879 972 874 q 942 869 954 874 q 918 858 929 864 q 856 826 875 836 q 825 813 836 817 q 824 817 822 813 q 847 840 829 825 q 892 875 865 856 q 928 902 911 890 q 965 932 944 914 q 979 942 975 942 q 989 932 982 942 q 1006 908 992 926 q 1029 876 1019 889 q 1062 840 1042 861 q 1083 815 1082 818 q 1081 810 1088 810 m 1126 963 q 1112 965 1126 958 q 1076 982 1097 971 q 1032 1001 1054 993 q 998 1016 1011 1011 q 969 1029 985 1021 q 947 1050 947 1040 l 947 1053 q 964 1074 947 1071 q 976 1071 968 1074 l 1036 1031 q 1106 984 1086 999 q 1126 963 1125 969 z "},"Ẩ":{"ha":821,"x_min":21,"x_max":1215,"o":"m 213 232 q 179 239 192 232 q 174 244 174 240 q 177 249 174 247 q 186 247 181 250 q 199 244 194 244 q 236 258 217 244 q 270 296 256 272 q 285 349 285 319 q 278 386 285 365 q 258 424 271 406 q 238 461 246 443 q 222 504 226 485 q 217 542 217 524 q 244 612 217 586 q 316 652 272 638 q 408 674 360 667 q 497 686 457 681 q 581 698 532 690 q 685 715 631 706 q 788 735 739 724 q 873 757 838 746 q 918 779 908 768 q 924 782 921 782 q 928 778 928 782 q 925 769 929 774 q 861 736 910 753 q 747 704 813 719 q 610 675 681 689 q 476 649 539 661 q 375 625 414 636 q 249 510 249 590 q 267 448 249 478 q 302 389 285 418 q 319 329 319 360 q 284 259 319 286 q 213 232 249 232 m 196 -19 q 99 8 138 -19 q 40 78 60 35 q 21 171 21 121 q 29 235 21 204 q 49 263 33 263 q 53 257 53 263 q 49 242 53 251 q 47 231 46 233 q 94 84 51 131 q 200 38 138 38 q 388 117 289 38 q 460 187 424 146 q 533 275 497 228 q 501 268 517 272 q 469 260 485 264 q 433 250 450 254 q 404 244 417 246 q 393 243 399 243 q 383 243 388 243 q 367 249 368 243 q 369 260 365 254 q 394 281 378 271 q 424 293 410 292 q 489 303 453 297 q 564 315 525 310 q 667 461 617 388 q 758 592 717 535 q 787 628 774 611 q 814 661 800 644 q 864 689 832 683 q 892 717 871 697 q 929 744 913 738 q 936 747 935 747 q 944 741 943 747 q 942 732 944 735 q 915 703 929 722 q 893 667 901 685 q 824 499 856 585 q 764 325 792 413 q 810 309 794 324 q 826 279 826 294 q 815 258 826 260 q 808 267 803 256 q 811 278 811 271 q 796 296 811 289 q 757 304 781 303 q 735 226 747 274 q 717 136 724 179 q 715 113 715 124 q 714 94 714 103 q 724 49 714 63 q 749 35 733 35 q 792 51 768 35 q 840 89 817 67 q 879 131 864 111 q 894 150 882 133 q 922 185 907 167 q 946 215 938 204 q 953 216 947 218 q 957 211 960 214 q 886 118 924 164 q 838 65 868 97 q 774 9 808 33 q 706 -15 739 -15 q 697 -15 701 -15 q 689 -12 693 -14 q 657 15 667 -7 q 647 68 647 38 q 650 101 647 83 q 657 138 653 119 q 682 219 667 175 q 714 304 697 263 q 706 303 710 304 q 699 303 703 303 q 629 294 664 300 q 574 283 594 288 q 461 138 521 207 q 335 24 401 68 q 196 -19 269 -19 m 599 321 q 665 325 633 324 q 724 326 696 326 q 744 373 735 351 q 758 411 753 394 q 801 525 782 472 q 821 588 821 578 q 804 589 821 592 q 764 558 788 586 q 685 451 726 514 q 599 321 643 388 m 1081 810 q 1053 822 1075 808 q 1015 846 1031 835 q 988 864 1004 854 q 964 879 972 874 q 942 869 954 874 q 918 858 929 864 q 856 826 875 836 q 825 813 836 817 q 824 817 822 813 q 847 840 829 825 q 892 875 865 856 q 928 902 911 890 q 965 932 944 914 q 979 942 975 942 q 989 932 982 942 q 1006 908 992 926 q 1029 876 1019 889 q 1062 840 1042 861 q 1083 815 1082 818 q 1081 810 1088 810 m 1099 903 q 1120 942 1108 928 q 1140 965 1132 956 q 1151 983 1147 974 q 1156 999 1154 993 l 1156 1003 q 1135 1021 1156 1021 q 1090 1014 1104 1021 q 1067 1007 1076 1007 q 1063 1015 1060 1007 q 1099 1039 1067 1025 q 1163 1053 1131 1053 q 1207 1015 1215 1053 q 1203 999 1207 1007 q 1176 963 1193 976 q 1140 938 1158 950 q 1111 904 1122 926 q 1103 900 1110 901 q 1099 903 1097 899 z "},"Ẫ":{"ha":821,"x_min":21,"x_max":1150,"o":"m 213 232 q 179 239 192 232 q 174 244 174 240 q 177 249 174 247 q 186 247 181 250 q 199 244 194 244 q 236 258 217 244 q 270 296 256 272 q 285 349 285 319 q 278 386 285 365 q 258 424 271 406 q 238 461 246 443 q 222 504 226 485 q 217 542 217 524 q 244 612 217 586 q 316 652 272 638 q 408 674 360 667 q 497 686 457 681 q 581 698 532 690 q 685 715 631 706 q 788 735 739 724 q 873 757 838 746 q 918 779 908 768 q 924 782 921 782 q 928 778 928 782 q 925 769 929 774 q 861 736 910 753 q 747 704 813 719 q 610 675 681 689 q 476 649 539 661 q 375 625 414 636 q 249 510 249 590 q 267 448 249 478 q 302 389 285 418 q 319 329 319 360 q 284 259 319 286 q 213 232 249 232 m 196 -19 q 99 8 138 -19 q 40 78 60 35 q 21 171 21 121 q 29 235 21 204 q 49 263 33 263 q 53 257 53 263 q 49 242 53 251 q 47 231 46 233 q 94 84 51 131 q 200 38 138 38 q 388 117 289 38 q 460 187 424 146 q 533 275 497 228 q 501 268 517 272 q 469 260 485 264 q 433 250 450 254 q 404 244 417 246 q 393 243 399 243 q 383 243 388 243 q 367 249 368 243 q 369 260 365 254 q 394 281 378 271 q 424 293 410 292 q 489 303 453 297 q 564 315 525 310 q 667 461 617 388 q 758 592 717 535 q 787 628 774 611 q 814 661 800 644 q 864 689 832 683 q 892 717 871 697 q 929 744 913 738 q 936 747 935 747 q 944 741 943 747 q 942 732 944 735 q 915 703 929 722 q 893 667 901 685 q 824 499 856 585 q 764 325 792 413 q 810 309 794 324 q 826 279 826 294 q 815 258 826 260 q 808 267 803 256 q 811 278 811 271 q 796 296 811 289 q 757 304 781 303 q 735 226 747 274 q 717 136 724 179 q 715 113 715 124 q 714 94 714 103 q 724 49 714 63 q 749 35 733 35 q 792 51 768 35 q 840 89 817 67 q 879 131 864 111 q 894 150 882 133 q 922 185 907 167 q 946 215 938 204 q 953 216 947 218 q 957 211 960 214 q 886 118 924 164 q 838 65 868 97 q 774 9 808 33 q 706 -15 739 -15 q 697 -15 701 -15 q 689 -12 693 -14 q 657 15 667 -7 q 647 68 647 38 q 650 101 647 83 q 657 138 653 119 q 682 219 667 175 q 714 304 697 263 q 706 303 710 304 q 699 303 703 303 q 629 294 664 300 q 574 283 594 288 q 461 138 521 207 q 335 24 401 68 q 196 -19 269 -19 m 599 321 q 665 325 633 324 q 724 326 696 326 q 744 373 735 351 q 758 411 753 394 q 801 525 782 472 q 821 588 821 578 q 804 589 821 592 q 764 558 788 586 q 685 451 726 514 q 599 321 643 388 m 1081 810 q 1053 822 1075 808 q 1015 846 1031 835 q 988 864 1004 854 q 964 879 972 874 q 942 869 954 874 q 918 858 929 864 q 856 826 875 836 q 825 813 836 817 q 824 817 822 813 q 847 840 829 825 q 892 875 865 856 q 928 902 911 890 q 965 932 944 914 q 979 942 975 942 q 989 932 982 942 q 1006 908 992 926 q 1029 876 1019 889 q 1062 840 1042 861 q 1083 815 1082 818 q 1081 810 1088 810 m 1069 958 q 1031 971 1050 958 q 992 995 1011 983 q 953 1007 974 1007 q 922 999 932 1007 q 904 981 913 992 q 897 966 899 972 q 893 960 896 960 q 890 972 890 960 q 900 1001 890 982 q 925 1038 910 1021 q 957 1056 940 1056 q 994 1042 975 1056 q 1034 1016 1014 1029 q 1072 1003 1054 1003 q 1101 1008 1085 1003 q 1128 1031 1117 1014 q 1135 1042 1132 1038 q 1143 1046 1139 1046 q 1146 1038 1150 1046 q 1128 1006 1140 1025 q 1101 973 1117 988 q 1069 958 1086 958 z "},"Ȁ":{"ha":821,"x_min":21,"x_max":994,"o":"m 993 828 q 967 840 993 819 q 913 881 942 860 q 883 901 894 894 q 857 919 871 908 q 840 946 839 935 q 861 964 842 967 q 874 958 868 964 l 922 907 q 980 850 965 865 q 993 828 994 835 m 903 832 q 876 842 903 825 q 817 876 849 858 q 785 894 797 888 q 757 910 772 900 q 738 933 738 922 q 757 954 738 954 q 769 950 764 954 l 824 904 q 887 853 871 867 q 903 832 903 839 m 213 232 q 179 239 192 232 q 174 244 174 240 q 177 249 174 247 q 186 247 181 250 q 199 244 194 244 q 236 258 217 244 q 270 296 256 272 q 285 349 285 319 q 278 386 285 365 q 258 424 271 406 q 238 461 246 443 q 222 504 226 485 q 217 542 217 524 q 244 612 217 586 q 316 652 272 638 q 408 674 360 667 q 497 686 457 681 q 581 698 532 690 q 685 715 631 706 q 788 735 739 724 q 873 757 838 746 q 918 779 908 768 q 924 782 921 782 q 928 778 928 782 q 925 769 929 774 q 861 736 910 753 q 747 704 813 719 q 610 675 681 689 q 476 649 539 661 q 375 625 414 636 q 249 510 249 590 q 267 448 249 478 q 302 389 285 418 q 319 329 319 360 q 284 259 319 286 q 213 232 249 232 m 196 -19 q 99 8 138 -19 q 40 78 60 35 q 21 171 21 121 q 29 235 21 204 q 49 263 33 263 q 53 257 53 263 q 49 242 53 251 q 47 231 46 233 q 94 84 51 131 q 200 38 138 38 q 388 117 289 38 q 460 187 424 146 q 533 275 497 228 q 501 268 517 272 q 469 260 485 264 q 433 250 450 254 q 404 244 417 246 q 393 243 399 243 q 383 243 388 243 q 367 249 368 243 q 369 260 365 254 q 394 281 378 271 q 424 293 410 292 q 489 303 453 297 q 564 315 525 310 q 667 461 617 388 q 758 592 717 535 q 787 628 774 611 q 814 661 800 644 q 864 689 832 683 q 892 717 871 697 q 929 744 913 738 q 936 747 935 747 q 944 741 943 747 q 942 732 944 735 q 915 703 929 722 q 893 667 901 685 q 824 499 856 585 q 764 325 792 413 q 810 309 794 324 q 826 279 826 294 q 815 258 826 260 q 808 267 803 256 q 811 278 811 271 q 796 296 811 289 q 757 304 781 303 q 735 226 747 274 q 717 136 724 179 q 715 113 715 124 q 714 94 714 103 q 724 49 714 63 q 749 35 733 35 q 792 51 768 35 q 840 89 817 67 q 879 131 864 111 q 894 150 882 133 q 922 185 907 167 q 946 215 938 204 q 953 216 947 218 q 957 211 960 214 q 886 118 924 164 q 838 65 868 97 q 774 9 808 33 q 706 -15 739 -15 q 697 -15 701 -15 q 689 -12 693 -14 q 657 15 667 -7 q 647 68 647 38 q 650 101 647 83 q 657 138 653 119 q 682 219 667 175 q 714 304 697 263 q 706 303 710 304 q 699 303 703 303 q 629 294 664 300 q 574 283 594 288 q 461 138 521 207 q 335 24 401 68 q 196 -19 269 -19 m 599 321 q 665 325 633 324 q 724 326 696 326 q 744 373 735 351 q 758 411 753 394 q 801 525 782 472 q 821 588 821 578 q 804 589 821 592 q 764 558 788 586 q 685 451 726 514 q 599 321 643 388 m 903 832 q 876 842 903 825 q 817 876 849 858 q 785 894 797 888 q 757 910 772 900 q 738 933 738 922 q 757 954 738 954 q 769 950 764 954 l 824 904 q 887 853 871 867 q 903 832 903 839 z "},"Ä":{"ha":821,"x_min":21,"x_max":1078,"o":"m 213 232 q 179 239 192 232 q 174 244 174 240 q 177 249 174 247 q 186 247 181 250 q 199 244 194 244 q 236 258 217 244 q 270 296 256 272 q 285 349 285 319 q 278 386 285 365 q 258 424 271 406 q 238 461 246 443 q 222 504 226 485 q 217 542 217 524 q 244 612 217 586 q 316 652 272 638 q 408 674 360 667 q 497 686 457 681 q 581 698 532 690 q 685 715 631 706 q 788 735 739 724 q 873 757 838 746 q 918 779 908 768 q 924 782 921 782 q 928 778 928 782 q 925 769 929 774 q 861 736 910 753 q 747 704 813 719 q 610 675 681 689 q 476 649 539 661 q 375 625 414 636 q 249 510 249 590 q 267 448 249 478 q 302 389 285 418 q 319 329 319 360 q 284 259 319 286 q 213 232 249 232 m 196 -19 q 99 8 138 -19 q 40 78 60 35 q 21 171 21 121 q 29 235 21 204 q 49 263 33 263 q 53 257 53 263 q 49 242 53 251 q 47 231 46 233 q 94 84 51 131 q 200 38 138 38 q 388 117 289 38 q 460 187 424 146 q 533 275 497 228 q 501 268 517 272 q 469 260 485 264 q 433 250 450 254 q 404 244 417 246 q 393 243 399 243 q 383 243 388 243 q 367 249 368 243 q 369 260 365 254 q 394 281 378 271 q 424 293 410 292 q 489 303 453 297 q 564 315 525 310 q 667 461 617 388 q 758 592 717 535 q 787 628 774 611 q 814 661 800 644 q 864 689 832 683 q 892 717 871 697 q 929 744 913 738 q 936 747 935 747 q 944 741 943 747 q 942 732 944 735 q 915 703 929 722 q 893 667 901 685 q 824 499 856 585 q 764 325 792 413 q 810 309 794 324 q 826 279 826 294 q 815 258 826 260 q 808 267 803 256 q 811 278 811 271 q 796 296 811 289 q 757 304 781 303 q 735 226 747 274 q 717 136 724 179 q 715 113 715 124 q 714 94 714 103 q 724 49 714 63 q 749 35 733 35 q 792 51 768 35 q 840 89 817 67 q 879 131 864 111 q 894 150 882 133 q 922 185 907 167 q 946 215 938 204 q 953 216 947 218 q 957 211 960 214 q 886 118 924 164 q 838 65 868 97 q 774 9 808 33 q 706 -15 739 -15 q 697 -15 701 -15 q 689 -12 693 -14 q 657 15 667 -7 q 647 68 647 38 q 650 101 647 83 q 657 138 653 119 q 682 219 667 175 q 714 304 697 263 q 706 303 710 304 q 699 303 703 303 q 629 294 664 300 q 574 283 594 288 q 461 138 521 207 q 335 24 401 68 q 196 -19 269 -19 m 599 321 q 665 325 633 324 q 724 326 696 326 q 744 373 735 351 q 758 411 753 394 q 801 525 782 472 q 821 588 821 578 q 804 589 821 592 q 764 558 788 586 q 685 451 726 514 q 599 321 643 388 m 1011 832 q 997 847 997 832 q 1000 863 997 854 q 1029 899 1007 882 q 1071 915 1050 915 q 1078 913 1078 915 q 1073 899 1076 907 q 1064 882 1069 892 l 1049 857 q 1037 838 1047 843 q 1011 832 1026 832 m 892 832 q 881 846 881 832 q 881 854 881 850 q 882 863 882 858 q 910 899 889 882 q 953 915 932 915 q 960 913 963 915 q 944 882 958 903 l 932 857 q 892 832 924 832 z "},"Ạ":{"ha":821,"x_min":21,"x_max":960,"o":"m 213 232 q 179 239 192 232 q 174 244 174 240 q 177 249 174 247 q 186 247 181 250 q 199 244 194 244 q 236 258 217 244 q 270 296 256 272 q 285 349 285 319 q 278 386 285 365 q 258 424 271 406 q 238 461 246 443 q 222 504 226 485 q 217 542 217 524 q 244 612 217 586 q 316 652 272 638 q 408 674 360 667 q 497 686 457 681 q 581 698 532 690 q 685 715 631 706 q 788 735 739 724 q 873 757 838 746 q 918 779 908 768 q 924 782 921 782 q 928 778 928 782 q 925 769 929 774 q 861 736 910 753 q 747 704 813 719 q 610 675 681 689 q 476 649 539 661 q 375 625 414 636 q 249 510 249 590 q 267 448 249 478 q 302 389 285 418 q 319 329 319 360 q 284 259 319 286 q 213 232 249 232 m 196 -19 q 99 8 138 -19 q 40 78 60 35 q 21 171 21 121 q 29 235 21 204 q 49 263 33 263 q 53 257 53 263 q 49 242 53 251 q 47 231 46 233 q 94 84 51 131 q 200 38 138 38 q 388 117 289 38 q 460 187 424 146 q 533 275 497 228 q 501 268 517 272 q 469 260 485 264 q 433 250 450 254 q 404 244 417 246 q 393 243 399 243 q 383 243 388 243 q 367 249 368 243 q 369 260 365 254 q 394 281 378 271 q 424 293 410 292 q 489 303 453 297 q 564 315 525 310 q 667 461 617 388 q 758 592 717 535 q 787 628 774 611 q 814 661 800 644 q 864 689 832 683 q 892 717 871 697 q 929 744 913 738 q 936 747 935 747 q 944 741 943 747 q 942 732 944 735 q 915 703 929 722 q 893 667 901 685 q 824 499 856 585 q 764 325 792 413 q 810 309 794 324 q 826 279 826 294 q 815 258 826 260 q 808 267 803 256 q 811 278 811 271 q 796 296 811 289 q 757 304 781 303 q 735 226 747 274 q 717 136 724 179 q 715 113 715 124 q 714 94 714 103 q 724 49 714 63 q 749 35 733 35 q 792 51 768 35 q 840 89 817 67 q 879 131 864 111 q 894 150 882 133 q 922 185 907 167 q 946 215 938 204 q 953 216 947 218 q 957 211 960 214 q 886 118 924 164 q 838 65 868 97 q 774 9 808 33 q 706 -15 739 -15 q 697 -15 701 -15 q 689 -12 693 -14 q 657 15 667 -7 q 647 68 647 38 q 650 101 647 83 q 657 138 653 119 q 682 219 667 175 q 714 304 697 263 q 706 303 710 304 q 699 303 703 303 q 629 294 664 300 q 574 283 594 288 q 461 138 521 207 q 335 24 401 68 q 196 -19 269 -19 m 599 321 q 665 325 633 324 q 724 326 696 326 q 744 373 735 351 q 758 411 753 394 q 801 525 782 472 q 821 588 821 578 q 804 589 821 592 q 764 558 788 586 q 685 451 726 514 q 599 321 643 388 m 426 -189 q 413 -172 413 -189 q 413 -164 413 -168 q 415 -156 414 -160 q 446 -118 422 -136 q 489 -100 468 -100 q 497 -104 497 -100 q 492 -117 496 -110 q 482 -136 488 -125 q 472 -153 476 -146 q 467 -162 468 -160 q 426 -189 461 -189 z "},"À":{"ha":821,"x_min":21,"x_max":1000,"o":"m 213 232 q 179 239 192 232 q 174 244 174 240 q 177 249 174 247 q 186 247 181 250 q 199 244 194 244 q 236 258 217 244 q 270 296 256 272 q 285 349 285 319 q 278 386 285 365 q 258 424 271 406 q 238 461 246 443 q 222 504 226 485 q 217 542 217 524 q 244 612 217 586 q 316 652 272 638 q 408 674 360 667 q 497 686 457 681 q 581 698 532 690 q 685 715 631 706 q 788 735 739 724 q 873 757 838 746 q 918 779 908 768 q 924 782 921 782 q 928 778 928 782 q 925 769 929 774 q 861 736 910 753 q 747 704 813 719 q 610 675 681 689 q 476 649 539 661 q 375 625 414 636 q 249 510 249 590 q 267 448 249 478 q 302 389 285 418 q 319 329 319 360 q 284 259 319 286 q 213 232 249 232 m 196 -19 q 99 8 138 -19 q 40 78 60 35 q 21 171 21 121 q 29 235 21 204 q 49 263 33 263 q 53 257 53 263 q 49 242 53 251 q 47 231 46 233 q 94 84 51 131 q 200 38 138 38 q 388 117 289 38 q 460 187 424 146 q 533 275 497 228 q 501 268 517 272 q 469 260 485 264 q 433 250 450 254 q 404 244 417 246 q 393 243 399 243 q 383 243 388 243 q 367 249 368 243 q 369 260 365 254 q 394 281 378 271 q 424 293 410 292 q 489 303 453 297 q 564 315 525 310 q 667 461 617 388 q 758 592 717 535 q 787 628 774 611 q 814 661 800 644 q 864 689 832 683 q 892 717 871 697 q 929 744 913 738 q 936 747 935 747 q 944 741 943 747 q 942 732 944 735 q 915 703 929 722 q 893 667 901 685 q 824 499 856 585 q 764 325 792 413 q 810 309 794 324 q 826 279 826 294 q 815 258 826 260 q 808 267 803 256 q 811 278 811 271 q 796 296 811 289 q 757 304 781 303 q 735 226 747 274 q 717 136 724 179 q 715 113 715 124 q 714 94 714 103 q 724 49 714 63 q 749 35 733 35 q 792 51 768 35 q 840 89 817 67 q 879 131 864 111 q 894 150 882 133 q 922 185 907 167 q 946 215 938 204 q 953 216 947 218 q 957 211 960 214 q 886 118 924 164 q 838 65 868 97 q 774 9 808 33 q 706 -15 739 -15 q 697 -15 701 -15 q 689 -12 693 -14 q 657 15 667 -7 q 647 68 647 38 q 650 101 647 83 q 657 138 653 119 q 682 219 667 175 q 714 304 697 263 q 706 303 710 304 q 699 303 703 303 q 629 294 664 300 q 574 283 594 288 q 461 138 521 207 q 335 24 401 68 q 196 -19 269 -19 m 599 321 q 665 325 633 324 q 724 326 696 326 q 744 373 735 351 q 758 411 753 394 q 801 525 782 472 q 821 588 821 578 q 804 589 821 592 q 764 558 788 586 q 685 451 726 514 q 599 321 643 388 m 1000 832 q 985 834 1000 828 q 949 851 971 840 q 906 871 928 863 q 872 885 885 881 q 843 899 858 890 q 821 919 821 910 l 821 922 q 838 943 821 940 q 850 940 842 943 l 910 900 q 979 853 960 868 q 1000 832 999 839 z "},"Ả":{"ha":821,"x_min":21,"x_max":1067,"o":"m 213 232 q 179 239 192 232 q 174 244 174 240 q 177 249 174 247 q 186 247 181 250 q 199 244 194 244 q 236 258 217 244 q 270 296 256 272 q 285 349 285 319 q 278 386 285 365 q 258 424 271 406 q 238 461 246 443 q 222 504 226 485 q 217 542 217 524 q 244 612 217 586 q 316 652 272 638 q 408 674 360 667 q 497 686 457 681 q 581 698 532 690 q 685 715 631 706 q 788 735 739 724 q 873 757 838 746 q 918 779 908 768 q 924 782 921 782 q 928 778 928 782 q 925 769 929 774 q 861 736 910 753 q 747 704 813 719 q 610 675 681 689 q 476 649 539 661 q 375 625 414 636 q 249 510 249 590 q 267 448 249 478 q 302 389 285 418 q 319 329 319 360 q 284 259 319 286 q 213 232 249 232 m 196 -19 q 99 8 138 -19 q 40 78 60 35 q 21 171 21 121 q 29 235 21 204 q 49 263 33 263 q 53 257 53 263 q 49 242 53 251 q 47 231 46 233 q 94 84 51 131 q 200 38 138 38 q 388 117 289 38 q 460 187 424 146 q 533 275 497 228 q 501 268 517 272 q 469 260 485 264 q 433 250 450 254 q 404 244 417 246 q 393 243 399 243 q 383 243 388 243 q 367 249 368 243 q 369 260 365 254 q 394 281 378 271 q 424 293 410 292 q 489 303 453 297 q 564 315 525 310 q 667 461 617 388 q 758 592 717 535 q 787 628 774 611 q 814 661 800 644 q 864 689 832 683 q 892 717 871 697 q 929 744 913 738 q 936 747 935 747 q 944 741 943 747 q 942 732 944 735 q 915 703 929 722 q 893 667 901 685 q 824 499 856 585 q 764 325 792 413 q 810 309 794 324 q 826 279 826 294 q 815 258 826 260 q 808 267 803 256 q 811 278 811 271 q 796 296 811 289 q 757 304 781 303 q 735 226 747 274 q 717 136 724 179 q 715 113 715 124 q 714 94 714 103 q 724 49 714 63 q 749 35 733 35 q 792 51 768 35 q 840 89 817 67 q 879 131 864 111 q 894 150 882 133 q 922 185 907 167 q 946 215 938 204 q 953 216 947 218 q 957 211 960 214 q 886 118 924 164 q 838 65 868 97 q 774 9 808 33 q 706 -15 739 -15 q 697 -15 701 -15 q 689 -12 693 -14 q 657 15 667 -7 q 647 68 647 38 q 650 101 647 83 q 657 138 653 119 q 682 219 667 175 q 714 304 697 263 q 706 303 710 304 q 699 303 703 303 q 629 294 664 300 q 574 283 594 288 q 461 138 521 207 q 335 24 401 68 q 196 -19 269 -19 m 599 321 q 665 325 633 324 q 724 326 696 326 q 744 373 735 351 q 758 411 753 394 q 801 525 782 472 q 821 588 821 578 q 804 589 821 592 q 764 558 788 586 q 685 451 726 514 q 599 321 643 388 m 950 832 q 972 871 960 857 q 992 894 983 885 q 1002 913 999 903 q 1007 928 1006 922 l 1007 932 q 986 950 1007 950 q 942 943 956 950 q 918 936 928 936 q 914 944 911 936 q 950 968 918 954 q 1014 982 982 982 q 1058 944 1067 982 q 1054 928 1058 936 q 1027 892 1044 906 q 992 867 1010 879 q 963 833 974 856 q 955 829 961 831 q 950 832 949 828 z "},"Ȃ":{"ha":821,"x_min":21,"x_max":1047,"o":"m 967 928 q 1027 908 1007 928 q 1047 856 1047 888 q 1045 828 1047 846 q 1032 813 1043 811 q 1017 865 1031 846 q 958 885 1003 885 q 883 867 908 885 q 848 831 858 849 q 833 813 838 813 q 832 815 832 813 q 833 823 832 818 q 836 831 835 828 q 881 899 851 871 q 967 928 911 928 m 213 232 q 179 239 192 232 q 174 244 174 240 q 177 249 174 247 q 186 247 181 250 q 199 244 194 244 q 236 258 217 244 q 270 296 256 272 q 285 349 285 319 q 278 386 285 365 q 258 424 271 406 q 238 461 246 443 q 222 504 226 485 q 217 542 217 524 q 244 612 217 586 q 316 652 272 638 q 408 674 360 667 q 497 686 457 681 q 581 698 532 690 q 685 715 631 706 q 788 735 739 724 q 873 757 838 746 q 918 779 908 768 q 924 782 921 782 q 928 778 928 782 q 925 769 929 774 q 861 736 910 753 q 747 704 813 719 q 610 675 681 689 q 476 649 539 661 q 375 625 414 636 q 249 510 249 590 q 267 448 249 478 q 302 389 285 418 q 319 329 319 360 q 284 259 319 286 q 213 232 249 232 m 196 -19 q 99 8 138 -19 q 40 78 60 35 q 21 171 21 121 q 29 235 21 204 q 49 263 33 263 q 53 257 53 263 q 49 242 53 251 q 47 231 46 233 q 94 84 51 131 q 200 38 138 38 q 388 117 289 38 q 460 187 424 146 q 533 275 497 228 q 501 268 517 272 q 469 260 485 264 q 433 250 450 254 q 404 244 417 246 q 393 243 399 243 q 383 243 388 243 q 367 249 368 243 q 369 260 365 254 q 394 281 378 271 q 424 293 410 292 q 489 303 453 297 q 564 315 525 310 q 667 461 617 388 q 758 592 717 535 q 787 628 774 611 q 814 661 800 644 q 864 689 832 683 q 892 717 871 697 q 929 744 913 738 q 936 747 935 747 q 944 741 943 747 q 942 732 944 735 q 915 703 929 722 q 893 667 901 685 q 824 499 856 585 q 764 325 792 413 q 810 309 794 324 q 826 279 826 294 q 815 258 826 260 q 808 267 803 256 q 811 278 811 271 q 796 296 811 289 q 757 304 781 303 q 735 226 747 274 q 717 136 724 179 q 715 113 715 124 q 714 94 714 103 q 724 49 714 63 q 749 35 733 35 q 792 51 768 35 q 840 89 817 67 q 879 131 864 111 q 894 150 882 133 q 922 185 907 167 q 946 215 938 204 q 953 216 947 218 q 957 211 960 214 q 886 118 924 164 q 838 65 868 97 q 774 9 808 33 q 706 -15 739 -15 q 697 -15 701 -15 q 689 -12 693 -14 q 657 15 667 -7 q 647 68 647 38 q 650 101 647 83 q 657 138 653 119 q 682 219 667 175 q 714 304 697 263 q 706 303 710 304 q 699 303 703 303 q 629 294 664 300 q 574 283 594 288 q 461 138 521 207 q 335 24 401 68 q 196 -19 269 -19 m 599 321 q 665 325 633 324 q 724 326 696 326 q 744 373 735 351 q 758 411 753 394 q 801 525 782 472 q 821 588 821 578 q 804 589 821 592 q 764 558 788 586 q 685 451 726 514 q 599 321 643 388 z "},"Ā":{"ha":821,"x_min":21,"x_max":1058,"o":"m 213 232 q 179 239 192 232 q 174 244 174 240 q 177 249 174 247 q 186 247 181 250 q 199 244 194 244 q 236 258 217 244 q 270 296 256 272 q 285 349 285 319 q 278 386 285 365 q 258 424 271 406 q 238 461 246 443 q 222 504 226 485 q 217 542 217 524 q 244 612 217 586 q 316 652 272 638 q 408 674 360 667 q 497 686 457 681 q 581 698 532 690 q 685 715 631 706 q 788 735 739 724 q 873 757 838 746 q 918 779 908 768 q 924 782 921 782 q 928 778 928 782 q 925 769 929 774 q 861 736 910 753 q 747 704 813 719 q 610 675 681 689 q 476 649 539 661 q 375 625 414 636 q 249 510 249 590 q 267 448 249 478 q 302 389 285 418 q 319 329 319 360 q 284 259 319 286 q 213 232 249 232 m 196 -19 q 99 8 138 -19 q 40 78 60 35 q 21 171 21 121 q 29 235 21 204 q 49 263 33 263 q 53 257 53 263 q 49 242 53 251 q 47 231 46 233 q 94 84 51 131 q 200 38 138 38 q 388 117 289 38 q 460 187 424 146 q 533 275 497 228 q 501 268 517 272 q 469 260 485 264 q 433 250 450 254 q 404 244 417 246 q 393 243 399 243 q 383 243 388 243 q 367 249 368 243 q 369 260 365 254 q 394 281 378 271 q 424 293 410 292 q 489 303 453 297 q 564 315 525 310 q 667 461 617 388 q 758 592 717 535 q 787 628 774 611 q 814 661 800 644 q 864 689 832 683 q 892 717 871 697 q 929 744 913 738 q 936 747 935 747 q 944 741 943 747 q 942 732 944 735 q 915 703 929 722 q 893 667 901 685 q 824 499 856 585 q 764 325 792 413 q 810 309 794 324 q 826 279 826 294 q 815 258 826 260 q 808 267 803 256 q 811 278 811 271 q 796 296 811 289 q 757 304 781 303 q 735 226 747 274 q 717 136 724 179 q 715 113 715 124 q 714 94 714 103 q 724 49 714 63 q 749 35 733 35 q 792 51 768 35 q 840 89 817 67 q 879 131 864 111 q 894 150 882 133 q 922 185 907 167 q 946 215 938 204 q 953 216 947 218 q 957 211 960 214 q 886 118 924 164 q 838 65 868 97 q 774 9 808 33 q 706 -15 739 -15 q 697 -15 701 -15 q 689 -12 693 -14 q 657 15 667 -7 q 647 68 647 38 q 650 101 647 83 q 657 138 653 119 q 682 219 667 175 q 714 304 697 263 q 706 303 710 304 q 699 303 703 303 q 629 294 664 300 q 574 283 594 288 q 461 138 521 207 q 335 24 401 68 q 196 -19 269 -19 m 599 321 q 665 325 633 324 q 724 326 696 326 q 744 373 735 351 q 758 411 753 394 q 801 525 782 472 q 821 588 821 578 q 804 589 821 592 q 764 558 788 586 q 685 451 726 514 q 599 321 643 388 m 822 832 q 824 856 822 842 q 836 869 826 869 l 1058 864 q 1057 850 1058 854 q 1044 844 1056 846 l 822 832 z "},"Ą":{"ha":821,"x_min":21,"x_max":960,"o":"m 213 232 q 179 239 192 232 q 174 244 174 240 q 177 249 174 247 q 186 247 181 250 q 199 244 194 244 q 236 258 217 244 q 270 296 256 272 q 285 349 285 319 q 278 386 285 365 q 258 424 271 406 q 238 461 246 443 q 222 504 226 485 q 217 542 217 524 q 244 612 217 586 q 316 652 272 638 q 408 674 360 667 q 497 686 457 681 q 581 698 532 690 q 685 715 631 706 q 788 735 739 724 q 873 757 838 746 q 918 779 908 768 q 924 782 921 782 q 928 778 928 782 q 925 769 929 774 q 861 736 910 753 q 747 704 813 719 q 610 675 681 689 q 476 649 539 661 q 375 625 414 636 q 249 510 249 590 q 267 448 249 478 q 302 389 285 418 q 319 329 319 360 q 284 259 319 286 q 213 232 249 232 m 196 -19 q 99 8 138 -19 q 40 78 60 35 q 21 171 21 121 q 29 235 21 204 q 49 263 33 263 q 53 257 53 263 q 49 242 53 251 q 47 231 46 233 q 94 84 51 131 q 200 38 138 38 q 388 117 289 38 q 460 187 424 146 q 533 275 497 228 q 501 268 517 272 q 469 260 485 264 q 433 250 450 254 q 404 244 417 246 q 393 243 399 243 q 383 243 388 243 q 367 249 368 243 q 369 260 365 254 q 394 281 378 271 q 424 293 410 292 q 489 303 453 297 q 564 315 525 310 q 667 461 617 388 q 758 592 717 535 q 787 628 774 611 q 814 661 800 644 q 864 689 832 683 q 892 717 871 697 q 929 744 913 738 q 936 747 935 747 q 944 741 943 747 q 942 732 944 735 q 915 703 929 722 q 893 667 901 685 q 824 499 856 585 q 764 325 792 413 q 810 309 794 324 q 826 279 826 294 q 815 258 826 260 q 808 267 803 256 q 811 278 811 271 q 796 296 811 289 q 757 304 781 303 q 735 226 747 274 q 717 136 724 179 q 715 113 715 124 q 714 94 714 103 q 724 49 714 63 q 749 35 733 35 q 792 51 768 35 q 840 89 817 67 q 879 131 864 111 q 894 150 882 133 q 922 185 907 167 q 946 215 938 204 q 953 216 947 218 q 957 211 960 214 q 886 118 924 164 q 838 65 868 97 q 774 9 808 33 q 706 -15 739 -15 q 697 -15 701 -15 q 689 -12 693 -14 q 657 15 667 -7 q 647 68 647 38 q 650 101 647 83 q 657 138 653 119 q 682 219 667 175 q 714 304 697 263 q 706 303 710 304 q 699 303 703 303 q 629 294 664 300 q 574 283 594 288 q 461 138 521 207 q 335 24 401 68 q 196 -19 269 -19 m 599 321 q 665 325 633 324 q 724 326 696 326 q 744 373 735 351 q 758 411 753 394 q 801 525 782 472 q 821 588 821 578 q 804 589 821 592 q 764 558 788 586 q 685 451 726 514 q 599 321 643 388 m 661 -183 q 617 -172 633 -183 q 607 -135 601 -161 q 632 -73 613 -107 q 676 -13 651 -39 q 724 14 701 13 q 728 7 728 14 q 675 -62 694 -28 q 656 -121 656 -97 q 692 -150 656 -150 q 743 -140 715 -150 q 768 -130 758 -133 q 779 -126 778 -126 q 792 -133 792 -126 q 780 -149 792 -142 q 751 -164 768 -157 q 661 -183 701 -183 z "},"Å":{"ha":821,"x_min":21,"x_max":1069,"o":"m 213 232 q 179 239 192 232 q 174 244 174 240 q 177 249 174 247 q 186 247 181 250 q 199 244 194 244 q 236 258 217 244 q 270 296 256 272 q 285 349 285 319 q 278 386 285 365 q 258 424 271 406 q 238 461 246 443 q 222 504 226 485 q 217 542 217 524 q 244 612 217 586 q 316 652 272 638 q 408 674 360 667 q 497 686 457 681 q 581 698 532 690 q 685 715 631 706 q 788 735 739 724 q 873 757 838 746 q 918 779 908 768 q 924 782 921 782 q 928 778 928 782 q 925 769 929 774 q 861 736 910 753 q 747 704 813 719 q 610 675 681 689 q 476 649 539 661 q 375 625 414 636 q 249 510 249 590 q 267 448 249 478 q 302 389 285 418 q 319 329 319 360 q 284 259 319 286 q 213 232 249 232 m 196 -19 q 99 8 138 -19 q 40 78 60 35 q 21 171 21 121 q 29 235 21 204 q 49 263 33 263 q 53 257 53 263 q 49 242 53 251 q 47 231 46 233 q 94 84 51 131 q 200 38 138 38 q 388 117 289 38 q 460 187 424 146 q 533 275 497 228 q 501 268 517 272 q 469 260 485 264 q 433 250 450 254 q 404 244 417 246 q 393 243 399 243 q 383 243 388 243 q 367 249 368 243 q 369 260 365 254 q 394 281 378 271 q 424 293 410 292 q 489 303 453 297 q 564 315 525 310 q 667 461 617 388 q 758 592 717 535 q 787 628 774 611 q 814 661 800 644 q 864 689 832 683 q 892 717 871 697 q 929 744 913 738 q 936 747 935 747 q 944 741 943 747 q 942 732 944 735 q 915 703 929 722 q 893 667 901 685 q 824 499 856 585 q 764 325 792 413 q 810 309 794 324 q 826 279 826 294 q 815 258 826 260 q 808 267 803 256 q 811 278 811 271 q 796 296 811 289 q 757 304 781 303 q 735 226 747 274 q 717 136 724 179 q 715 113 715 124 q 714 94 714 103 q 724 49 714 63 q 749 35 733 35 q 792 51 768 35 q 840 89 817 67 q 879 131 864 111 q 894 150 882 133 q 922 185 907 167 q 946 215 938 204 q 953 216 947 218 q 957 211 960 214 q 886 118 924 164 q 838 65 868 97 q 774 9 808 33 q 706 -15 739 -15 q 697 -15 701 -15 q 689 -12 693 -14 q 657 15 667 -7 q 647 68 647 38 q 650 101 647 83 q 657 138 653 119 q 682 219 667 175 q 714 304 697 263 q 706 303 710 304 q 699 303 703 303 q 629 294 664 300 q 574 283 594 288 q 461 138 521 207 q 335 24 401 68 q 196 -19 269 -19 m 599 321 q 665 325 633 324 q 724 326 696 326 q 744 373 735 351 q 758 411 753 394 q 801 525 782 472 q 821 588 821 578 q 804 589 821 592 q 764 558 788 586 q 685 451 726 514 q 599 321 643 388 m 965 817 q 917 835 938 817 q 897 878 897 853 q 931 931 897 906 q 1000 956 964 956 q 1049 940 1029 956 q 1069 897 1069 924 q 1036 840 1069 863 q 965 817 1003 817 m 969 829 q 1008 849 989 829 q 1026 900 1026 868 q 1019 931 1026 919 q 997 943 1011 943 q 958 921 978 943 q 938 874 938 899 q 947 842 938 856 q 969 829 956 829 z "},"Ǻ":{"ha":821,"x_min":21,"x_max":1114,"o":"m 213 232 q 179 239 192 232 q 174 244 174 240 q 177 249 174 247 q 186 247 181 250 q 199 244 194 244 q 236 258 217 244 q 270 296 256 272 q 285 349 285 319 q 278 386 285 365 q 258 424 271 406 q 238 461 246 443 q 222 504 226 485 q 217 542 217 524 q 244 612 217 586 q 316 652 272 638 q 408 674 360 667 q 497 686 457 681 q 581 698 532 690 q 685 715 631 706 q 788 735 739 724 q 873 757 838 746 q 918 779 908 768 q 924 782 921 782 q 928 778 928 782 q 925 769 929 774 q 861 736 910 753 q 747 704 813 719 q 610 675 681 689 q 476 649 539 661 q 375 625 414 636 q 249 510 249 590 q 267 448 249 478 q 302 389 285 418 q 319 329 319 360 q 284 259 319 286 q 213 232 249 232 m 196 -19 q 99 8 138 -19 q 40 78 60 35 q 21 171 21 121 q 29 235 21 204 q 49 263 33 263 q 53 257 53 263 q 49 242 53 251 q 47 231 46 233 q 94 84 51 131 q 200 38 138 38 q 388 117 289 38 q 460 187 424 146 q 533 275 497 228 q 501 268 517 272 q 469 260 485 264 q 433 250 450 254 q 404 244 417 246 q 393 243 399 243 q 383 243 388 243 q 367 249 368 243 q 369 260 365 254 q 394 281 378 271 q 424 293 410 292 q 489 303 453 297 q 564 315 525 310 q 667 461 617 388 q 758 592 717 535 q 787 628 774 611 q 814 661 800 644 q 864 689 832 683 q 892 717 871 697 q 929 744 913 738 q 936 747 935 747 q 944 741 943 747 q 942 732 944 735 q 915 703 929 722 q 893 667 901 685 q 824 499 856 585 q 764 325 792 413 q 810 309 794 324 q 826 279 826 294 q 815 258 826 260 q 808 267 803 256 q 811 278 811 271 q 796 296 811 289 q 757 304 781 303 q 735 226 747 274 q 717 136 724 179 q 715 113 715 124 q 714 94 714 103 q 724 49 714 63 q 749 35 733 35 q 792 51 768 35 q 840 89 817 67 q 879 131 864 111 q 894 150 882 133 q 922 185 907 167 q 946 215 938 204 q 953 216 947 218 q 957 211 960 214 q 886 118 924 164 q 838 65 868 97 q 774 9 808 33 q 706 -15 739 -15 q 697 -15 701 -15 q 689 -12 693 -14 q 657 15 667 -7 q 647 68 647 38 q 650 101 647 83 q 657 138 653 119 q 682 219 667 175 q 714 304 697 263 q 706 303 710 304 q 699 303 703 303 q 629 294 664 300 q 574 283 594 288 q 461 138 521 207 q 335 24 401 68 q 196 -19 269 -19 m 599 321 q 665 325 633 324 q 724 326 696 326 q 744 373 735 351 q 758 411 753 394 q 801 525 782 472 q 821 588 821 578 q 804 589 821 592 q 764 558 788 586 q 685 451 726 514 q 599 321 643 388 m 965 817 q 917 835 938 817 q 897 878 897 853 q 931 931 897 906 q 1000 956 964 956 q 1049 940 1029 956 q 1069 897 1069 924 q 1036 840 1069 863 q 965 817 1003 817 m 969 829 q 1008 849 989 829 q 1026 900 1026 868 q 1019 931 1026 919 q 997 943 1011 943 q 958 921 978 943 q 938 874 938 899 q 947 842 938 856 q 969 829 956 829 m 935 990 q 956 1012 936 997 q 1025 1058 975 1026 l 1085 1099 q 1097 1101 1093 1101 q 1114 1081 1114 1099 q 1092 1057 1114 1069 q 1064 1044 1078 1049 q 1029 1029 1050 1039 q 986 1010 1008 1021 q 949 992 964 999 q 935 990 935 986 z "},"Ã":{"ha":821,"x_min":21,"x_max":1099,"o":"m 213 232 q 179 239 192 232 q 174 244 174 240 q 177 249 174 247 q 186 247 181 250 q 199 244 194 244 q 236 258 217 244 q 270 296 256 272 q 285 349 285 319 q 278 386 285 365 q 258 424 271 406 q 238 461 246 443 q 222 504 226 485 q 217 542 217 524 q 244 612 217 586 q 316 652 272 638 q 408 674 360 667 q 497 686 457 681 q 581 698 532 690 q 685 715 631 706 q 788 735 739 724 q 873 757 838 746 q 918 779 908 768 q 924 782 921 782 q 928 778 928 782 q 925 769 929 774 q 861 736 910 753 q 747 704 813 719 q 610 675 681 689 q 476 649 539 661 q 375 625 414 636 q 249 510 249 590 q 267 448 249 478 q 302 389 285 418 q 319 329 319 360 q 284 259 319 286 q 213 232 249 232 m 196 -19 q 99 8 138 -19 q 40 78 60 35 q 21 171 21 121 q 29 235 21 204 q 49 263 33 263 q 53 257 53 263 q 49 242 53 251 q 47 231 46 233 q 94 84 51 131 q 200 38 138 38 q 388 117 289 38 q 460 187 424 146 q 533 275 497 228 q 501 268 517 272 q 469 260 485 264 q 433 250 450 254 q 404 244 417 246 q 393 243 399 243 q 383 243 388 243 q 367 249 368 243 q 369 260 365 254 q 394 281 378 271 q 424 293 410 292 q 489 303 453 297 q 564 315 525 310 q 667 461 617 388 q 758 592 717 535 q 787 628 774 611 q 814 661 800 644 q 864 689 832 683 q 892 717 871 697 q 929 744 913 738 q 936 747 935 747 q 944 741 943 747 q 942 732 944 735 q 915 703 929 722 q 893 667 901 685 q 824 499 856 585 q 764 325 792 413 q 810 309 794 324 q 826 279 826 294 q 815 258 826 260 q 808 267 803 256 q 811 278 811 271 q 796 296 811 289 q 757 304 781 303 q 735 226 747 274 q 717 136 724 179 q 715 113 715 124 q 714 94 714 103 q 724 49 714 63 q 749 35 733 35 q 792 51 768 35 q 840 89 817 67 q 879 131 864 111 q 894 150 882 133 q 922 185 907 167 q 946 215 938 204 q 953 216 947 218 q 957 211 960 214 q 886 118 924 164 q 838 65 868 97 q 774 9 808 33 q 706 -15 739 -15 q 697 -15 701 -15 q 689 -12 693 -14 q 657 15 667 -7 q 647 68 647 38 q 650 101 647 83 q 657 138 653 119 q 682 219 667 175 q 714 304 697 263 q 706 303 710 304 q 699 303 703 303 q 629 294 664 300 q 574 283 594 288 q 461 138 521 207 q 335 24 401 68 q 196 -19 269 -19 m 599 321 q 665 325 633 324 q 724 326 696 326 q 744 373 735 351 q 758 411 753 394 q 801 525 782 472 q 821 588 821 578 q 804 589 821 592 q 764 558 788 586 q 685 451 726 514 q 599 321 643 388 m 1018 829 q 979 842 999 829 q 941 866 960 854 q 901 878 922 878 q 871 870 881 878 q 853 851 861 863 q 846 837 847 843 q 842 831 844 831 q 839 843 839 831 q 849 872 839 853 q 874 909 858 892 q 906 926 889 926 q 943 913 924 926 q 983 887 963 900 q 1021 874 1003 874 q 1049 879 1033 874 q 1076 901 1065 885 q 1084 913 1081 908 q 1092 917 1088 917 q 1094 908 1099 917 q 1077 877 1089 896 q 1050 844 1065 858 q 1018 829 1035 829 z "},"B":{"ha":769,"x_min":40,"x_max":765,"o":"m 101 -42 q 55 -29 69 -42 q 40 0 40 -17 q 43 15 40 10 q 99 54 56 44 q 108 56 103 56 q 118 56 113 56 q 203 46 151 56 q 308 26 256 36 q 392 13 360 15 q 406 12 399 13 q 419 11 414 11 q 572 43 513 11 q 661 124 632 75 q 690 219 690 172 q 643 317 690 275 q 481 358 596 358 q 451 358 467 358 q 419 356 436 358 l 335 149 q 302 108 321 113 q 269 93 283 103 q 238 82 246 78 q 240 90 231 86 q 273 119 251 94 q 321 204 294 144 l 383 350 q 351 353 351 346 q 371 379 351 363 q 385 388 378 386 q 401 392 393 390 l 488 592 q 496 611 489 596 q 510 643 503 626 q 518 667 517 660 q 488 669 504 668 q 457 669 472 669 q 341 661 399 669 q 239 640 283 653 q 174 611 194 626 q 103 490 103 557 q 129 404 103 453 q 172 343 149 371 q 224 288 196 315 q 224 279 228 283 q 217 279 219 275 q 152 341 186 311 q 95 407 118 371 q 72 493 72 443 q 118 623 72 576 q 240 692 164 669 q 322 706 269 700 q 433 713 374 713 q 522 708 479 713 q 529 733 525 721 q 546 757 533 746 q 591 785 564 767 q 647 832 618 804 q 651 831 650 835 q 650 824 651 826 q 640 794 649 813 q 622 767 631 775 q 594 736 606 753 q 574 701 583 719 q 704 655 650 688 q 758 561 758 622 q 711 456 758 507 q 583 388 664 406 q 564 379 564 383 q 581 374 564 376 q 721 315 676 361 q 765 213 765 269 q 726 108 765 160 q 610 22 688 56 q 413 -12 532 -12 q 337 -10 379 -12 q 257 -5 294 -8 q 197 3 219 -1 q 158 10 175 8 q 128 11 140 11 q 76 -10 76 11 q 86 -23 76 -17 q 110 -29 96 -29 q 135 -25 122 -29 q 137 -24 136 -25 q 139 -24 138 -24 q 143 -28 143 -24 q 135 -39 143 -36 q 117 -41 125 -40 q 101 -42 108 -42 m 457 390 q 585 415 533 390 q 664 478 638 440 q 690 553 690 517 q 651 626 690 600 q 554 661 613 651 q 524 602 539 632 q 497 542 510 572 l 435 392 q 446 390 440 390 q 457 390 451 390 z "},"C":{"ha":585,"x_min":60,"x_max":753,"o":"m 306 -54 q 182 -28 238 -54 q 93 49 126 -3 q 60 178 60 100 q 76 292 60 229 q 147 448 100 374 q 259 581 193 522 q 404 672 325 639 q 571 706 483 706 q 592 705 582 706 q 614 703 603 704 q 651 697 635 701 q 676 682 668 692 q 693 711 688 696 q 708 733 699 726 q 732 743 719 743 q 753 726 753 743 q 749 714 753 721 q 674 603 703 657 q 622 483 646 549 q 608 472 618 472 q 599 477 603 472 q 599 490 594 482 l 636 578 q 649 625 649 607 q 618 668 649 657 q 546 682 585 682 q 438 654 490 682 q 338 580 385 626 q 252 478 290 533 q 187 367 214 422 q 147 267 160 313 q 129 154 129 207 q 180 23 129 65 q 308 -19 231 -19 q 492 25 392 -19 q 599 96 557 54 q 692 199 642 138 q 703 204 696 204 q 706 193 713 204 q 607 72 654 122 q 497 -8 560 22 q 306 -54 401 -54 z "},"Ć":{"ha":585,"x_min":60,"x_max":753,"o":"m 306 -54 q 182 -28 238 -54 q 93 49 126 -3 q 60 178 60 100 q 76 292 60 229 q 147 448 100 374 q 259 581 193 522 q 404 672 325 639 q 571 706 483 706 q 592 705 582 706 q 614 703 603 704 q 651 697 635 701 q 676 682 668 692 q 693 711 688 696 q 708 733 699 726 q 732 743 719 743 q 753 726 753 743 q 749 714 753 721 q 674 603 703 657 q 622 483 646 549 q 608 472 618 472 q 599 477 603 472 q 599 490 594 482 l 636 578 q 649 625 649 607 q 618 668 649 657 q 546 682 585 682 q 438 654 490 682 q 338 580 385 626 q 252 478 290 533 q 187 367 214 422 q 147 267 160 313 q 129 154 129 207 q 180 23 129 65 q 308 -19 231 -19 q 492 25 392 -19 q 599 96 557 54 q 692 199 642 138 q 703 204 696 204 q 706 193 713 204 q 607 72 654 122 q 497 -8 560 22 q 306 -54 401 -54 m 521 790 q 542 812 522 797 q 611 858 561 826 l 671 899 q 683 901 679 901 q 700 881 700 899 q 678 857 700 869 q 650 844 664 849 q 615 829 636 839 q 572 810 594 821 q 535 792 550 799 q 521 790 521 786 z "},"Č":{"ha":585,"x_min":60,"x_max":753,"o":"m 475 908 q 503 897 482 911 q 540 872 525 883 q 567 855 551 864 q 592 839 583 846 q 615 849 601 844 q 638 860 628 854 q 701 892 682 882 q 731 906 721 901 q 732 901 733 906 q 708 878 726 893 q 664 843 690 863 q 628 817 646 829 q 590 786 611 804 q 576 776 581 776 q 567 786 574 776 q 551 810 564 792 q 526 842 538 829 q 494 878 514 857 q 472 903 475 900 q 475 908 468 908 m 306 -54 q 182 -28 238 -54 q 93 49 126 -3 q 60 178 60 100 q 76 292 60 229 q 147 448 100 374 q 259 581 193 522 q 404 672 325 639 q 571 706 483 706 q 592 705 582 706 q 614 703 603 704 q 651 697 635 701 q 676 682 668 692 q 693 711 688 696 q 708 733 699 726 q 732 743 719 743 q 753 726 753 743 q 749 714 753 721 q 674 603 703 657 q 622 483 646 549 q 608 472 618 472 q 599 477 603 472 q 599 490 594 482 l 636 578 q 649 625 649 607 q 618 668 649 657 q 546 682 585 682 q 438 654 490 682 q 338 580 385 626 q 252 478 290 533 q 187 367 214 422 q 147 267 160 313 q 129 154 129 207 q 180 23 129 65 q 308 -19 231 -19 q 492 25 392 -19 q 599 96 557 54 q 692 199 642 138 q 703 204 696 204 q 706 193 713 204 q 607 72 654 122 q 497 -8 560 22 q 306 -54 401 -54 z "},"Ç":{"ha":585,"x_min":60,"x_max":753,"o":"m 306 -54 q 182 -28 238 -54 q 93 49 126 -3 q 60 178 60 100 q 76 292 60 229 q 147 448 100 374 q 259 581 193 522 q 404 672 325 639 q 571 706 483 706 q 592 705 582 706 q 614 703 603 704 q 651 697 635 701 q 676 682 668 692 q 693 711 688 696 q 708 733 699 726 q 732 743 719 743 q 753 726 753 743 q 749 714 753 721 q 674 603 703 657 q 622 483 646 549 q 608 472 618 472 q 599 477 603 472 q 599 490 594 482 l 636 578 q 649 625 649 607 q 618 668 649 657 q 546 682 585 682 q 438 654 490 682 q 338 580 385 626 q 252 478 290 533 q 187 367 214 422 q 147 267 160 313 q 129 154 129 207 q 180 23 129 65 q 308 -19 231 -19 q 492 25 392 -19 q 599 96 557 54 q 692 199 642 138 q 703 204 696 204 q 706 193 713 204 q 607 72 654 122 q 497 -8 560 22 q 306 -54 401 -54 m 186 -257 q 131 -249 160 -257 q 126 -237 124 -246 q 133 -233 129 -235 q 142 -231 138 -232 q 158 -234 150 -232 q 174 -236 167 -236 q 224 -219 204 -236 q 243 -179 243 -203 q 236 -153 243 -169 q 226 -115 226 -135 q 260 -50 226 -82 q 314 -28 283 -28 q 325 -37 325 -28 q 269 -92 269 -46 q 281 -132 269 -114 q 294 -178 294 -156 q 263 -235 294 -212 q 186 -257 232 -257 z "},"Ĉ":{"ha":585,"x_min":60,"x_max":753,"o":"m 306 -54 q 182 -28 238 -54 q 93 49 126 -3 q 60 178 60 100 q 76 292 60 229 q 147 448 100 374 q 259 581 193 522 q 404 672 325 639 q 571 706 483 706 q 592 705 582 706 q 614 703 603 704 q 651 697 635 701 q 676 682 668 692 q 693 711 688 696 q 708 733 699 726 q 732 743 719 743 q 753 726 753 743 q 749 714 753 721 q 674 603 703 657 q 622 483 646 549 q 608 472 618 472 q 599 477 603 472 q 599 490 594 482 l 636 578 q 649 625 649 607 q 618 668 649 657 q 546 682 585 682 q 438 654 490 682 q 338 580 385 626 q 252 478 290 533 q 187 367 214 422 q 147 267 160 313 q 129 154 129 207 q 180 23 129 65 q 308 -19 231 -19 q 492 25 392 -19 q 599 96 557 54 q 692 199 642 138 q 703 204 696 204 q 706 193 713 204 q 607 72 654 122 q 497 -8 560 22 q 306 -54 401 -54 m 708 768 q 681 780 703 767 q 643 804 658 793 q 616 822 632 813 q 592 838 600 832 q 569 827 582 832 q 546 817 557 822 q 483 785 503 794 q 453 771 464 775 q 451 775 450 771 q 475 799 457 783 q 519 833 493 814 q 556 860 539 849 q 593 890 572 872 q 607 900 603 900 q 617 890 610 900 q 633 866 619 885 q 657 835 647 847 q 690 798 669 819 q 711 774 710 776 q 708 768 715 768 z "},"Ċ":{"ha":585,"x_min":60,"x_max":753,"o":"m 306 -54 q 182 -28 238 -54 q 93 49 126 -3 q 60 178 60 100 q 76 292 60 229 q 147 448 100 374 q 259 581 193 522 q 404 672 325 639 q 571 706 483 706 q 592 705 582 706 q 614 703 603 704 q 651 697 635 701 q 676 682 668 692 q 693 711 688 696 q 708 733 699 726 q 732 743 719 743 q 753 726 753 743 q 749 714 753 721 q 674 603 703 657 q 622 483 646 549 q 608 472 618 472 q 599 477 603 472 q 599 490 594 482 l 636 578 q 649 625 649 607 q 618 668 649 657 q 546 682 585 682 q 438 654 490 682 q 338 580 385 626 q 252 478 290 533 q 187 367 214 422 q 147 267 160 313 q 129 154 129 207 q 180 23 129 65 q 308 -19 231 -19 q 492 25 392 -19 q 599 96 557 54 q 692 199 642 138 q 703 204 696 204 q 706 193 713 204 q 607 72 654 122 q 497 -8 560 22 q 306 -54 401 -54 m 572 789 q 558 806 558 789 q 559 814 558 810 q 561 822 560 818 q 592 860 568 842 q 635 878 614 878 q 643 874 643 878 q 638 860 642 868 q 628 842 633 853 q 618 825 622 832 q 613 815 614 818 q 572 789 607 789 z "},"D":{"ha":783,"x_min":1,"x_max":829,"o":"m 11 -19 q 10 -6 1 -19 q 31 24 14 1 q 82 46 47 46 q 105 44 93 46 q 131 43 117 43 q 165 49 157 43 q 188 72 174 56 q 205 108 190 76 q 242 192 219 140 q 290 304 264 243 q 342 426 317 365 q 391 541 368 488 q 428 629 414 594 q 375 644 408 636 q 303 659 342 653 q 231 665 265 665 q 197 663 213 665 q 169 656 181 661 q 76 529 76 613 q 89 463 76 499 q 119 394 101 426 q 160 328 138 361 q 158 319 163 322 q 151 322 154 317 q 104 388 129 356 q 62 456 79 421 q 44 532 44 492 q 45 547 44 539 q 47 563 46 554 q 116 679 63 644 q 250 718 169 714 q 315 714 276 719 q 390 700 353 708 q 450 683 428 692 q 517 780 478 744 q 617 815 557 815 q 638 811 626 815 q 653 799 649 807 q 654 794 654 797 q 648 788 654 789 q 639 792 642 786 q 633 796 639 793 q 617 799 626 799 q 557 778 582 799 q 516 728 532 758 q 489 669 500 699 q 610 612 550 649 q 719 526 669 575 q 799 416 769 476 q 829 286 829 356 q 793 172 829 225 q 692 78 757 118 q 543 15 628 38 q 361 -10 458 -8 q 211 -6 286 -11 q 65 0 136 -1 q 14 -18 28 0 q 11 -19 13 -19 m 374 15 q 579 51 490 17 q 719 142 668 85 q 769 274 769 200 q 742 384 769 329 q 671 487 715 439 q 574 569 626 535 q 469 618 521 604 q 367 379 410 476 q 298 219 325 282 q 254 120 271 157 q 228 64 238 83 q 211 33 218 44 q 249 27 222 32 q 310 19 276 22 q 374 15 343 15 z "},"Ǆ":{"ha":1585,"x_min":1,"x_max":1586,"o":"m 1160 874 q 1188 863 1167 876 q 1225 838 1210 849 q 1252 820 1236 829 q 1276 804 1268 811 q 1299 815 1286 810 q 1322 825 1313 819 q 1386 857 1367 847 q 1415 871 1406 867 q 1417 867 1418 871 q 1393 843 1411 858 q 1349 808 1375 828 q 1313 782 1331 794 q 1275 751 1296 769 q 1261 742 1265 742 q 1251 751 1258 742 q 1235 776 1249 757 q 1211 807 1222 794 q 1179 844 1199 822 q 1157 868 1160 865 q 1160 874 1153 874 m 11 -19 q 10 -6 1 -19 q 31 24 14 1 q 82 46 47 46 q 105 44 93 46 q 131 43 117 43 q 165 49 157 43 q 188 72 174 56 q 205 108 190 76 q 242 192 219 140 q 290 304 264 243 q 342 426 317 365 q 391 541 368 488 q 428 629 414 594 q 375 644 408 636 q 303 659 342 653 q 231 665 265 665 q 197 663 213 665 q 169 656 181 661 q 76 529 76 613 q 89 463 76 499 q 119 394 101 426 q 160 328 138 361 q 158 319 163 322 q 151 322 154 317 q 104 388 129 356 q 62 456 79 421 q 44 532 44 492 q 45 547 44 539 q 47 563 46 554 q 116 679 63 644 q 250 718 169 714 q 315 714 276 719 q 390 700 353 708 q 450 683 428 692 q 517 780 478 744 q 617 815 557 815 q 638 811 626 815 q 653 799 649 807 q 654 794 654 797 q 648 788 654 789 q 639 792 642 786 q 633 796 639 793 q 617 799 626 799 q 557 778 582 799 q 516 728 532 758 q 489 669 500 699 q 610 612 550 649 q 719 526 669 575 q 799 416 769 476 q 829 286 829 356 q 793 172 829 225 q 692 78 757 118 q 543 15 628 38 q 361 -10 458 -8 q 211 -6 286 -11 q 65 0 136 -1 q 14 -18 28 0 q 11 -19 13 -19 m 374 15 q 579 51 490 17 q 719 142 668 85 q 769 274 769 200 q 742 384 769 329 q 671 487 715 439 q 574 569 626 535 q 469 618 521 604 q 367 379 410 476 q 298 219 325 282 q 254 120 271 157 q 228 64 238 83 q 211 33 218 44 q 249 27 222 32 q 310 19 276 22 q 374 15 343 15 m 1381 -96 q 1224 -70 1306 -96 q 1060 -8 1142 -44 q 904 57 979 28 l 847 -7 q 856 -14 851 -11 q 863 -19 860 -17 q 867 -28 867 -24 q 854 -31 867 -39 l 838 -19 l 817 -46 q 796 -60 804 -60 q 783 -42 783 -60 q 796 -8 783 -25 q 802 -1 797 -6 q 808 4 807 3 q 778 42 793 19 q 763 85 763 65 q 772 110 763 100 q 807 126 782 121 q 818 128 813 128 q 829 129 824 129 q 849 128 839 129 q 871 122 860 126 l 914 108 l 1094 289 q 1078 285 1086 288 q 1064 282 1071 283 q 1035 276 1049 279 q 1013 274 1022 274 l 1010 274 q 990 286 990 274 q 993 295 990 290 q 997 304 996 300 q 1019 324 1004 315 q 1043 333 1033 333 q 1092 338 1065 335 q 1147 342 1119 340 q 1265 460 1211 404 q 1353 551 1319 515 q 1388 590 1388 586 l 1388 594 q 1299 606 1351 597 q 1214 622 1247 615 q 1116 642 1161 633 q 1036 650 1071 650 q 970 631 993 650 q 947 557 947 611 q 978 390 947 499 l 978 388 q 971 381 978 382 q 961 386 964 381 q 909 535 925 475 q 893 635 893 596 q 915 700 893 682 q 972 718 936 718 q 1058 704 1010 718 q 1163 672 1107 690 q 1278 637 1219 653 q 1392 617 1336 621 q 1426 663 1401 644 q 1478 695 1451 681 q 1524 728 1506 710 q 1539 740 1531 735 q 1557 746 1547 746 q 1572 742 1565 746 q 1579 718 1579 738 q 1571 693 1579 708 q 1550 671 1563 678 q 1487 626 1508 647 q 1429 572 1465 604 q 1303 458 1365 517 q 1179 342 1240 400 q 1247 340 1215 342 q 1304 332 1278 338 q 1331 314 1324 326 q 1339 286 1339 301 q 1332 257 1339 271 q 1323 249 1328 247 q 1324 260 1318 250 q 1329 276 1329 269 q 1307 299 1329 293 q 1254 306 1285 306 q 1181 301 1218 306 q 1131 294 1143 296 q 1033 197 1081 246 q 940 99 985 147 q 1058 51 996 78 q 1186 2 1121 25 q 1315 -33 1251 -21 q 1353 -39 1335 -37 q 1388 -40 1371 -40 q 1521 -1 1475 -40 q 1567 82 1567 38 q 1566 92 1567 88 q 1564 101 1565 96 q 1563 110 1563 106 q 1563 115 1563 114 q 1568 128 1563 128 q 1579 115 1574 128 q 1586 81 1586 99 q 1569 14 1586 49 q 1522 -49 1551 -21 q 1457 -86 1493 -76 q 1381 -96 1422 -96 m 819 15 l 874 69 q 856 77 865 74 q 836 85 846 81 q 826 87 831 86 q 818 88 822 88 q 794 65 794 88 q 819 15 794 40 z "},"Ď":{"ha":783,"x_min":1,"x_max":829,"o":"m 494 974 q 516 965 501 976 q 563 932 531 954 l 597 908 l 636 928 q 697 958 681 950 q 722 971 713 967 q 724 967 725 971 q 703 946 718 958 q 664 913 689 933 q 632 887 646 899 q 596 856 618 875 q 582 847 588 847 q 572 856 579 847 q 559 877 569 861 q 539 907 549 893 q 523 929 533 915 q 503 955 513 943 q 492 968 493 967 q 494 974 488 974 m 11 -19 q 10 -6 1 -19 q 31 24 14 1 q 82 46 47 46 q 105 44 93 46 q 131 43 117 43 q 165 49 157 43 q 188 72 174 56 q 205 108 190 76 q 242 192 219 140 q 290 304 264 243 q 342 426 317 365 q 391 541 368 488 q 428 629 414 594 q 375 644 408 636 q 303 659 342 653 q 231 665 265 665 q 197 663 213 665 q 169 656 181 661 q 76 529 76 613 q 89 463 76 499 q 119 394 101 426 q 160 328 138 361 q 158 319 163 322 q 151 322 154 317 q 104 388 129 356 q 62 456 79 421 q 44 532 44 492 q 45 547 44 539 q 47 563 46 554 q 116 679 63 644 q 250 718 169 714 q 315 714 276 719 q 390 700 353 708 q 450 683 428 692 q 517 780 478 744 q 617 815 557 815 q 638 811 626 815 q 653 799 649 807 q 654 794 654 797 q 648 788 654 789 q 639 792 642 786 q 633 796 639 793 q 617 799 626 799 q 557 778 582 799 q 516 728 532 758 q 489 669 500 699 q 610 612 550 649 q 719 526 669 575 q 799 416 769 476 q 829 286 829 356 q 793 172 829 225 q 692 78 757 118 q 543 15 628 38 q 361 -10 458 -8 q 211 -6 286 -11 q 65 0 136 -1 q 14 -18 28 0 q 11 -19 13 -19 m 374 15 q 579 51 490 17 q 719 142 668 85 q 769 274 769 200 q 742 384 769 329 q 671 487 715 439 q 574 569 626 535 q 469 618 521 604 q 367 379 410 476 q 298 219 325 282 q 254 120 271 157 q 228 64 238 83 q 211 33 218 44 q 249 27 222 32 q 310 19 276 22 q 374 15 343 15 z "},"Đ":{"ha":783,"x_min":1,"x_max":829,"o":"m 11 -19 q 10 -6 1 -19 q 31 24 14 1 q 82 46 47 46 q 105 44 93 46 q 131 43 117 43 q 165 49 157 43 q 188 72 174 56 q 210 119 190 76 q 257 226 231 163 q 197 222 222 224 q 156 219 172 219 q 107 225 122 219 q 169 267 117 267 q 222 267 196 267 q 274 265 247 267 q 331 399 301 329 q 387 529 361 468 q 428 629 413 590 q 375 644 408 636 q 303 659 342 653 q 231 665 265 665 q 197 663 213 665 q 169 656 181 661 q 76 529 76 613 q 89 463 76 499 q 119 394 101 426 q 160 328 138 361 q 158 319 163 322 q 151 322 154 317 q 104 388 129 356 q 62 456 79 421 q 44 532 44 492 q 45 547 44 539 q 47 563 46 554 q 116 679 63 644 q 250 718 169 714 q 315 714 276 719 q 390 700 353 708 q 450 683 428 692 q 517 780 478 744 q 617 815 557 815 q 638 811 626 815 q 653 799 649 807 q 654 794 654 797 q 648 788 654 789 q 639 792 642 786 q 633 796 639 793 q 617 799 626 799 q 557 778 582 799 q 516 728 532 758 q 489 669 500 699 q 610 612 550 649 q 719 526 669 575 q 799 416 769 476 q 829 286 829 356 q 793 172 829 225 q 692 78 757 118 q 543 15 628 38 q 361 -10 458 -8 q 211 -6 286 -11 q 65 0 136 -1 q 14 -18 28 0 q 11 -19 13 -19 m 374 15 q 579 51 490 17 q 719 142 668 85 q 769 274 769 200 q 742 384 769 329 q 671 487 715 439 q 574 569 626 535 q 469 618 521 604 q 383 413 419 500 q 318 265 346 326 q 368 264 343 264 q 418 264 393 264 l 417 261 q 419 254 419 261 q 392 243 417 244 q 319 235 369 239 l 304 232 q 257 124 275 164 q 229 65 239 85 q 211 33 219 46 q 249 27 222 32 q 310 19 276 22 q 374 15 343 15 z "},"ǅ":{"ha":1193,"x_min":1,"x_max":1247,"o":"m 994 571 q 1016 563 1001 574 q 1063 529 1031 551 l 1097 506 l 1136 525 q 1197 556 1181 547 q 1222 568 1213 564 q 1224 564 1225 568 q 1203 543 1218 556 q 1164 510 1189 531 q 1132 484 1146 496 q 1096 453 1118 472 q 1082 444 1088 444 q 1072 453 1079 444 q 1059 474 1069 458 q 1039 504 1049 490 q 1023 526 1033 513 q 1003 552 1013 540 q 992 565 993 564 q 994 571 988 571 m 11 -19 q 10 -6 1 -19 q 31 24 14 1 q 82 46 47 46 q 105 44 93 46 q 131 43 117 43 q 165 49 157 43 q 188 72 174 56 q 205 108 190 76 q 242 192 219 140 q 290 304 264 243 q 342 426 317 365 q 391 541 368 488 q 428 629 414 594 q 375 644 408 636 q 303 659 342 653 q 231 665 265 665 q 197 663 213 665 q 169 656 181 661 q 76 529 76 613 q 89 463 76 499 q 119 394 101 426 q 160 328 138 361 q 158 319 163 322 q 151 322 154 317 q 104 388 129 356 q 62 456 79 421 q 44 532 44 492 q 45 547 44 539 q 47 563 46 554 q 116 679 63 644 q 250 718 169 714 q 315 714 276 719 q 390 700 353 708 q 450 683 428 692 q 517 780 478 744 q 617 815 557 815 q 638 811 626 815 q 653 799 649 807 q 654 794 654 797 q 648 788 654 789 q 639 792 642 786 q 633 796 639 793 q 617 799 626 799 q 557 778 582 799 q 516 728 532 758 q 489 669 500 699 q 610 612 550 649 q 719 526 669 575 q 799 416 769 476 q 829 286 829 356 q 793 172 829 225 q 692 78 757 118 q 543 15 628 38 q 361 -10 458 -8 q 211 -6 286 -11 q 65 0 136 -1 q 14 -18 28 0 q 11 -19 13 -19 m 374 15 q 579 51 490 17 q 719 142 668 85 q 769 274 769 200 q 742 384 769 329 q 671 487 715 439 q 574 569 626 535 q 469 618 521 604 q 367 379 410 476 q 298 219 325 282 q 254 120 271 157 q 228 64 238 83 q 211 33 218 44 q 249 27 222 32 q 310 19 276 22 q 374 15 343 15 m 664 -429 q 556 -396 594 -429 q 517 -314 517 -362 q 552 -217 517 -269 q 664 -122 588 -165 q 774 -73 714 -94 q 894 -37 833 -51 q 1008 -17 956 -24 q 1094 -11 1061 -10 q 1101 -12 1097 -11 q 1111 -12 1106 -12 q 1122 16 1117 0 q 1133 49 1128 32 q 1142 97 1142 78 q 1129 137 1142 125 q 1099 149 1117 149 q 1082 146 1090 149 q 1065 139 1074 143 q 1038 122 1051 133 q 1014 99 1025 110 q 1003 88 1008 93 q 996 79 999 83 l 986 71 q 964 74 974 67 q 949 93 954 82 q 949 107 944 104 q 1025 205 1000 154 q 1051 286 1050 256 q 1047 309 1051 300 q 1031 318 1042 318 q 951 253 1003 318 l 926 221 q 900 190 913 203 q 889 186 896 186 q 889 190 888 186 l 922 233 l 938 257 q 970 306 951 278 q 1008 347 989 333 q 1068 369 1039 369 q 1104 357 1090 369 q 1118 321 1118 344 q 1115 295 1118 310 q 1103 265 1111 281 q 1077 220 1093 243 q 1046 178 1061 197 l 1017 142 q 1006 126 1011 135 q 992 103 1000 118 q 1028 133 1011 119 q 1060 154 1046 146 q 1138 179 1108 179 q 1180 158 1168 179 q 1192 107 1192 138 q 1183 44 1192 76 q 1163 -17 1175 11 q 1247 -61 1239 -32 q 1244 -65 1247 -62 q 1242 -65 1242 -65 q 1217 -42 1239 -51 q 1158 -26 1194 -32 q 1072 -170 1126 -96 q 951 -305 1018 -244 q 813 -396 885 -365 q 733 -422 769 -414 q 664 -429 696 -429 m 653 -417 q 719 -406 682 -417 q 799 -374 756 -396 q 917 -284 860 -342 q 1023 -157 974 -226 q 1106 -22 1072 -87 l 1090 -21 q 1006 -26 1058 -18 q 894 -53 954 -35 q 775 -96 833 -71 q 671 -153 717 -121 q 579 -242 608 -196 q 550 -328 550 -289 q 576 -392 550 -367 q 653 -417 603 -417 z "},"E":{"ha":625,"x_min":53,"x_max":739,"o":"m 368 -33 q 297 -26 332 -33 q 231 0 263 -18 q 186 49 201 17 q 171 107 171 81 q 191 206 171 147 q 242 332 211 265 q 210 324 225 328 q 185 319 196 321 q 178 319 182 319 q 172 318 175 318 q 153 329 153 318 q 156 338 153 333 q 160 346 158 343 q 183 367 167 357 q 214 378 200 376 q 239 382 225 379 q 267 386 253 385 q 341 537 304 464 q 396 660 378 610 l 226 654 q 113 630 150 653 q 76 550 76 607 q 88 485 76 518 q 110 424 100 451 q 110 422 110 422 q 111 419 111 421 q 103 408 111 408 q 85 435 94 408 q 71 485 79 454 q 58 536 63 515 q 54 561 56 549 q 53 583 53 574 q 83 665 53 638 q 160 703 113 693 q 257 713 207 713 q 327 710 293 713 q 388 704 361 707 q 415 713 414 701 q 424 740 415 724 q 443 758 428 758 q 459 751 451 758 q 467 728 467 743 q 461 701 467 714 l 728 700 l 736 697 q 738 682 739 688 q 714 663 738 678 q 658 625 690 649 q 600 568 626 601 q 579 557 589 557 q 576 560 576 557 q 586 578 576 567 q 596 590 588 581 q 617 617 604 600 q 627 632 624 626 q 631 642 631 638 q 581 653 631 653 q 538 654 558 653 q 497 656 518 656 q 476 656 488 656 q 454 653 465 656 q 444 649 449 651 q 435 639 440 647 q 383 546 417 615 q 317 396 350 476 l 357 403 q 436 413 397 410 q 510 415 475 415 q 535 415 522 415 q 558 414 547 415 q 602 398 589 413 q 615 368 615 383 q 611 350 615 358 q 600 342 607 342 q 599 351 593 343 q 603 365 603 360 q 587 383 603 378 q 546 388 571 388 q 465 381 511 388 q 383 366 419 374 q 335 356 346 358 l 297 347 q 254 222 271 279 q 238 138 238 164 q 267 69 238 96 q 343 30 297 43 q 436 17 389 17 q 567 42 501 17 q 675 119 633 68 q 683 126 679 126 q 685 122 685 126 q 682 113 685 119 q 672 97 679 106 q 646 71 660 83 q 617 47 632 58 q 499 -11 565 11 q 368 -33 433 -33 z "},"É":{"ha":625,"x_min":53,"x_max":739,"o":"m 368 -33 q 297 -26 332 -33 q 231 0 263 -18 q 186 49 201 17 q 171 107 171 81 q 191 206 171 147 q 242 332 211 265 q 210 324 225 328 q 185 319 196 321 q 178 319 182 319 q 172 318 175 318 q 153 329 153 318 q 156 338 153 333 q 160 346 158 343 q 183 367 167 357 q 214 378 200 376 q 239 382 225 379 q 267 386 253 385 q 341 537 304 464 q 396 660 378 610 l 226 654 q 113 630 150 653 q 76 550 76 607 q 88 485 76 518 q 110 424 100 451 q 110 422 110 422 q 111 419 111 421 q 103 408 111 408 q 85 435 94 408 q 71 485 79 454 q 58 536 63 515 q 54 561 56 549 q 53 583 53 574 q 83 665 53 638 q 160 703 113 693 q 257 713 207 713 q 327 710 293 713 q 388 704 361 707 q 415 713 414 701 q 424 740 415 724 q 443 758 428 758 q 459 751 451 758 q 467 728 467 743 q 461 701 467 714 l 728 700 l 736 697 q 738 682 739 688 q 714 663 738 678 q 658 625 690 649 q 600 568 626 601 q 579 557 589 557 q 576 560 576 557 q 586 578 576 567 q 596 590 588 581 q 617 617 604 600 q 627 632 624 626 q 631 642 631 638 q 581 653 631 653 q 538 654 558 653 q 497 656 518 656 q 476 656 488 656 q 454 653 465 656 q 444 649 449 651 q 435 639 440 647 q 383 546 417 615 q 317 396 350 476 l 357 403 q 436 413 397 410 q 510 415 475 415 q 535 415 522 415 q 558 414 547 415 q 602 398 589 413 q 615 368 615 383 q 611 350 615 358 q 600 342 607 342 q 599 351 593 343 q 603 365 603 360 q 587 383 603 378 q 546 388 571 388 q 465 381 511 388 q 383 366 419 374 q 335 356 346 358 l 297 347 q 254 222 271 279 q 238 138 238 164 q 267 69 238 96 q 343 30 297 43 q 436 17 389 17 q 567 42 501 17 q 675 119 633 68 q 683 126 679 126 q 685 122 685 126 q 682 113 685 119 q 672 97 679 106 q 646 71 660 83 q 617 47 632 58 q 499 -11 565 11 q 368 -33 433 -33 m 528 793 q 549 815 529 800 q 618 861 568 829 l 678 901 q 690 904 686 904 q 707 883 707 901 q 685 860 707 872 q 657 847 671 851 q 622 832 643 842 q 579 813 601 824 q 542 795 557 801 q 528 793 528 789 z "},"Ĕ":{"ha":625,"x_min":53,"x_max":739,"o":"m 368 -33 q 297 -26 332 -33 q 231 0 263 -18 q 186 49 201 17 q 171 107 171 81 q 191 206 171 147 q 242 332 211 265 q 210 324 225 328 q 185 319 196 321 q 178 319 182 319 q 172 318 175 318 q 153 329 153 318 q 156 338 153 333 q 160 346 158 343 q 183 367 167 357 q 214 378 200 376 q 239 382 225 379 q 267 386 253 385 q 341 537 304 464 q 396 660 378 610 l 226 654 q 113 630 150 653 q 76 550 76 607 q 88 485 76 518 q 110 424 100 451 q 110 422 110 422 q 111 419 111 421 q 103 408 111 408 q 85 435 94 408 q 71 485 79 454 q 58 536 63 515 q 54 561 56 549 q 53 583 53 574 q 83 665 53 638 q 160 703 113 693 q 257 713 207 713 q 327 710 293 713 q 388 704 361 707 q 415 713 414 701 q 424 740 415 724 q 443 758 428 758 q 459 751 451 758 q 467 728 467 743 q 461 701 467 714 l 728 700 l 736 697 q 738 682 739 688 q 714 663 738 678 q 658 625 690 649 q 600 568 626 601 q 579 557 589 557 q 576 560 576 557 q 586 578 576 567 q 596 590 588 581 q 617 617 604 600 q 627 632 624 626 q 631 642 631 638 q 581 653 631 653 q 538 654 558 653 q 497 656 518 656 q 476 656 488 656 q 454 653 465 656 q 444 649 449 651 q 435 639 440 647 q 383 546 417 615 q 317 396 350 476 l 357 403 q 436 413 397 410 q 510 415 475 415 q 535 415 522 415 q 558 414 547 415 q 602 398 589 413 q 615 368 615 383 q 611 350 615 358 q 600 342 607 342 q 599 351 593 343 q 603 365 603 360 q 587 383 603 378 q 546 388 571 388 q 465 381 511 388 q 383 366 419 374 q 335 356 346 358 l 297 347 q 254 222 271 279 q 238 138 238 164 q 267 69 238 96 q 343 30 297 43 q 436 17 389 17 q 567 42 501 17 q 675 119 633 68 q 683 126 679 126 q 685 122 685 126 q 682 113 685 119 q 672 97 679 106 q 646 71 660 83 q 617 47 632 58 q 499 -11 565 11 q 368 -33 433 -33 m 588 778 q 528 798 549 778 q 507 850 507 818 q 509 878 507 861 q 522 893 511 894 q 538 840 524 860 q 596 821 553 821 q 672 839 646 821 q 707 875 697 857 q 721 893 717 893 q 722 890 722 893 q 721 883 722 888 q 718 875 719 878 q 674 806 704 835 q 588 778 643 778 z "},"Ě":{"ha":625,"x_min":53,"x_max":740,"o":"m 482 911 q 510 900 489 914 q 547 875 532 886 q 574 858 558 867 q 599 842 590 849 q 622 852 608 847 q 644 863 635 857 q 708 894 689 885 q 738 908 728 904 q 739 904 740 908 q 715 881 733 896 q 671 846 697 865 q 635 819 653 832 q 597 789 618 807 q 583 779 588 779 q 574 789 581 779 q 558 813 571 794 q 533 844 544 832 q 501 881 521 860 q 479 906 482 903 q 482 911 475 911 m 368 -33 q 297 -26 332 -33 q 231 0 263 -18 q 186 49 201 17 q 171 107 171 81 q 191 206 171 147 q 242 332 211 265 q 210 324 225 328 q 185 319 196 321 q 178 319 182 319 q 172 318 175 318 q 153 329 153 318 q 156 338 153 333 q 160 346 158 343 q 183 367 167 357 q 214 378 200 376 q 239 382 225 379 q 267 386 253 385 q 341 537 304 464 q 396 660 378 610 l 226 654 q 113 630 150 653 q 76 550 76 607 q 88 485 76 518 q 110 424 100 451 q 110 422 110 422 q 111 419 111 421 q 103 408 111 408 q 85 435 94 408 q 71 485 79 454 q 58 536 63 515 q 54 561 56 549 q 53 583 53 574 q 83 665 53 638 q 160 703 113 693 q 257 713 207 713 q 327 710 293 713 q 388 704 361 707 q 415 713 414 701 q 424 740 415 724 q 443 758 428 758 q 459 751 451 758 q 467 728 467 743 q 461 701 467 714 l 728 700 l 736 697 q 738 682 739 688 q 714 663 738 678 q 658 625 690 649 q 600 568 626 601 q 579 557 589 557 q 576 560 576 557 q 586 578 576 567 q 596 590 588 581 q 617 617 604 600 q 627 632 624 626 q 631 642 631 638 q 581 653 631 653 q 538 654 558 653 q 497 656 518 656 q 476 656 488 656 q 454 653 465 656 q 444 649 449 651 q 435 639 440 647 q 383 546 417 615 q 317 396 350 476 l 357 403 q 436 413 397 410 q 510 415 475 415 q 535 415 522 415 q 558 414 547 415 q 602 398 589 413 q 615 368 615 383 q 611 350 615 358 q 600 342 607 342 q 599 351 593 343 q 603 365 603 360 q 587 383 603 378 q 546 388 571 388 q 465 381 511 388 q 383 366 419 374 q 335 356 346 358 l 297 347 q 254 222 271 279 q 238 138 238 164 q 267 69 238 96 q 343 30 297 43 q 436 17 389 17 q 567 42 501 17 q 675 119 633 68 q 683 126 679 126 q 685 122 685 126 q 682 113 685 119 q 672 97 679 106 q 646 71 660 83 q 617 47 632 58 q 499 -11 565 11 q 368 -33 433 -33 z "},"Ê":{"ha":625,"x_min":53,"x_max":739,"o":"m 368 -33 q 297 -26 332 -33 q 231 0 263 -18 q 186 49 201 17 q 171 107 171 81 q 191 206 171 147 q 242 332 211 265 q 210 324 225 328 q 185 319 196 321 q 178 319 182 319 q 172 318 175 318 q 153 329 153 318 q 156 338 153 333 q 160 346 158 343 q 183 367 167 357 q 214 378 200 376 q 239 382 225 379 q 267 386 253 385 q 341 537 304 464 q 396 660 378 610 l 226 654 q 113 630 150 653 q 76 550 76 607 q 88 485 76 518 q 110 424 100 451 q 110 422 110 422 q 111 419 111 421 q 103 408 111 408 q 85 435 94 408 q 71 485 79 454 q 58 536 63 515 q 54 561 56 549 q 53 583 53 574 q 83 665 53 638 q 160 703 113 693 q 257 713 207 713 q 327 710 293 713 q 388 704 361 707 q 415 713 414 701 q 424 740 415 724 q 443 758 428 758 q 459 751 451 758 q 467 728 467 743 q 461 701 467 714 l 728 700 l 736 697 q 738 682 739 688 q 714 663 738 678 q 658 625 690 649 q 600 568 626 601 q 579 557 589 557 q 576 560 576 557 q 586 578 576 567 q 596 590 588 581 q 617 617 604 600 q 627 632 624 626 q 631 642 631 638 q 581 653 631 653 q 538 654 558 653 q 497 656 518 656 q 476 656 488 656 q 454 653 465 656 q 444 649 449 651 q 435 639 440 647 q 383 546 417 615 q 317 396 350 476 l 357 403 q 436 413 397 410 q 510 415 475 415 q 535 415 522 415 q 558 414 547 415 q 602 398 589 413 q 615 368 615 383 q 611 350 615 358 q 600 342 607 342 q 599 351 593 343 q 603 365 603 360 q 587 383 603 378 q 546 388 571 388 q 465 381 511 388 q 383 366 419 374 q 335 356 346 358 l 297 347 q 254 222 271 279 q 238 138 238 164 q 267 69 238 96 q 343 30 297 43 q 436 17 389 17 q 567 42 501 17 q 675 119 633 68 q 683 126 679 126 q 685 122 685 126 q 682 113 685 119 q 672 97 679 106 q 646 71 660 83 q 617 47 632 58 q 499 -11 565 11 q 368 -33 433 -33 m 715 771 q 688 783 710 769 q 650 807 665 796 q 623 825 639 815 q 599 840 607 835 q 576 830 589 835 q 553 819 564 825 q 490 788 510 797 q 460 774 471 778 q 458 778 457 774 q 482 801 464 786 q 526 836 500 817 q 563 863 546 851 q 600 893 579 875 q 614 903 610 903 q 624 893 617 903 q 640 869 626 888 q 664 838 654 850 q 697 801 676 822 q 718 776 717 779 q 715 771 722 771 z "},"Ế":{"ha":625,"x_min":53,"x_max":892,"o":"m 368 -33 q 297 -26 332 -33 q 231 0 263 -18 q 186 49 201 17 q 171 107 171 81 q 191 206 171 147 q 242 332 211 265 q 210 324 225 328 q 185 319 196 321 q 178 319 182 319 q 172 318 175 318 q 153 329 153 318 q 156 338 153 333 q 160 346 158 343 q 183 367 167 357 q 214 378 200 376 q 239 382 225 379 q 267 386 253 385 q 341 537 304 464 q 396 660 378 610 l 226 654 q 113 630 150 653 q 76 550 76 607 q 88 485 76 518 q 110 424 100 451 q 110 422 110 422 q 111 419 111 421 q 103 408 111 408 q 85 435 94 408 q 71 485 79 454 q 58 536 63 515 q 54 561 56 549 q 53 583 53 574 q 83 665 53 638 q 160 703 113 693 q 257 713 207 713 q 327 710 293 713 q 388 704 361 707 q 415 713 414 701 q 424 740 415 724 q 443 758 428 758 q 459 751 451 758 q 467 728 467 743 q 461 701 467 714 l 728 700 l 736 697 q 738 682 739 688 q 714 663 738 678 q 658 625 690 649 q 600 568 626 601 q 579 557 589 557 q 576 560 576 557 q 586 578 576 567 q 596 590 588 581 q 617 617 604 600 q 627 632 624 626 q 631 642 631 638 q 581 653 631 653 q 538 654 558 653 q 497 656 518 656 q 476 656 488 656 q 454 653 465 656 q 444 649 449 651 q 435 639 440 647 q 383 546 417 615 q 317 396 350 476 l 357 403 q 436 413 397 410 q 510 415 475 415 q 535 415 522 415 q 558 414 547 415 q 602 398 589 413 q 615 368 615 383 q 611 350 615 358 q 600 342 607 342 q 599 351 593 343 q 603 365 603 360 q 587 383 603 378 q 546 388 571 388 q 465 381 511 388 q 383 366 419 374 q 335 356 346 358 l 297 347 q 254 222 271 279 q 238 138 238 164 q 267 69 238 96 q 343 30 297 43 q 436 17 389 17 q 567 42 501 17 q 675 119 633 68 q 683 126 679 126 q 685 122 685 126 q 682 113 685 119 q 672 97 679 106 q 646 71 660 83 q 617 47 632 58 q 499 -11 565 11 q 368 -33 433 -33 m 715 771 q 688 783 710 769 q 650 807 665 796 q 623 825 639 815 q 599 840 607 835 q 576 830 589 835 q 553 819 564 825 q 490 788 510 797 q 460 774 471 778 q 458 778 457 774 q 482 801 464 786 q 526 836 500 817 q 563 863 546 851 q 600 893 579 875 q 614 903 610 903 q 624 893 617 903 q 640 869 626 888 q 664 838 654 850 q 697 801 676 822 q 718 776 717 779 q 715 771 722 771 m 713 888 q 733 909 714 894 q 803 956 753 924 l 863 996 q 875 999 871 999 q 892 978 892 996 q 869 954 892 967 q 842 941 856 946 q 807 926 828 936 q 764 907 786 918 q 727 890 742 896 q 713 888 713 883 z "},"Ệ":{"ha":625,"x_min":53,"x_max":739,"o":"m 368 -33 q 297 -26 332 -33 q 231 0 263 -18 q 186 49 201 17 q 171 107 171 81 q 191 206 171 147 q 242 332 211 265 q 210 324 225 328 q 185 319 196 321 q 178 319 182 319 q 172 318 175 318 q 153 329 153 318 q 156 338 153 333 q 160 346 158 343 q 183 367 167 357 q 214 378 200 376 q 239 382 225 379 q 267 386 253 385 q 341 537 304 464 q 396 660 378 610 l 226 654 q 113 630 150 653 q 76 550 76 607 q 88 485 76 518 q 110 424 100 451 q 110 422 110 422 q 111 419 111 421 q 103 408 111 408 q 85 435 94 408 q 71 485 79 454 q 58 536 63 515 q 54 561 56 549 q 53 583 53 574 q 83 665 53 638 q 160 703 113 693 q 257 713 207 713 q 327 710 293 713 q 388 704 361 707 q 415 713 414 701 q 424 740 415 724 q 443 758 428 758 q 459 751 451 758 q 467 728 467 743 q 461 701 467 714 l 728 700 l 736 697 q 738 682 739 688 q 714 663 738 678 q 658 625 690 649 q 600 568 626 601 q 579 557 589 557 q 576 560 576 557 q 586 578 576 567 q 596 590 588 581 q 617 617 604 600 q 627 632 624 626 q 631 642 631 638 q 581 653 631 653 q 538 654 558 653 q 497 656 518 656 q 476 656 488 656 q 454 653 465 656 q 444 649 449 651 q 435 639 440 647 q 383 546 417 615 q 317 396 350 476 l 357 403 q 436 413 397 410 q 510 415 475 415 q 535 415 522 415 q 558 414 547 415 q 602 398 589 413 q 615 368 615 383 q 611 350 615 358 q 600 342 607 342 q 599 351 593 343 q 603 365 603 360 q 587 383 603 378 q 546 388 571 388 q 465 381 511 388 q 383 366 419 374 q 335 356 346 358 l 297 347 q 254 222 271 279 q 238 138 238 164 q 267 69 238 96 q 343 30 297 43 q 436 17 389 17 q 567 42 501 17 q 675 119 633 68 q 683 126 679 126 q 685 122 685 126 q 682 113 685 119 q 672 97 679 106 q 646 71 660 83 q 617 47 632 58 q 499 -11 565 11 q 368 -33 433 -33 m 310 -189 q 296 -172 296 -189 q 297 -164 296 -168 q 299 -156 297 -160 q 329 -118 306 -136 q 372 -100 351 -100 q 381 -104 381 -100 q 375 -117 379 -110 q 365 -136 371 -125 q 356 -153 360 -146 q 350 -162 351 -160 q 310 -189 344 -189 m 715 771 q 688 783 710 769 q 650 807 665 796 q 623 825 639 815 q 599 840 607 835 q 576 830 589 835 q 553 819 564 825 q 490 788 510 797 q 460 774 471 778 q 458 778 457 774 q 482 801 464 786 q 526 836 500 817 q 563 863 546 851 q 600 893 579 875 q 614 903 610 903 q 624 893 617 903 q 640 869 626 888 q 664 838 654 850 q 697 801 676 822 q 718 776 717 779 q 715 771 722 771 z "},"Ề":{"ha":625,"x_min":53,"x_max":761,"o":"m 368 -33 q 297 -26 332 -33 q 231 0 263 -18 q 186 49 201 17 q 171 107 171 81 q 191 206 171 147 q 242 332 211 265 q 210 324 225 328 q 185 319 196 321 q 178 319 182 319 q 172 318 175 318 q 153 329 153 318 q 156 338 153 333 q 160 346 158 343 q 183 367 167 357 q 214 378 200 376 q 239 382 225 379 q 267 386 253 385 q 341 537 304 464 q 396 660 378 610 l 226 654 q 113 630 150 653 q 76 550 76 607 q 88 485 76 518 q 110 424 100 451 q 110 422 110 422 q 111 419 111 421 q 103 408 111 408 q 85 435 94 408 q 71 485 79 454 q 58 536 63 515 q 54 561 56 549 q 53 583 53 574 q 83 665 53 638 q 160 703 113 693 q 257 713 207 713 q 327 710 293 713 q 388 704 361 707 q 415 713 414 701 q 424 740 415 724 q 443 758 428 758 q 459 751 451 758 q 467 728 467 743 q 461 701 467 714 l 728 700 l 736 697 q 738 682 739 688 q 714 663 738 678 q 658 625 690 649 q 600 568 626 601 q 579 557 589 557 q 576 560 576 557 q 586 578 576 567 q 596 590 588 581 q 617 617 604 600 q 627 632 624 626 q 631 642 631 638 q 581 653 631 653 q 538 654 558 653 q 497 656 518 656 q 476 656 488 656 q 454 653 465 656 q 444 649 449 651 q 435 639 440 647 q 383 546 417 615 q 317 396 350 476 l 357 403 q 436 413 397 410 q 510 415 475 415 q 535 415 522 415 q 558 414 547 415 q 602 398 589 413 q 615 368 615 383 q 611 350 615 358 q 600 342 607 342 q 599 351 593 343 q 603 365 603 360 q 587 383 603 378 q 546 388 571 388 q 465 381 511 388 q 383 366 419 374 q 335 356 346 358 l 297 347 q 254 222 271 279 q 238 138 238 164 q 267 69 238 96 q 343 30 297 43 q 436 17 389 17 q 567 42 501 17 q 675 119 633 68 q 683 126 679 126 q 685 122 685 126 q 682 113 685 119 q 672 97 679 106 q 646 71 660 83 q 617 47 632 58 q 499 -11 565 11 q 368 -33 433 -33 m 715 771 q 688 783 710 769 q 650 807 665 796 q 623 825 639 815 q 599 840 607 835 q 576 830 589 835 q 553 819 564 825 q 490 788 510 797 q 460 774 471 778 q 458 778 457 774 q 482 801 464 786 q 526 836 500 817 q 563 863 546 851 q 600 893 579 875 q 614 903 610 903 q 624 893 617 903 q 640 869 626 888 q 664 838 654 850 q 697 801 676 822 q 718 776 717 779 q 715 771 722 771 m 761 924 q 747 926 761 919 q 710 943 732 932 q 667 963 689 954 q 633 977 646 972 q 604 990 619 982 q 582 1011 582 1001 l 582 1014 q 599 1035 582 1032 q 611 1032 603 1035 l 671 992 q 740 945 721 960 q 761 924 760 931 z "},"Ể":{"ha":625,"x_min":53,"x_max":850,"o":"m 368 -33 q 297 -26 332 -33 q 231 0 263 -18 q 186 49 201 17 q 171 107 171 81 q 191 206 171 147 q 242 332 211 265 q 210 324 225 328 q 185 319 196 321 q 178 319 182 319 q 172 318 175 318 q 153 329 153 318 q 156 338 153 333 q 160 346 158 343 q 183 367 167 357 q 214 378 200 376 q 239 382 225 379 q 267 386 253 385 q 341 537 304 464 q 396 660 378 610 l 226 654 q 113 630 150 653 q 76 550 76 607 q 88 485 76 518 q 110 424 100 451 q 110 422 110 422 q 111 419 111 421 q 103 408 111 408 q 85 435 94 408 q 71 485 79 454 q 58 536 63 515 q 54 561 56 549 q 53 583 53 574 q 83 665 53 638 q 160 703 113 693 q 257 713 207 713 q 327 710 293 713 q 388 704 361 707 q 415 713 414 701 q 424 740 415 724 q 443 758 428 758 q 459 751 451 758 q 467 728 467 743 q 461 701 467 714 l 728 700 l 736 697 q 738 682 739 688 q 714 663 738 678 q 658 625 690 649 q 600 568 626 601 q 579 557 589 557 q 576 560 576 557 q 586 578 576 567 q 596 590 588 581 q 617 617 604 600 q 627 632 624 626 q 631 642 631 638 q 581 653 631 653 q 538 654 558 653 q 497 656 518 656 q 476 656 488 656 q 454 653 465 656 q 444 649 449 651 q 435 639 440 647 q 383 546 417 615 q 317 396 350 476 l 357 403 q 436 413 397 410 q 510 415 475 415 q 535 415 522 415 q 558 414 547 415 q 602 398 589 413 q 615 368 615 383 q 611 350 615 358 q 600 342 607 342 q 599 351 593 343 q 603 365 603 360 q 587 383 603 378 q 546 388 571 388 q 465 381 511 388 q 383 366 419 374 q 335 356 346 358 l 297 347 q 254 222 271 279 q 238 138 238 164 q 267 69 238 96 q 343 30 297 43 q 436 17 389 17 q 567 42 501 17 q 675 119 633 68 q 683 126 679 126 q 685 122 685 126 q 682 113 685 119 q 672 97 679 106 q 646 71 660 83 q 617 47 632 58 q 499 -11 565 11 q 368 -33 433 -33 m 715 771 q 688 783 710 769 q 650 807 665 796 q 623 825 639 815 q 599 840 607 835 q 576 830 589 835 q 553 819 564 825 q 490 788 510 797 q 460 774 471 778 q 458 778 457 774 q 482 801 464 786 q 526 836 500 817 q 563 863 546 851 q 600 893 579 875 q 614 903 610 903 q 624 893 617 903 q 640 869 626 888 q 664 838 654 850 q 697 801 676 822 q 718 776 717 779 q 715 771 722 771 m 733 864 q 755 903 743 889 q 775 926 767 917 q 785 944 782 935 q 790 960 789 954 l 790 964 q 769 982 790 982 q 725 975 739 982 q 701 968 711 968 q 697 976 694 968 q 733 1000 701 986 q 797 1014 765 1014 q 842 976 850 1014 q 838 960 842 968 q 810 924 828 938 q 775 899 793 911 q 746 865 757 888 q 738 861 744 863 q 733 864 732 860 z "},"Ễ":{"ha":625,"x_min":53,"x_max":785,"o":"m 368 -33 q 297 -26 332 -33 q 231 0 263 -18 q 186 49 201 17 q 171 107 171 81 q 191 206 171 147 q 242 332 211 265 q 210 324 225 328 q 185 319 196 321 q 178 319 182 319 q 172 318 175 318 q 153 329 153 318 q 156 338 153 333 q 160 346 158 343 q 183 367 167 357 q 214 378 200 376 q 239 382 225 379 q 267 386 253 385 q 341 537 304 464 q 396 660 378 610 l 226 654 q 113 630 150 653 q 76 550 76 607 q 88 485 76 518 q 110 424 100 451 q 110 422 110 422 q 111 419 111 421 q 103 408 111 408 q 85 435 94 408 q 71 485 79 454 q 58 536 63 515 q 54 561 56 549 q 53 583 53 574 q 83 665 53 638 q 160 703 113 693 q 257 713 207 713 q 327 710 293 713 q 388 704 361 707 q 415 713 414 701 q 424 740 415 724 q 443 758 428 758 q 459 751 451 758 q 467 728 467 743 q 461 701 467 714 l 728 700 l 736 697 q 738 682 739 688 q 714 663 738 678 q 658 625 690 649 q 600 568 626 601 q 579 557 589 557 q 576 560 576 557 q 586 578 576 567 q 596 590 588 581 q 617 617 604 600 q 627 632 624 626 q 631 642 631 638 q 581 653 631 653 q 538 654 558 653 q 497 656 518 656 q 476 656 488 656 q 454 653 465 656 q 444 649 449 651 q 435 639 440 647 q 383 546 417 615 q 317 396 350 476 l 357 403 q 436 413 397 410 q 510 415 475 415 q 535 415 522 415 q 558 414 547 415 q 602 398 589 413 q 615 368 615 383 q 611 350 615 358 q 600 342 607 342 q 599 351 593 343 q 603 365 603 360 q 587 383 603 378 q 546 388 571 388 q 465 381 511 388 q 383 366 419 374 q 335 356 346 358 l 297 347 q 254 222 271 279 q 238 138 238 164 q 267 69 238 96 q 343 30 297 43 q 436 17 389 17 q 567 42 501 17 q 675 119 633 68 q 683 126 679 126 q 685 122 685 126 q 682 113 685 119 q 672 97 679 106 q 646 71 660 83 q 617 47 632 58 q 499 -11 565 11 q 368 -33 433 -33 m 715 771 q 688 783 710 769 q 650 807 665 796 q 623 825 639 815 q 599 840 607 835 q 576 830 589 835 q 553 819 564 825 q 490 788 510 797 q 460 774 471 778 q 458 778 457 774 q 482 801 464 786 q 526 836 500 817 q 563 863 546 851 q 600 893 579 875 q 614 903 610 903 q 624 893 617 903 q 640 869 626 888 q 664 838 654 850 q 697 801 676 822 q 718 776 717 779 q 715 771 722 771 m 704 919 q 665 932 685 919 q 627 956 646 944 q 588 968 608 968 q 557 960 567 968 q 539 942 547 953 q 532 927 533 933 q 528 921 531 921 q 525 933 525 921 q 535 963 525 943 q 560 999 544 982 q 592 1017 575 1017 q 629 1003 610 1017 q 669 977 649 990 q 707 964 689 964 q 735 969 719 964 q 763 992 751 975 q 770 1003 767 999 q 778 1007 774 1007 q 781 999 785 1007 q 763 967 775 986 q 736 934 751 949 q 704 919 721 919 z "},"Ȅ":{"ha":625,"x_min":53,"x_max":739,"o":"m 628 789 q 602 801 628 781 q 547 842 576 821 q 517 863 529 856 q 492 881 506 869 q 475 907 474 896 q 496 925 476 928 q 508 919 503 925 l 557 868 q 615 811 600 826 q 628 789 629 796 m 538 793 q 510 803 538 786 q 451 838 483 819 q 419 855 432 849 q 392 871 407 861 q 372 894 372 883 q 392 915 372 915 q 404 911 399 915 l 458 865 q 522 814 506 828 q 538 793 538 800 m 368 -33 q 297 -26 332 -33 q 231 0 263 -18 q 186 49 201 17 q 171 107 171 81 q 191 206 171 147 q 242 332 211 265 q 210 324 225 328 q 185 319 196 321 q 178 319 182 319 q 172 318 175 318 q 153 329 153 318 q 156 338 153 333 q 160 346 158 343 q 183 367 167 357 q 214 378 200 376 q 239 382 225 379 q 267 386 253 385 q 341 537 304 464 q 396 660 378 610 l 226 654 q 113 630 150 653 q 76 550 76 607 q 88 485 76 518 q 110 424 100 451 q 110 422 110 422 q 111 419 111 421 q 103 408 111 408 q 85 435 94 408 q 71 485 79 454 q 58 536 63 515 q 54 561 56 549 q 53 583 53 574 q 83 665 53 638 q 160 703 113 693 q 257 713 207 713 q 327 710 293 713 q 388 704 361 707 q 415 713 414 701 q 424 740 415 724 q 443 758 428 758 q 459 751 451 758 q 467 728 467 743 q 461 701 467 714 l 728 700 l 736 697 q 738 682 739 688 q 714 663 738 678 q 658 625 690 649 q 600 568 626 601 q 579 557 589 557 q 576 560 576 557 q 586 578 576 567 q 596 590 588 581 q 617 617 604 600 q 627 632 624 626 q 631 642 631 638 q 581 653 631 653 q 538 654 558 653 q 497 656 518 656 q 476 656 488 656 q 454 653 465 656 q 444 649 449 651 q 435 639 440 647 q 383 546 417 615 q 317 396 350 476 l 357 403 q 436 413 397 410 q 510 415 475 415 q 535 415 522 415 q 558 414 547 415 q 602 398 589 413 q 615 368 615 383 q 611 350 615 358 q 600 342 607 342 q 599 351 593 343 q 603 365 603 360 q 587 383 603 378 q 546 388 571 388 q 465 381 511 388 q 383 366 419 374 q 335 356 346 358 l 297 347 q 254 222 271 279 q 238 138 238 164 q 267 69 238 96 q 343 30 297 43 q 436 17 389 17 q 567 42 501 17 q 675 119 633 68 q 683 126 679 126 q 685 122 685 126 q 682 113 685 119 q 672 97 679 106 q 646 71 660 83 q 617 47 632 58 q 499 -11 565 11 q 368 -33 433 -33 m 538 793 q 510 803 538 786 q 451 838 483 819 q 419 855 432 849 q 392 871 407 861 q 372 894 372 883 q 392 915 372 915 q 404 911 399 915 l 458 865 q 522 814 506 828 q 538 793 538 800 z "},"Ë":{"ha":625,"x_min":53,"x_max":739,"o":"m 368 -33 q 297 -26 332 -33 q 231 0 263 -18 q 186 49 201 17 q 171 107 171 81 q 191 206 171 147 q 242 332 211 265 q 210 324 225 328 q 185 319 196 321 q 178 319 182 319 q 172 318 175 318 q 153 329 153 318 q 156 338 153 333 q 160 346 158 343 q 183 367 167 357 q 214 378 200 376 q 239 382 225 379 q 267 386 253 385 q 341 537 304 464 q 396 660 378 610 l 226 654 q 113 630 150 653 q 76 550 76 607 q 88 485 76 518 q 110 424 100 451 q 110 422 110 422 q 111 419 111 421 q 103 408 111 408 q 85 435 94 408 q 71 485 79 454 q 58 536 63 515 q 54 561 56 549 q 53 583 53 574 q 83 665 53 638 q 160 703 113 693 q 257 713 207 713 q 327 710 293 713 q 388 704 361 707 q 415 713 414 701 q 424 740 415 724 q 443 758 428 758 q 459 751 451 758 q 467 728 467 743 q 461 701 467 714 l 728 700 l 736 697 q 738 682 739 688 q 714 663 738 678 q 658 625 690 649 q 600 568 626 601 q 579 557 589 557 q 576 560 576 557 q 586 578 576 567 q 596 590 588 581 q 617 617 604 600 q 627 632 624 626 q 631 642 631 638 q 581 653 631 653 q 538 654 558 653 q 497 656 518 656 q 476 656 488 656 q 454 653 465 656 q 444 649 449 651 q 435 639 440 647 q 383 546 417 615 q 317 396 350 476 l 357 403 q 436 413 397 410 q 510 415 475 415 q 535 415 522 415 q 558 414 547 415 q 602 398 589 413 q 615 368 615 383 q 611 350 615 358 q 600 342 607 342 q 599 351 593 343 q 603 365 603 360 q 587 383 603 378 q 546 388 571 388 q 465 381 511 388 q 383 366 419 374 q 335 356 346 358 l 297 347 q 254 222 271 279 q 238 138 238 164 q 267 69 238 96 q 343 30 297 43 q 436 17 389 17 q 567 42 501 17 q 675 119 633 68 q 683 126 679 126 q 685 122 685 126 q 682 113 685 119 q 672 97 679 106 q 646 71 660 83 q 617 47 632 58 q 499 -11 565 11 q 368 -33 433 -33 m 646 793 q 632 808 632 793 q 635 824 632 815 q 664 860 642 843 q 706 876 685 876 q 713 874 713 876 q 708 860 711 868 q 699 843 704 853 l 683 818 q 672 799 682 804 q 646 793 661 793 m 526 793 q 515 807 515 793 q 516 815 515 811 q 517 824 517 819 q 544 860 524 843 q 588 876 567 876 q 594 874 597 876 q 579 843 593 864 l 567 818 q 526 793 558 793 z "},"Ė":{"ha":625,"x_min":53,"x_max":739,"o":"m 368 -33 q 297 -26 332 -33 q 231 0 263 -18 q 186 49 201 17 q 171 107 171 81 q 191 206 171 147 q 242 332 211 265 q 210 324 225 328 q 185 319 196 321 q 178 319 182 319 q 172 318 175 318 q 153 329 153 318 q 156 338 153 333 q 160 346 158 343 q 183 367 167 357 q 214 378 200 376 q 239 382 225 379 q 267 386 253 385 q 341 537 304 464 q 396 660 378 610 l 226 654 q 113 630 150 653 q 76 550 76 607 q 88 485 76 518 q 110 424 100 451 q 110 422 110 422 q 111 419 111 421 q 103 408 111 408 q 85 435 94 408 q 71 485 79 454 q 58 536 63 515 q 54 561 56 549 q 53 583 53 574 q 83 665 53 638 q 160 703 113 693 q 257 713 207 713 q 327 710 293 713 q 388 704 361 707 q 415 713 414 701 q 424 740 415 724 q 443 758 428 758 q 459 751 451 758 q 467 728 467 743 q 461 701 467 714 l 728 700 l 736 697 q 738 682 739 688 q 714 663 738 678 q 658 625 690 649 q 600 568 626 601 q 579 557 589 557 q 576 560 576 557 q 586 578 576 567 q 596 590 588 581 q 617 617 604 600 q 627 632 624 626 q 631 642 631 638 q 581 653 631 653 q 538 654 558 653 q 497 656 518 656 q 476 656 488 656 q 454 653 465 656 q 444 649 449 651 q 435 639 440 647 q 383 546 417 615 q 317 396 350 476 l 357 403 q 436 413 397 410 q 510 415 475 415 q 535 415 522 415 q 558 414 547 415 q 602 398 589 413 q 615 368 615 383 q 611 350 615 358 q 600 342 607 342 q 599 351 593 343 q 603 365 603 360 q 587 383 603 378 q 546 388 571 388 q 465 381 511 388 q 383 366 419 374 q 335 356 346 358 l 297 347 q 254 222 271 279 q 238 138 238 164 q 267 69 238 96 q 343 30 297 43 q 436 17 389 17 q 567 42 501 17 q 675 119 633 68 q 683 126 679 126 q 685 122 685 126 q 682 113 685 119 q 672 97 679 106 q 646 71 660 83 q 617 47 632 58 q 499 -11 565 11 q 368 -33 433 -33 m 579 792 q 565 808 565 792 q 566 817 565 813 q 568 825 567 821 q 599 863 575 844 q 642 881 621 881 q 650 876 650 881 q 644 863 649 871 q 635 844 640 856 q 625 828 629 835 q 619 818 621 821 q 579 792 614 792 z "},"Ẹ":{"ha":625,"x_min":53,"x_max":739,"o":"m 368 -33 q 297 -26 332 -33 q 231 0 263 -18 q 186 49 201 17 q 171 107 171 81 q 191 206 171 147 q 242 332 211 265 q 210 324 225 328 q 185 319 196 321 q 178 319 182 319 q 172 318 175 318 q 153 329 153 318 q 156 338 153 333 q 160 346 158 343 q 183 367 167 357 q 214 378 200 376 q 239 382 225 379 q 267 386 253 385 q 341 537 304 464 q 396 660 378 610 l 226 654 q 113 630 150 653 q 76 550 76 607 q 88 485 76 518 q 110 424 100 451 q 110 422 110 422 q 111 419 111 421 q 103 408 111 408 q 85 435 94 408 q 71 485 79 454 q 58 536 63 515 q 54 561 56 549 q 53 583 53 574 q 83 665 53 638 q 160 703 113 693 q 257 713 207 713 q 327 710 293 713 q 388 704 361 707 q 415 713 414 701 q 424 740 415 724 q 443 758 428 758 q 459 751 451 758 q 467 728 467 743 q 461 701 467 714 l 728 700 l 736 697 q 738 682 739 688 q 714 663 738 678 q 658 625 690 649 q 600 568 626 601 q 579 557 589 557 q 576 560 576 557 q 586 578 576 567 q 596 590 588 581 q 617 617 604 600 q 627 632 624 626 q 631 642 631 638 q 581 653 631 653 q 538 654 558 653 q 497 656 518 656 q 476 656 488 656 q 454 653 465 656 q 444 649 449 651 q 435 639 440 647 q 383 546 417 615 q 317 396 350 476 l 357 403 q 436 413 397 410 q 510 415 475 415 q 535 415 522 415 q 558 414 547 415 q 602 398 589 413 q 615 368 615 383 q 611 350 615 358 q 600 342 607 342 q 599 351 593 343 q 603 365 603 360 q 587 383 603 378 q 546 388 571 388 q 465 381 511 388 q 383 366 419 374 q 335 356 346 358 l 297 347 q 254 222 271 279 q 238 138 238 164 q 267 69 238 96 q 343 30 297 43 q 436 17 389 17 q 567 42 501 17 q 675 119 633 68 q 683 126 679 126 q 685 122 685 126 q 682 113 685 119 q 672 97 679 106 q 646 71 660 83 q 617 47 632 58 q 499 -11 565 11 q 368 -33 433 -33 m 310 -189 q 296 -172 296 -189 q 297 -164 296 -168 q 299 -156 297 -160 q 329 -118 306 -136 q 372 -100 351 -100 q 381 -104 381 -100 q 375 -117 379 -110 q 365 -136 371 -125 q 356 -153 360 -146 q 350 -162 351 -160 q 310 -189 344 -189 z "},"È":{"ha":625,"x_min":53,"x_max":739,"o":"m 368 -33 q 297 -26 332 -33 q 231 0 263 -18 q 186 49 201 17 q 171 107 171 81 q 191 206 171 147 q 242 332 211 265 q 210 324 225 328 q 185 319 196 321 q 178 319 182 319 q 172 318 175 318 q 153 329 153 318 q 156 338 153 333 q 160 346 158 343 q 183 367 167 357 q 214 378 200 376 q 239 382 225 379 q 267 386 253 385 q 341 537 304 464 q 396 660 378 610 l 226 654 q 113 630 150 653 q 76 550 76 607 q 88 485 76 518 q 110 424 100 451 q 110 422 110 422 q 111 419 111 421 q 103 408 111 408 q 85 435 94 408 q 71 485 79 454 q 58 536 63 515 q 54 561 56 549 q 53 583 53 574 q 83 665 53 638 q 160 703 113 693 q 257 713 207 713 q 327 710 293 713 q 388 704 361 707 q 415 713 414 701 q 424 740 415 724 q 443 758 428 758 q 459 751 451 758 q 467 728 467 743 q 461 701 467 714 l 728 700 l 736 697 q 738 682 739 688 q 714 663 738 678 q 658 625 690 649 q 600 568 626 601 q 579 557 589 557 q 576 560 576 557 q 586 578 576 567 q 596 590 588 581 q 617 617 604 600 q 627 632 624 626 q 631 642 631 638 q 581 653 631 653 q 538 654 558 653 q 497 656 518 656 q 476 656 488 656 q 454 653 465 656 q 444 649 449 651 q 435 639 440 647 q 383 546 417 615 q 317 396 350 476 l 357 403 q 436 413 397 410 q 510 415 475 415 q 535 415 522 415 q 558 414 547 415 q 602 398 589 413 q 615 368 615 383 q 611 350 615 358 q 600 342 607 342 q 599 351 593 343 q 603 365 603 360 q 587 383 603 378 q 546 388 571 388 q 465 381 511 388 q 383 366 419 374 q 335 356 346 358 l 297 347 q 254 222 271 279 q 238 138 238 164 q 267 69 238 96 q 343 30 297 43 q 436 17 389 17 q 567 42 501 17 q 675 119 633 68 q 683 126 679 126 q 685 122 685 126 q 682 113 685 119 q 672 97 679 106 q 646 71 660 83 q 617 47 632 58 q 499 -11 565 11 q 368 -33 433 -33 m 635 793 q 620 795 635 789 q 584 813 606 801 q 540 832 563 824 q 506 847 519 842 q 478 860 493 851 q 456 881 456 871 l 456 883 q 472 904 456 901 q 485 901 476 904 l 544 861 q 614 815 594 829 q 635 793 633 800 z "},"Ẻ":{"ha":625,"x_min":53,"x_max":739,"o":"m 368 -33 q 297 -26 332 -33 q 231 0 263 -18 q 186 49 201 17 q 171 107 171 81 q 191 206 171 147 q 242 332 211 265 q 210 324 225 328 q 185 319 196 321 q 178 319 182 319 q 172 318 175 318 q 153 329 153 318 q 156 338 153 333 q 160 346 158 343 q 183 367 167 357 q 214 378 200 376 q 239 382 225 379 q 267 386 253 385 q 341 537 304 464 q 396 660 378 610 l 226 654 q 113 630 150 653 q 76 550 76 607 q 88 485 76 518 q 110 424 100 451 q 110 422 110 422 q 111 419 111 421 q 103 408 111 408 q 85 435 94 408 q 71 485 79 454 q 58 536 63 515 q 54 561 56 549 q 53 583 53 574 q 83 665 53 638 q 160 703 113 693 q 257 713 207 713 q 327 710 293 713 q 388 704 361 707 q 415 713 414 701 q 424 740 415 724 q 443 758 428 758 q 459 751 451 758 q 467 728 467 743 q 461 701 467 714 l 728 700 l 736 697 q 738 682 739 688 q 714 663 738 678 q 658 625 690 649 q 600 568 626 601 q 579 557 589 557 q 576 560 576 557 q 586 578 576 567 q 596 590 588 581 q 617 617 604 600 q 627 632 624 626 q 631 642 631 638 q 581 653 631 653 q 538 654 558 653 q 497 656 518 656 q 476 656 488 656 q 454 653 465 656 q 444 649 449 651 q 435 639 440 647 q 383 546 417 615 q 317 396 350 476 l 357 403 q 436 413 397 410 q 510 415 475 415 q 535 415 522 415 q 558 414 547 415 q 602 398 589 413 q 615 368 615 383 q 611 350 615 358 q 600 342 607 342 q 599 351 593 343 q 603 365 603 360 q 587 383 603 378 q 546 388 571 388 q 465 381 511 388 q 383 366 419 374 q 335 356 346 358 l 297 347 q 254 222 271 279 q 238 138 238 164 q 267 69 238 96 q 343 30 297 43 q 436 17 389 17 q 567 42 501 17 q 675 119 633 68 q 683 126 679 126 q 685 122 685 126 q 682 113 685 119 q 672 97 679 106 q 646 71 660 83 q 617 47 632 58 q 499 -11 565 11 q 368 -33 433 -33 m 585 793 q 606 832 594 818 q 626 856 618 846 q 637 874 633 864 q 642 889 640 883 l 642 893 q 621 911 642 911 q 576 904 590 911 q 553 897 563 897 q 549 906 546 897 q 585 929 553 915 q 649 943 617 943 q 693 906 701 943 q 689 889 693 897 q 662 853 679 867 q 626 828 644 840 q 597 794 608 817 q 590 790 596 792 q 585 793 583 789 z "},"Ȇ":{"ha":625,"x_min":53,"x_max":739,"o":"m 601 889 q 662 869 642 889 q 682 817 682 849 q 680 790 682 807 q 667 774 678 772 q 651 826 665 807 q 593 846 638 846 q 518 828 543 846 q 483 792 493 810 q 468 774 472 774 q 467 776 467 774 q 468 784 467 779 q 471 792 469 789 q 516 860 486 832 q 601 889 546 889 m 368 -33 q 297 -26 332 -33 q 231 0 263 -18 q 186 49 201 17 q 171 107 171 81 q 191 206 171 147 q 242 332 211 265 q 210 324 225 328 q 185 319 196 321 q 178 319 182 319 q 172 318 175 318 q 153 329 153 318 q 156 338 153 333 q 160 346 158 343 q 183 367 167 357 q 214 378 200 376 q 239 382 225 379 q 267 386 253 385 q 341 537 304 464 q 396 660 378 610 l 226 654 q 113 630 150 653 q 76 550 76 607 q 88 485 76 518 q 110 424 100 451 q 110 422 110 422 q 111 419 111 421 q 103 408 111 408 q 85 435 94 408 q 71 485 79 454 q 58 536 63 515 q 54 561 56 549 q 53 583 53 574 q 83 665 53 638 q 160 703 113 693 q 257 713 207 713 q 327 710 293 713 q 388 704 361 707 q 415 713 414 701 q 424 740 415 724 q 443 758 428 758 q 459 751 451 758 q 467 728 467 743 q 461 701 467 714 l 728 700 l 736 697 q 738 682 739 688 q 714 663 738 678 q 658 625 690 649 q 600 568 626 601 q 579 557 589 557 q 576 560 576 557 q 586 578 576 567 q 596 590 588 581 q 617 617 604 600 q 627 632 624 626 q 631 642 631 638 q 581 653 631 653 q 538 654 558 653 q 497 656 518 656 q 476 656 488 656 q 454 653 465 656 q 444 649 449 651 q 435 639 440 647 q 383 546 417 615 q 317 396 350 476 l 357 403 q 436 413 397 410 q 510 415 475 415 q 535 415 522 415 q 558 414 547 415 q 602 398 589 413 q 615 368 615 383 q 611 350 615 358 q 600 342 607 342 q 599 351 593 343 q 603 365 603 360 q 587 383 603 378 q 546 388 571 388 q 465 381 511 388 q 383 366 419 374 q 335 356 346 358 l 297 347 q 254 222 271 279 q 238 138 238 164 q 267 69 238 96 q 343 30 297 43 q 436 17 389 17 q 567 42 501 17 q 675 119 633 68 q 683 126 679 126 q 685 122 685 126 q 682 113 685 119 q 672 97 679 106 q 646 71 660 83 q 617 47 632 58 q 499 -11 565 11 q 368 -33 433 -33 z "},"Ē":{"ha":625,"x_min":53,"x_max":739,"o":"m 368 -33 q 297 -26 332 -33 q 231 0 263 -18 q 186 49 201 17 q 171 107 171 81 q 191 206 171 147 q 242 332 211 265 q 210 324 225 328 q 185 319 196 321 q 178 319 182 319 q 172 318 175 318 q 153 329 153 318 q 156 338 153 333 q 160 346 158 343 q 183 367 167 357 q 214 378 200 376 q 239 382 225 379 q 267 386 253 385 q 341 537 304 464 q 396 660 378 610 l 226 654 q 113 630 150 653 q 76 550 76 607 q 88 485 76 518 q 110 424 100 451 q 110 422 110 422 q 111 419 111 421 q 103 408 111 408 q 85 435 94 408 q 71 485 79 454 q 58 536 63 515 q 54 561 56 549 q 53 583 53 574 q 83 665 53 638 q 160 703 113 693 q 257 713 207 713 q 327 710 293 713 q 388 704 361 707 q 415 713 414 701 q 424 740 415 724 q 443 758 428 758 q 459 751 451 758 q 467 728 467 743 q 461 701 467 714 l 728 700 l 736 697 q 738 682 739 688 q 714 663 738 678 q 658 625 690 649 q 600 568 626 601 q 579 557 589 557 q 576 560 576 557 q 586 578 576 567 q 596 590 588 581 q 617 617 604 600 q 627 632 624 626 q 631 642 631 638 q 581 653 631 653 q 538 654 558 653 q 497 656 518 656 q 476 656 488 656 q 454 653 465 656 q 444 649 449 651 q 435 639 440 647 q 383 546 417 615 q 317 396 350 476 l 357 403 q 436 413 397 410 q 510 415 475 415 q 535 415 522 415 q 558 414 547 415 q 602 398 589 413 q 615 368 615 383 q 611 350 615 358 q 600 342 607 342 q 599 351 593 343 q 603 365 603 360 q 587 383 603 378 q 546 388 571 388 q 465 381 511 388 q 383 366 419 374 q 335 356 346 358 l 297 347 q 254 222 271 279 q 238 138 238 164 q 267 69 238 96 q 343 30 297 43 q 436 17 389 17 q 567 42 501 17 q 675 119 633 68 q 683 126 679 126 q 685 122 685 126 q 682 113 685 119 q 672 97 679 106 q 646 71 660 83 q 617 47 632 58 q 499 -11 565 11 q 368 -33 433 -33 m 457 793 q 459 817 457 803 q 471 831 461 831 l 693 825 q 692 811 693 815 q 679 806 690 807 l 457 793 z "},"Ŋ":{"ha":938,"x_min":1,"x_max":965,"o":"m 358 -476 q 282 -462 319 -476 q 221 -419 244 -449 q 197 -342 197 -389 q 205 -311 197 -318 q 213 -319 213 -304 q 251 -406 213 -379 q 343 -433 290 -433 q 454 -409 397 -433 q 546 -344 511 -385 q 608 -247 579 -304 q 661 -123 638 -189 q 703 9 685 -57 q 733 131 721 75 q 660 242 697 185 q 583 352 624 300 q 496 442 543 404 q 487 442 490 446 q 483 438 483 438 q 459 374 475 417 q 420 278 443 332 q 371 170 397 225 q 315 68 344 115 q 256 -10 285 21 q 161 -51 214 -51 q 97 -32 128 -51 q 43 22 65 -12 q 13 99 22 57 q 1 171 4 140 q 13 179 3 182 q 28 119 19 146 q 58 68 36 93 q 161 18 103 18 q 254 54 210 18 q 317 128 290 83 q 367 215 344 172 q 395 282 378 240 q 428 366 413 324 q 450 433 443 408 q 453 444 453 439 q 453 454 453 449 q 440 496 453 479 q 377 561 413 526 q 301 624 342 596 q 218 661 261 653 q 206 663 213 663 q 192 664 199 664 q 131 638 156 664 q 104 547 106 611 q 81 607 81 575 q 122 683 81 651 q 218 714 163 714 q 314 685 264 714 q 409 616 364 656 q 485 547 454 576 q 490 567 489 561 q 492 581 490 572 q 501 610 494 589 q 521 678 507 632 q 542 700 526 700 q 553 692 549 700 q 556 669 558 685 q 540 610 550 647 q 511 525 529 572 q 645 365 593 439 q 724 244 697 290 q 754 192 750 197 q 772 263 758 213 q 802 378 785 313 q 840 510 819 443 q 878 633 860 578 l 878 636 q 874 649 878 642 q 871 660 869 656 q 895 716 881 692 q 922 764 910 740 q 940 774 929 774 q 965 756 961 774 q 931 672 951 729 q 889 542 911 615 q 846 395 867 469 q 808 258 825 321 q 781 163 790 196 q 742 32 761 104 q 698 -116 722 -40 q 640 -261 674 -192 q 556 -383 606 -331 q 439 -462 507 -436 q 358 -476 406 -476 z "},"Ę":{"ha":625,"x_min":53,"x_max":739,"o":"m 368 -33 q 297 -26 332 -33 q 231 0 263 -18 q 186 49 201 17 q 171 107 171 81 q 191 206 171 147 q 242 332 211 265 q 210 324 225 328 q 185 319 196 321 q 178 319 182 319 q 172 318 175 318 q 153 329 153 318 q 156 338 153 333 q 160 346 158 343 q 183 367 167 357 q 214 378 200 376 q 239 382 225 379 q 267 386 253 385 q 341 537 304 464 q 396 660 378 610 l 226 654 q 113 630 150 653 q 76 550 76 607 q 88 485 76 518 q 110 424 100 451 q 110 422 110 422 q 111 419 111 421 q 103 408 111 408 q 85 435 94 408 q 71 485 79 454 q 58 536 63 515 q 54 561 56 549 q 53 583 53 574 q 83 665 53 638 q 160 703 113 693 q 257 713 207 713 q 327 710 293 713 q 388 704 361 707 q 415 713 414 701 q 424 740 415 724 q 443 758 428 758 q 459 751 451 758 q 467 728 467 743 q 461 701 467 714 l 728 700 l 736 697 q 738 682 739 688 q 714 663 738 678 q 658 625 690 649 q 600 568 626 601 q 579 557 589 557 q 576 560 576 557 q 586 578 576 567 q 596 590 588 581 q 617 617 604 600 q 627 632 624 626 q 631 642 631 638 q 581 653 631 653 q 538 654 558 653 q 497 656 518 656 q 476 656 488 656 q 454 653 465 656 q 444 649 449 651 q 435 639 440 647 q 383 546 417 615 q 317 396 350 476 l 357 403 q 436 413 397 410 q 510 415 475 415 q 535 415 522 415 q 558 414 547 415 q 602 398 589 413 q 615 368 615 383 q 611 350 615 358 q 600 342 607 342 q 599 351 593 343 q 603 365 603 360 q 587 383 603 378 q 546 388 571 388 q 465 381 511 388 q 383 366 419 374 q 335 356 346 358 l 297 347 q 254 222 271 279 q 238 138 238 164 q 267 69 238 96 q 343 30 297 43 q 436 17 389 17 q 567 42 501 17 q 675 119 633 68 q 683 126 679 126 q 685 122 685 126 q 682 113 685 119 q 672 97 679 106 q 646 71 660 83 q 617 47 632 58 q 499 -11 565 11 q 368 -33 433 -33 m 485 -183 q 441 -172 457 -183 q 431 -135 425 -161 q 456 -73 436 -107 q 500 -13 475 -39 q 547 14 525 13 q 551 7 551 14 q 499 -62 518 -28 q 479 -121 479 -97 q 515 -150 479 -150 q 567 -140 539 -150 q 592 -130 582 -133 q 603 -126 601 -126 q 615 -133 615 -126 q 603 -149 615 -142 q 575 -164 592 -157 q 485 -183 525 -183 z "},"Ð":{"ha":783,"x_min":1,"x_max":829,"o":"m 11 -19 q 10 -6 1 -19 q 31 24 14 1 q 82 46 47 46 q 105 44 93 46 q 131 43 117 43 q 165 49 157 43 q 188 72 174 56 q 210 119 190 76 q 257 226 231 163 q 197 222 222 224 q 156 219 172 219 q 107 225 122 219 q 169 267 117 267 q 222 267 196 267 q 274 265 247 267 q 331 399 301 329 q 387 529 361 468 q 428 629 413 590 q 375 644 408 636 q 303 659 342 653 q 231 665 265 665 q 197 663 213 665 q 169 656 181 661 q 76 529 76 613 q 89 463 76 499 q 119 394 101 426 q 160 328 138 361 q 158 319 163 322 q 151 322 154 317 q 104 388 129 356 q 62 456 79 421 q 44 532 44 492 q 45 547 44 539 q 47 563 46 554 q 116 679 63 644 q 250 718 169 714 q 315 714 276 719 q 390 700 353 708 q 450 683 428 692 q 517 780 478 744 q 617 815 557 815 q 638 811 626 815 q 653 799 649 807 q 654 794 654 797 q 648 788 654 789 q 639 792 642 786 q 633 796 639 793 q 617 799 626 799 q 557 778 582 799 q 516 728 532 758 q 489 669 500 699 q 610 612 550 649 q 719 526 669 575 q 799 416 769 476 q 829 286 829 356 q 793 172 829 225 q 692 78 757 118 q 543 15 628 38 q 361 -10 458 -8 q 211 -6 286 -11 q 65 0 136 -1 q 14 -18 28 0 q 11 -19 13 -19 m 374 15 q 579 51 490 17 q 719 142 668 85 q 769 274 769 200 q 742 384 769 329 q 671 487 715 439 q 574 569 626 535 q 469 618 521 604 q 383 413 419 500 q 318 265 346 326 q 368 264 343 264 q 418 264 393 264 l 417 261 q 419 254 419 261 q 392 243 417 244 q 319 235 369 239 l 304 232 q 257 124 275 164 q 229 65 239 85 q 211 33 219 46 q 249 27 222 32 q 310 19 276 22 q 374 15 343 15 z "},"Ẽ":{"ha":625,"x_min":53,"x_max":739,"o":"m 368 -33 q 297 -26 332 -33 q 231 0 263 -18 q 186 49 201 17 q 171 107 171 81 q 191 206 171 147 q 242 332 211 265 q 210 324 225 328 q 185 319 196 321 q 178 319 182 319 q 172 318 175 318 q 153 329 153 318 q 156 338 153 333 q 160 346 158 343 q 183 367 167 357 q 214 378 200 376 q 239 382 225 379 q 267 386 253 385 q 341 537 304 464 q 396 660 378 610 l 226 654 q 113 630 150 653 q 76 550 76 607 q 88 485 76 518 q 110 424 100 451 q 110 422 110 422 q 111 419 111 421 q 103 408 111 408 q 85 435 94 408 q 71 485 79 454 q 58 536 63 515 q 54 561 56 549 q 53 583 53 574 q 83 665 53 638 q 160 703 113 693 q 257 713 207 713 q 327 710 293 713 q 388 704 361 707 q 415 713 414 701 q 424 740 415 724 q 443 758 428 758 q 459 751 451 758 q 467 728 467 743 q 461 701 467 714 l 728 700 l 736 697 q 738 682 739 688 q 714 663 738 678 q 658 625 690 649 q 600 568 626 601 q 579 557 589 557 q 576 560 576 557 q 586 578 576 567 q 596 590 588 581 q 617 617 604 600 q 627 632 624 626 q 631 642 631 638 q 581 653 631 653 q 538 654 558 653 q 497 656 518 656 q 476 656 488 656 q 454 653 465 656 q 444 649 449 651 q 435 639 440 647 q 383 546 417 615 q 317 396 350 476 l 357 403 q 436 413 397 410 q 510 415 475 415 q 535 415 522 415 q 558 414 547 415 q 602 398 589 413 q 615 368 615 383 q 611 350 615 358 q 600 342 607 342 q 599 351 593 343 q 603 365 603 360 q 587 383 603 378 q 546 388 571 388 q 465 381 511 388 q 383 366 419 374 q 335 356 346 358 l 297 347 q 254 222 271 279 q 238 138 238 164 q 267 69 238 96 q 343 30 297 43 q 436 17 389 17 q 567 42 501 17 q 675 119 633 68 q 683 126 679 126 q 685 122 685 126 q 682 113 685 119 q 672 97 679 106 q 646 71 660 83 q 617 47 632 58 q 499 -11 565 11 q 368 -33 433 -33 m 653 790 q 614 803 633 790 q 576 827 594 815 q 536 839 557 839 q 506 831 515 839 q 488 813 496 824 q 481 798 482 804 q 476 792 479 792 q 474 804 474 792 q 483 833 474 814 q 508 870 493 853 q 540 888 524 888 q 578 874 558 888 q 617 848 597 861 q 656 835 638 835 q 684 840 668 835 q 711 863 700 846 q 719 874 715 869 q 726 878 722 878 q 729 869 733 878 q 712 838 724 857 q 685 805 700 819 q 653 790 669 790 z "},"F":{"ha":585,"x_min":68,"x_max":932,"o":"m 236 -29 q 155 0 188 -29 q 103 74 122 29 q 76 166 85 118 q 68 253 68 214 q 76 261 68 261 q 85 253 82 261 q 88 222 88 238 q 90 190 89 206 q 135 85 101 131 q 236 40 168 40 q 326 81 290 40 q 385 165 363 121 q 428 259 407 210 q 467 358 449 308 l 451 356 q 399 343 431 351 q 338 327 368 335 q 289 319 308 319 q 276 322 283 319 q 269 331 269 324 q 293 362 269 347 q 331 378 317 376 q 407 391 369 385 q 483 403 444 397 q 553 615 521 513 l 561 647 l 504 651 q 439 656 472 654 q 372 657 406 657 q 299 651 339 657 q 231 625 260 646 q 201 560 201 604 q 217 488 201 522 q 232 415 232 453 q 200 347 232 372 q 126 321 168 321 q 107 324 121 321 q 81 332 93 326 q 68 344 68 338 q 72 349 68 349 q 83 343 78 349 q 103 338 89 338 q 170 373 143 338 q 197 446 197 408 q 183 515 197 481 q 169 593 169 550 q 213 685 169 663 q 315 708 256 708 q 385 704 350 708 q 454 696 419 700 q 511 688 482 692 q 569 682 540 685 q 580 717 575 701 q 586 735 585 732 q 622 751 600 751 q 637 744 633 751 q 640 728 640 738 q 629 678 639 703 q 711 674 669 675 q 793 672 753 672 q 833 673 807 672 q 883 678 858 674 q 918 690 907 682 q 925 693 924 693 q 932 683 932 693 q 903 661 932 669 q 837 649 875 653 q 766 644 799 644 q 724 643 733 643 q 670 643 697 643 q 615 644 643 643 q 595 608 606 626 q 576 569 585 590 l 514 407 q 643 415 579 415 q 681 413 660 415 q 717 401 701 411 q 733 369 733 392 q 729 353 733 363 q 718 343 725 343 q 714 347 714 343 q 717 355 714 350 q 719 365 719 360 q 697 385 719 382 q 664 388 675 388 q 581 381 622 388 q 497 365 539 374 q 474 304 486 335 q 449 243 461 274 q 417 165 436 211 q 376 77 399 119 q 328 11 353 35 q 236 -29 288 -29 z "},"G":{"ha":779,"x_min":39,"x_max":832,"o":"m 275 -386 q 184 -358 224 -386 q 144 -261 144 -329 q 162 -174 144 -217 q 202 -99 179 -132 q 243 -51 225 -67 q 251 -51 249 -47 q 251 -58 254 -56 q 218 -115 235 -81 q 190 -189 201 -150 q 179 -262 179 -228 q 180 -276 179 -269 q 182 -289 181 -282 q 211 -350 189 -332 q 263 -368 233 -368 q 326 -351 293 -368 q 383 -312 358 -335 q 465 -210 422 -276 q 548 -65 508 -144 q 618 91 588 14 q 661 228 649 168 q 590 158 635 193 q 503 94 546 122 q 439 56 461 67 q 321 9 375 24 q 222 -6 267 -6 q 87 43 135 -6 q 39 168 39 92 q 71 302 39 229 q 171 450 103 375 q 315 577 233 519 q 490 669 396 635 q 683 704 583 704 q 756 682 735 704 q 772 711 767 696 q 788 733 778 726 q 811 743 799 743 q 832 728 832 743 q 826 714 832 721 q 753 603 782 657 q 701 483 725 549 q 688 472 697 472 q 678 477 682 472 q 678 490 674 482 q 693 527 683 503 q 715 578 703 551 q 728 625 728 607 q 701 667 728 657 q 638 676 675 676 q 472 638 551 676 q 326 540 392 600 q 214 418 260 481 q 145 294 167 351 q 124 193 124 238 q 169 81 124 121 q 288 42 215 42 q 433 78 354 42 q 489 110 454 88 q 560 163 524 133 q 625 224 597 192 q 658 283 653 256 q 610 289 643 289 q 501 278 557 289 q 481 269 486 275 q 475 256 475 263 q 479 242 475 249 q 486 231 483 235 l 486 229 q 483 220 486 225 q 478 219 481 215 q 453 245 468 226 q 431 278 439 264 q 424 297 424 289 q 453 318 424 318 q 483 317 461 318 q 532 317 504 317 q 624 317 574 317 q 721 319 675 318 q 797 320 767 319 q 826 321 826 321 q 831 314 832 319 q 828 304 831 308 q 794 303 813 304 q 755 287 775 303 q 714 224 735 271 q 655 71 683 154 q 592 -95 626 -12 q 510 -247 558 -178 q 390 -356 461 -315 q 336 -378 367 -369 q 275 -386 306 -386 z "},"Ğ":{"ha":779,"x_min":39,"x_max":832,"o":"m 275 -386 q 184 -358 224 -386 q 144 -261 144 -329 q 162 -174 144 -217 q 202 -99 179 -132 q 243 -51 225 -67 q 251 -51 249 -47 q 251 -58 254 -56 q 218 -115 235 -81 q 190 -189 201 -150 q 179 -262 179 -228 q 180 -276 179 -269 q 182 -289 181 -282 q 211 -350 189 -332 q 263 -368 233 -368 q 326 -351 293 -368 q 383 -312 358 -335 q 465 -210 422 -276 q 548 -65 508 -144 q 618 91 588 14 q 661 228 649 168 q 590 158 635 193 q 503 94 546 122 q 439 56 461 67 q 321 9 375 24 q 222 -6 267 -6 q 87 43 135 -6 q 39 168 39 92 q 71 302 39 229 q 171 450 103 375 q 315 577 233 519 q 490 669 396 635 q 683 704 583 704 q 756 682 735 704 q 772 711 767 696 q 788 733 778 726 q 811 743 799 743 q 832 728 832 743 q 826 714 832 721 q 753 603 782 657 q 701 483 725 549 q 688 472 697 472 q 678 477 682 472 q 678 490 674 482 q 693 527 683 503 q 715 578 703 551 q 728 625 728 607 q 701 667 728 657 q 638 676 675 676 q 472 638 551 676 q 326 540 392 600 q 214 418 260 481 q 145 294 167 351 q 124 193 124 238 q 169 81 124 121 q 288 42 215 42 q 433 78 354 42 q 489 110 454 88 q 560 163 524 133 q 625 224 597 192 q 658 283 653 256 q 610 289 643 289 q 501 278 557 289 q 481 269 486 275 q 475 256 475 263 q 479 242 475 249 q 486 231 483 235 l 486 229 q 483 220 486 225 q 478 219 481 215 q 453 245 468 226 q 431 278 439 264 q 424 297 424 289 q 453 318 424 318 q 483 317 461 318 q 532 317 504 317 q 624 317 574 317 q 721 319 675 318 q 797 320 767 319 q 826 321 826 321 q 831 314 832 319 q 828 304 831 308 q 794 303 813 304 q 755 287 775 303 q 714 224 735 271 q 655 71 683 154 q 592 -95 626 -12 q 510 -247 558 -178 q 390 -356 461 -315 q 336 -378 367 -369 q 275 -386 306 -386 m 671 803 q 611 823 632 803 q 590 875 590 843 q 592 903 590 886 q 606 918 594 919 q 622 865 607 885 q 679 846 636 846 q 755 864 729 846 q 790 900 781 882 q 804 918 800 918 q 806 915 806 918 q 804 908 806 913 q 801 900 803 903 q 757 831 788 860 q 671 803 726 803 z "},"Ǧ":{"ha":779,"x_min":39,"x_max":832,"o":"m 565 936 q 594 925 572 939 q 631 900 615 911 q 658 883 642 892 q 682 867 674 874 q 705 877 692 872 q 728 888 718 882 q 792 919 772 910 q 821 933 811 929 q 822 929 824 933 q 799 906 817 921 q 754 871 781 890 q 719 844 736 857 q 681 814 701 832 q 667 804 671 804 q 657 814 664 804 q 641 838 654 819 q 617 869 628 857 q 585 906 604 885 q 563 931 565 928 q 565 936 558 936 m 275 -386 q 184 -358 224 -386 q 144 -261 144 -329 q 162 -174 144 -217 q 202 -99 179 -132 q 243 -51 225 -67 q 251 -51 249 -47 q 251 -58 254 -56 q 218 -115 235 -81 q 190 -189 201 -150 q 179 -262 179 -228 q 180 -276 179 -269 q 182 -289 181 -282 q 211 -350 189 -332 q 263 -368 233 -368 q 326 -351 293 -368 q 383 -312 358 -335 q 465 -210 422 -276 q 548 -65 508 -144 q 618 91 588 14 q 661 228 649 168 q 590 158 635 193 q 503 94 546 122 q 439 56 461 67 q 321 9 375 24 q 222 -6 267 -6 q 87 43 135 -6 q 39 168 39 92 q 71 302 39 229 q 171 450 103 375 q 315 577 233 519 q 490 669 396 635 q 683 704 583 704 q 756 682 735 704 q 772 711 767 696 q 788 733 778 726 q 811 743 799 743 q 832 728 832 743 q 826 714 832 721 q 753 603 782 657 q 701 483 725 549 q 688 472 697 472 q 678 477 682 472 q 678 490 674 482 q 693 527 683 503 q 715 578 703 551 q 728 625 728 607 q 701 667 728 657 q 638 676 675 676 q 472 638 551 676 q 326 540 392 600 q 214 418 260 481 q 145 294 167 351 q 124 193 124 238 q 169 81 124 121 q 288 42 215 42 q 433 78 354 42 q 489 110 454 88 q 560 163 524 133 q 625 224 597 192 q 658 283 653 256 q 610 289 643 289 q 501 278 557 289 q 481 269 486 275 q 475 256 475 263 q 479 242 475 249 q 486 231 483 235 l 486 229 q 483 220 486 225 q 478 219 481 215 q 453 245 468 226 q 431 278 439 264 q 424 297 424 289 q 453 318 424 318 q 483 317 461 318 q 532 317 504 317 q 624 317 574 317 q 721 319 675 318 q 797 320 767 319 q 826 321 826 321 q 831 314 832 319 q 828 304 831 308 q 794 303 813 304 q 755 287 775 303 q 714 224 735 271 q 655 71 683 154 q 592 -95 626 -12 q 510 -247 558 -178 q 390 -356 461 -315 q 336 -378 367 -369 q 275 -386 306 -386 z "},"Ĝ":{"ha":779,"x_min":39,"x_max":832,"o":"m 275 -386 q 184 -358 224 -386 q 144 -261 144 -329 q 162 -174 144 -217 q 202 -99 179 -132 q 243 -51 225 -67 q 251 -51 249 -47 q 251 -58 254 -56 q 218 -115 235 -81 q 190 -189 201 -150 q 179 -262 179 -228 q 180 -276 179 -269 q 182 -289 181 -282 q 211 -350 189 -332 q 263 -368 233 -368 q 326 -351 293 -368 q 383 -312 358 -335 q 465 -210 422 -276 q 548 -65 508 -144 q 618 91 588 14 q 661 228 649 168 q 590 158 635 193 q 503 94 546 122 q 439 56 461 67 q 321 9 375 24 q 222 -6 267 -6 q 87 43 135 -6 q 39 168 39 92 q 71 302 39 229 q 171 450 103 375 q 315 577 233 519 q 490 669 396 635 q 683 704 583 704 q 756 682 735 704 q 772 711 767 696 q 788 733 778 726 q 811 743 799 743 q 832 728 832 743 q 826 714 832 721 q 753 603 782 657 q 701 483 725 549 q 688 472 697 472 q 678 477 682 472 q 678 490 674 482 q 693 527 683 503 q 715 578 703 551 q 728 625 728 607 q 701 667 728 657 q 638 676 675 676 q 472 638 551 676 q 326 540 392 600 q 214 418 260 481 q 145 294 167 351 q 124 193 124 238 q 169 81 124 121 q 288 42 215 42 q 433 78 354 42 q 489 110 454 88 q 560 163 524 133 q 625 224 597 192 q 658 283 653 256 q 610 289 643 289 q 501 278 557 289 q 481 269 486 275 q 475 256 475 263 q 479 242 475 249 q 486 231 483 235 l 486 229 q 483 220 486 225 q 478 219 481 215 q 453 245 468 226 q 431 278 439 264 q 424 297 424 289 q 453 318 424 318 q 483 317 461 318 q 532 317 504 317 q 624 317 574 317 q 721 319 675 318 q 797 320 767 319 q 826 321 826 321 q 831 314 832 319 q 828 304 831 308 q 794 303 813 304 q 755 287 775 303 q 714 224 735 271 q 655 71 683 154 q 592 -95 626 -12 q 510 -247 558 -178 q 390 -356 461 -315 q 336 -378 367 -369 q 275 -386 306 -386 m 799 796 q 771 808 793 794 q 733 832 749 821 q 706 850 722 840 q 682 865 690 860 q 660 855 672 860 q 636 844 647 850 q 574 813 593 822 q 543 799 554 803 q 542 803 540 799 q 565 826 547 811 q 610 861 583 842 q 646 888 629 876 q 683 918 663 900 q 697 928 693 928 q 707 918 700 928 q 724 894 710 913 q 747 863 738 875 q 780 826 760 847 q 801 801 800 804 q 799 796 806 796 z "},"Ģ":{"ha":779,"x_min":39,"x_max":832,"o":"m 254 -462 q 289 -490 289 -462 q 288 -498 289 -494 q 286 -506 288 -501 q 276 -540 282 -521 q 251 -587 269 -560 q 214 -631 238 -610 q 168 -657 190 -651 q 192 -630 179 -642 q 219 -592 206 -618 q 232 -560 231 -574 q 233 -535 233 -546 q 225 -515 233 -524 q 210 -497 217 -506 q 254 -462 224 -462 m 275 -386 q 184 -358 224 -386 q 144 -261 144 -329 q 162 -174 144 -217 q 202 -99 179 -132 q 243 -51 225 -67 q 251 -51 249 -47 q 251 -58 254 -56 q 218 -115 235 -81 q 190 -189 201 -150 q 179 -262 179 -228 q 180 -276 179 -269 q 182 -289 181 -282 q 211 -350 189 -332 q 263 -368 233 -368 q 326 -351 293 -368 q 383 -312 358 -335 q 465 -210 422 -276 q 548 -65 508 -144 q 618 91 588 14 q 661 228 649 168 q 590 158 635 193 q 503 94 546 122 q 439 56 461 67 q 321 9 375 24 q 222 -6 267 -6 q 87 43 135 -6 q 39 168 39 92 q 71 302 39 229 q 171 450 103 375 q 315 577 233 519 q 490 669 396 635 q 683 704 583 704 q 756 682 735 704 q 772 711 767 696 q 788 733 778 726 q 811 743 799 743 q 832 728 832 743 q 826 714 832 721 q 753 603 782 657 q 701 483 725 549 q 688 472 697 472 q 678 477 682 472 q 678 490 674 482 q 693 527 683 503 q 715 578 703 551 q 728 625 728 607 q 701 667 728 657 q 638 676 675 676 q 472 638 551 676 q 326 540 392 600 q 214 418 260 481 q 145 294 167 351 q 124 193 124 238 q 169 81 124 121 q 288 42 215 42 q 433 78 354 42 q 489 110 454 88 q 560 163 524 133 q 625 224 597 192 q 658 283 653 256 q 610 289 643 289 q 501 278 557 289 q 481 269 486 275 q 475 256 475 263 q 479 242 475 249 q 486 231 483 235 l 486 229 q 483 220 486 225 q 478 219 481 215 q 453 245 468 226 q 431 278 439 264 q 424 297 424 289 q 453 318 424 318 q 483 317 461 318 q 532 317 504 317 q 624 317 574 317 q 721 319 675 318 q 797 320 767 319 q 826 321 826 321 q 831 314 832 319 q 828 304 831 308 q 794 303 813 304 q 755 287 775 303 q 714 224 735 271 q 655 71 683 154 q 592 -95 626 -12 q 510 -247 558 -178 q 390 -356 461 -315 q 336 -378 367 -369 q 275 -386 306 -386 z "},"Ġ":{"ha":779,"x_min":39,"x_max":832,"o":"m 275 -386 q 184 -358 224 -386 q 144 -261 144 -329 q 162 -174 144 -217 q 202 -99 179 -132 q 243 -51 225 -67 q 251 -51 249 -47 q 251 -58 254 -56 q 218 -115 235 -81 q 190 -189 201 -150 q 179 -262 179 -228 q 180 -276 179 -269 q 182 -289 181 -282 q 211 -350 189 -332 q 263 -368 233 -368 q 326 -351 293 -368 q 383 -312 358 -335 q 465 -210 422 -276 q 548 -65 508 -144 q 618 91 588 14 q 661 228 649 168 q 590 158 635 193 q 503 94 546 122 q 439 56 461 67 q 321 9 375 24 q 222 -6 267 -6 q 87 43 135 -6 q 39 168 39 92 q 71 302 39 229 q 171 450 103 375 q 315 577 233 519 q 490 669 396 635 q 683 704 583 704 q 756 682 735 704 q 772 711 767 696 q 788 733 778 726 q 811 743 799 743 q 832 728 832 743 q 826 714 832 721 q 753 603 782 657 q 701 483 725 549 q 688 472 697 472 q 678 477 682 472 q 678 490 674 482 q 693 527 683 503 q 715 578 703 551 q 728 625 728 607 q 701 667 728 657 q 638 676 675 676 q 472 638 551 676 q 326 540 392 600 q 214 418 260 481 q 145 294 167 351 q 124 193 124 238 q 169 81 124 121 q 288 42 215 42 q 433 78 354 42 q 489 110 454 88 q 560 163 524 133 q 625 224 597 192 q 658 283 653 256 q 610 289 643 289 q 501 278 557 289 q 481 269 486 275 q 475 256 475 263 q 479 242 475 249 q 486 231 483 235 l 486 229 q 483 220 486 225 q 478 219 481 215 q 453 245 468 226 q 431 278 439 264 q 424 297 424 289 q 453 318 424 318 q 483 317 461 318 q 532 317 504 317 q 624 317 574 317 q 721 319 675 318 q 797 320 767 319 q 826 321 826 321 q 831 314 832 319 q 828 304 831 308 q 794 303 813 304 q 755 287 775 303 q 714 224 735 271 q 655 71 683 154 q 592 -95 626 -12 q 510 -247 558 -178 q 390 -356 461 -315 q 336 -378 367 -369 q 275 -386 306 -386 m 663 817 q 649 833 649 817 q 649 842 649 838 q 651 850 650 846 q 682 888 658 869 q 725 906 704 906 q 733 901 733 906 q 728 888 732 896 q 718 869 724 881 q 708 853 713 860 q 703 843 704 846 q 663 817 697 817 z "},"ẞ":{"ha":754,"x_min":38,"x_max":635,"o":"m 44 -94 q 38 -85 38 -94 q 44 -58 38 -76 q 113 141 81 36 q 178 349 144 246 q 252 541 211 453 q 349 689 293 629 q 410 739 376 721 q 488 758 444 757 q 594 714 553 758 q 635 607 635 669 q 596 492 635 547 q 546 446 579 468 q 475 409 513 424 q 406 390 438 394 q 400 371 400 383 q 418 326 400 350 q 458 277 436 301 q 494 232 481 253 q 523 177 514 204 q 532 125 532 150 q 503 40 532 76 q 428 -18 474 3 q 335 -39 383 -39 q 244 -16 288 -39 q 176 58 200 7 q 174 72 174 64 q 188 96 174 90 q 199 93 201 101 q 244 12 203 38 q 332 -14 285 -14 q 431 17 386 -14 q 475 104 475 47 q 456 194 475 154 q 413 266 438 235 q 374 319 389 297 q 350 379 350 357 q 361 401 350 397 q 432 430 393 410 q 506 477 471 450 q 557 532 540 504 q 577 577 571 553 q 583 625 583 601 q 560 704 583 669 q 492 739 538 739 q 424 721 456 739 q 368 672 393 703 q 299 552 331 629 q 240 383 268 475 q 188 202 213 290 q 138 47 163 114 q 83 -58 110 -22 q 44 -94 56 -94 z "},"H":{"ha":829,"x_min":35,"x_max":988,"o":"m 714 -15 q 669 3 682 -15 q 656 53 656 22 q 661 101 656 75 q 675 156 667 128 q 707 244 689 203 q 744 326 725 286 q 594 308 669 321 q 446 281 519 296 l 414 274 q 390 219 403 246 q 365 167 376 192 q 321 90 347 131 q 260 22 294 50 q 185 -6 226 -6 q 101 29 135 -6 q 51 117 68 64 q 35 225 35 171 q 35 239 35 232 q 36 251 35 246 q 45 263 39 258 q 50 256 51 267 q 63 175 51 218 q 103 102 75 132 q 176 72 131 72 q 233 84 206 72 q 288 125 261 96 q 378 268 338 185 q 366 266 372 267 q 354 265 360 265 q 344 265 349 265 q 338 264 340 264 q 311 276 311 264 q 319 292 311 283 q 353 313 331 303 q 394 324 375 322 q 404 325 401 324 q 457 452 435 392 q 492 546 479 513 q 512 601 506 582 q 519 622 518 619 l 519 629 q 530 689 519 671 q 558 721 540 707 l 550 718 q 445 685 500 701 q 343 653 390 668 q 264 626 296 638 q 168 510 168 592 q 184 444 168 476 q 216 381 200 413 q 232 318 232 350 q 203 250 232 275 q 144 225 175 225 q 115 233 128 225 q 113 242 110 238 q 121 243 115 247 q 132 240 124 240 q 171 269 151 240 q 190 342 190 299 q 178 406 190 378 q 152 465 165 435 q 139 538 139 496 q 161 610 139 583 q 217 653 183 638 q 289 676 251 668 q 357 689 326 683 q 408 699 376 692 q 473 717 439 707 q 535 740 507 728 q 576 763 564 751 q 586 767 583 767 q 593 758 593 767 q 586 742 593 753 q 590 744 588 742 q 610 762 600 753 q 629 783 619 771 q 636 786 635 786 q 641 772 644 786 q 630 742 638 758 q 615 721 622 726 q 594 695 606 711 q 565 638 583 679 q 539 575 553 611 q 506 494 525 539 l 438 328 q 599 348 518 338 q 760 360 679 358 l 783 411 q 830 515 811 472 q 849 568 849 558 q 840 571 846 568 q 835 582 835 574 q 847 615 835 589 q 875 669 860 640 q 897 710 890 697 q 931 728 906 718 q 972 744 956 738 q 981 747 978 747 q 988 741 988 747 q 985 732 988 735 q 958 703 972 722 q 933 667 943 685 q 860 515 894 593 q 797 360 826 438 q 817 359 807 360 q 838 358 826 358 q 900 342 881 357 q 919 313 919 328 q 913 294 919 304 q 898 287 907 286 q 894 296 889 288 q 900 310 900 303 q 879 327 900 322 q 826 332 858 332 q 807 332 817 332 q 786 331 797 332 l 778 306 q 755 235 768 278 q 731 151 742 193 q 721 76 721 108 q 727 42 721 56 q 747 29 733 29 q 789 44 764 29 q 842 83 814 60 q 890 131 869 107 q 909 151 893 133 q 944 191 925 169 q 971 224 963 213 q 974 222 972 225 q 972 211 976 217 l 899 122 q 867 87 889 110 q 819 40 846 64 q 765 1 793 17 q 714 -15 738 -15 z "},"Ħ":{"ha":829,"x_min":35,"x_max":1015,"o":"m 714 -15 q 669 3 682 -15 q 656 53 656 22 q 661 101 656 75 q 675 156 667 128 q 707 244 689 203 q 744 326 725 286 q 594 308 669 321 q 446 281 519 296 l 414 274 q 390 219 403 246 q 365 167 376 192 q 321 90 347 131 q 260 22 294 50 q 185 -6 226 -6 q 101 29 135 -6 q 51 117 68 64 q 35 225 35 171 q 35 239 35 232 q 36 251 35 246 q 45 263 39 258 q 50 256 51 267 q 63 175 51 218 q 103 102 75 132 q 176 72 131 72 q 233 84 206 72 q 288 125 261 96 q 378 268 338 185 q 366 266 372 267 q 354 265 360 265 q 344 265 349 265 q 338 264 340 264 q 311 276 311 264 q 319 292 311 283 q 353 313 331 303 q 394 324 375 322 q 404 325 401 324 q 457 452 435 392 q 492 546 479 513 q 512 601 506 582 q 519 622 518 619 l 519 629 q 530 689 519 671 q 558 721 540 707 l 550 718 q 445 685 500 701 q 343 653 390 668 q 264 626 296 638 q 168 510 168 592 q 184 444 168 476 q 216 381 200 413 q 232 318 232 350 q 203 250 232 275 q 144 225 175 225 q 115 233 128 225 q 113 242 110 238 q 121 243 115 247 q 132 240 124 240 q 171 269 151 240 q 190 342 190 299 q 178 406 190 378 q 152 465 165 435 q 139 538 139 496 q 161 610 139 583 q 217 653 183 638 q 289 676 251 668 q 357 689 326 683 q 408 699 376 692 q 473 717 439 707 q 535 740 507 728 q 576 763 564 751 q 586 767 583 767 q 593 758 593 767 q 586 742 593 753 q 590 744 588 742 q 610 762 600 753 q 629 783 619 771 q 636 786 635 786 q 641 772 644 786 q 630 742 638 758 q 615 721 622 726 q 594 695 606 711 q 565 638 583 679 q 539 575 553 611 q 506 494 525 539 l 438 328 q 599 348 518 338 q 760 360 679 358 l 783 411 q 830 515 811 472 q 849 568 849 558 q 840 571 846 568 q 835 582 835 574 q 847 615 835 589 q 875 669 860 640 q 897 710 890 697 q 931 728 906 718 q 972 744 956 738 q 981 747 978 747 q 988 741 988 747 q 985 732 988 735 q 958 703 972 722 q 933 667 943 685 q 860 515 894 593 q 797 360 826 438 q 817 359 807 360 q 838 358 826 358 q 900 342 881 357 q 919 313 919 328 q 913 294 919 304 q 898 287 907 286 q 894 296 889 288 q 900 310 900 303 q 879 327 900 322 q 826 332 858 332 q 807 332 817 332 q 786 331 797 332 l 778 306 q 755 235 768 278 q 731 151 742 193 q 721 76 721 108 q 727 42 721 56 q 747 29 733 29 q 789 44 764 29 q 842 83 814 60 q 890 131 869 107 q 909 151 893 133 q 944 191 925 169 q 971 224 963 213 q 974 222 972 225 q 972 211 976 217 l 899 122 q 867 87 889 110 q 819 40 846 64 q 765 1 793 17 q 714 -15 738 -15 m 439 501 q 338 507 354 501 q 400 549 347 549 q 514 547 457 549 q 626 544 571 544 q 706 543 643 544 q 875 539 768 542 l 958 538 l 1004 538 q 1015 531 1015 536 q 978 515 1015 519 q 943 513 971 514 q 868 510 915 511 l 649 506 q 528 503 581 504 q 439 501 475 501 z "},"Ĥ":{"ha":829,"x_min":35,"x_max":988,"o":"m 714 -15 q 669 3 682 -15 q 656 53 656 22 q 661 101 656 75 q 675 156 667 128 q 707 244 689 203 q 744 326 725 286 q 594 308 669 321 q 446 281 519 296 l 414 274 q 390 219 403 246 q 365 167 376 192 q 321 90 347 131 q 260 22 294 50 q 185 -6 226 -6 q 101 29 135 -6 q 51 117 68 64 q 35 225 35 171 q 35 239 35 232 q 36 251 35 246 q 45 263 39 258 q 50 256 51 267 q 63 175 51 218 q 103 102 75 132 q 176 72 131 72 q 233 84 206 72 q 288 125 261 96 q 378 268 338 185 q 366 266 372 267 q 354 265 360 265 q 344 265 349 265 q 338 264 340 264 q 311 276 311 264 q 319 292 311 283 q 353 313 331 303 q 394 324 375 322 q 404 325 401 324 q 457 452 435 392 q 492 546 479 513 q 512 601 506 582 q 519 622 518 619 l 519 629 q 530 689 519 671 q 558 721 540 707 l 550 718 q 445 685 500 701 q 343 653 390 668 q 264 626 296 638 q 168 510 168 592 q 184 444 168 476 q 216 381 200 413 q 232 318 232 350 q 203 250 232 275 q 144 225 175 225 q 115 233 128 225 q 113 242 110 238 q 121 243 115 247 q 132 240 124 240 q 171 269 151 240 q 190 342 190 299 q 178 406 190 378 q 152 465 165 435 q 139 538 139 496 q 161 610 139 583 q 217 653 183 638 q 289 676 251 668 q 357 689 326 683 q 408 699 376 692 q 473 717 439 707 q 535 740 507 728 q 576 763 564 751 q 586 767 583 767 q 593 758 593 767 q 586 742 593 753 q 590 744 588 742 q 610 762 600 753 q 629 783 619 771 q 636 786 635 786 q 641 772 644 786 q 630 742 638 758 q 615 721 622 726 q 594 695 606 711 q 565 638 583 679 q 539 575 553 611 q 506 494 525 539 l 438 328 q 599 348 518 338 q 760 360 679 358 l 783 411 q 830 515 811 472 q 849 568 849 558 q 840 571 846 568 q 835 582 835 574 q 847 615 835 589 q 875 669 860 640 q 897 710 890 697 q 931 728 906 718 q 972 744 956 738 q 981 747 978 747 q 988 741 988 747 q 985 732 988 735 q 958 703 972 722 q 933 667 943 685 q 860 515 894 593 q 797 360 826 438 q 817 359 807 360 q 838 358 826 358 q 900 342 881 357 q 919 313 919 328 q 913 294 919 304 q 898 287 907 286 q 894 296 889 288 q 900 310 900 303 q 879 327 900 322 q 826 332 858 332 q 807 332 817 332 q 786 331 797 332 l 778 306 q 755 235 768 278 q 731 151 742 193 q 721 76 721 108 q 727 42 721 56 q 747 29 733 29 q 789 44 764 29 q 842 83 814 60 q 890 131 869 107 q 909 151 893 133 q 944 191 925 169 q 971 224 963 213 q 974 222 972 225 q 972 211 976 217 l 899 122 q 867 87 889 110 q 819 40 846 64 q 765 1 793 17 q 714 -15 738 -15 m 935 813 q 907 824 929 811 q 869 849 885 838 q 842 867 858 857 q 818 882 826 876 q 796 872 808 876 q 772 861 783 867 q 710 829 729 839 q 679 815 690 819 q 678 819 676 815 q 701 843 683 828 q 746 878 719 858 q 782 905 765 893 q 819 935 799 917 q 833 944 829 944 q 843 935 836 944 q 860 910 846 929 q 883 879 874 892 q 916 842 896 864 q 938 818 936 821 q 935 813 942 813 z "},"I":{"ha":447,"x_min":19,"x_max":601,"o":"m 182 -51 q 108 -27 139 -51 q 58 36 78 -3 q 29 117 39 75 q 19 194 19 160 q 21 209 19 200 q 29 218 22 218 q 32 214 32 218 q 35 190 32 203 q 40 164 38 176 q 63 100 47 132 q 106 47 79 68 q 169 26 132 26 q 229 40 203 26 q 276 79 256 54 q 355 212 321 133 q 417 374 389 290 q 465 524 444 457 q 472 545 467 528 q 483 580 478 563 q 489 600 489 597 q 492 648 490 625 q 513 689 493 671 q 412 656 463 672 q 313 621 361 640 q 258 586 282 608 q 235 528 235 564 q 248 474 235 500 q 274 422 261 447 q 286 369 286 397 q 266 318 286 342 q 217 294 246 294 q 200 297 211 294 q 189 306 189 300 q 193 310 189 310 q 197 308 194 310 q 204 306 200 306 q 231 322 221 306 q 247 357 242 338 q 253 389 253 376 q 238 449 253 421 q 209 506 224 478 q 194 563 194 533 q 222 622 194 600 q 294 658 250 644 q 388 679 339 671 q 480 697 436 688 q 549 721 524 706 q 575 745 558 726 q 597 764 592 764 q 601 756 601 764 q 594 726 601 744 q 579 699 588 707 q 553 660 563 681 q 533 615 543 639 q 507 544 519 581 q 482 472 494 508 q 420 297 450 385 q 353 122 390 208 q 315 49 339 89 q 257 -22 290 8 q 182 -51 224 -51 z "},"Í":{"ha":447,"x_min":19,"x_max":708,"o":"m 182 -51 q 108 -27 139 -51 q 58 36 78 -3 q 29 117 39 75 q 19 194 19 160 q 21 209 19 200 q 29 218 22 218 q 32 214 32 218 q 35 190 32 203 q 40 164 38 176 q 63 100 47 132 q 106 47 79 68 q 169 26 132 26 q 229 40 203 26 q 276 79 256 54 q 355 212 321 133 q 417 374 389 290 q 465 524 444 457 q 472 545 467 528 q 483 580 478 563 q 489 600 489 597 q 492 648 490 625 q 513 689 493 671 q 412 656 463 672 q 313 621 361 640 q 258 586 282 608 q 235 528 235 564 q 248 474 235 500 q 274 422 261 447 q 286 369 286 397 q 266 318 286 342 q 217 294 246 294 q 200 297 211 294 q 189 306 189 300 q 193 310 189 310 q 197 308 194 310 q 204 306 200 306 q 231 322 221 306 q 247 357 242 338 q 253 389 253 376 q 238 449 253 421 q 209 506 224 478 q 194 563 194 533 q 222 622 194 600 q 294 658 250 644 q 388 679 339 671 q 480 697 436 688 q 549 721 524 706 q 575 745 558 726 q 597 764 592 764 q 601 756 601 764 q 594 726 601 744 q 579 699 588 707 q 553 660 563 681 q 533 615 543 639 q 507 544 519 581 q 482 472 494 508 q 420 297 450 385 q 353 122 390 208 q 315 49 339 89 q 257 -22 290 8 q 182 -51 224 -51 m 529 840 q 550 862 531 847 q 619 908 569 876 l 679 949 q 692 951 688 951 q 708 931 708 949 q 686 907 708 919 q 658 894 672 899 q 624 879 644 889 q 581 860 603 871 q 544 842 558 849 q 529 840 529 836 z "},"Ĭ":{"ha":447,"x_min":19,"x_max":724,"o":"m 182 -51 q 108 -27 139 -51 q 58 36 78 -3 q 29 117 39 75 q 19 194 19 160 q 21 209 19 200 q 29 218 22 218 q 32 214 32 218 q 35 190 32 203 q 40 164 38 176 q 63 100 47 132 q 106 47 79 68 q 169 26 132 26 q 229 40 203 26 q 276 79 256 54 q 355 212 321 133 q 417 374 389 290 q 465 524 444 457 q 472 545 467 528 q 483 580 478 563 q 489 600 489 597 q 492 648 490 625 q 513 689 493 671 q 412 656 463 672 q 313 621 361 640 q 258 586 282 608 q 235 528 235 564 q 248 474 235 500 q 274 422 261 447 q 286 369 286 397 q 266 318 286 342 q 217 294 246 294 q 200 297 211 294 q 189 306 189 300 q 193 310 189 310 q 197 308 194 310 q 204 306 200 306 q 231 322 221 306 q 247 357 242 338 q 253 389 253 376 q 238 449 253 421 q 209 506 224 478 q 194 563 194 533 q 222 622 194 600 q 294 658 250 644 q 388 679 339 671 q 480 697 436 688 q 549 721 524 706 q 575 745 558 726 q 597 764 592 764 q 601 756 601 764 q 594 726 601 744 q 579 699 588 707 q 553 660 563 681 q 533 615 543 639 q 507 544 519 581 q 482 472 494 508 q 420 297 450 385 q 353 122 390 208 q 315 49 339 89 q 257 -22 290 8 q 182 -51 224 -51 m 589 825 q 529 845 550 825 q 508 897 508 865 q 510 925 508 908 q 524 940 513 942 q 540 888 525 907 q 597 868 554 868 q 673 886 647 868 q 708 922 699 904 q 722 940 718 940 q 724 938 724 940 q 722 930 724 935 q 719 922 721 925 q 675 853 706 882 q 589 825 644 825 z "},"Ǐ":{"ha":447,"x_min":19,"x_max":742,"o":"m 483 958 q 512 947 490 961 q 549 922 533 933 q 576 905 560 914 q 600 889 592 896 q 623 899 610 894 q 646 910 636 904 q 710 942 690 932 q 739 956 729 951 q 740 951 742 956 q 717 928 735 943 q 672 893 699 913 q 637 867 654 879 q 599 836 619 854 q 585 826 589 826 q 575 836 582 826 q 559 860 572 842 q 535 892 546 879 q 503 928 522 907 q 481 953 483 950 q 483 958 476 958 m 182 -51 q 108 -27 139 -51 q 58 36 78 -3 q 29 117 39 75 q 19 194 19 160 q 21 209 19 200 q 29 218 22 218 q 32 214 32 218 q 35 190 32 203 q 40 164 38 176 q 63 100 47 132 q 106 47 79 68 q 169 26 132 26 q 229 40 203 26 q 276 79 256 54 q 355 212 321 133 q 417 374 389 290 q 465 524 444 457 q 472 545 467 528 q 483 580 478 563 q 489 600 489 597 q 492 648 490 625 q 513 689 493 671 q 412 656 463 672 q 313 621 361 640 q 258 586 282 608 q 235 528 235 564 q 248 474 235 500 q 274 422 261 447 q 286 369 286 397 q 266 318 286 342 q 217 294 246 294 q 200 297 211 294 q 189 306 189 300 q 193 310 189 310 q 197 308 194 310 q 204 306 200 306 q 231 322 221 306 q 247 357 242 338 q 253 389 253 376 q 238 449 253 421 q 209 506 224 478 q 194 563 194 533 q 222 622 194 600 q 294 658 250 644 q 388 679 339 671 q 480 697 436 688 q 549 721 524 706 q 575 745 558 726 q 597 764 592 764 q 601 756 601 764 q 594 726 601 744 q 579 699 588 707 q 553 660 563 681 q 533 615 543 639 q 507 544 519 581 q 482 472 494 508 q 420 297 450 385 q 353 122 390 208 q 315 49 339 89 q 257 -22 290 8 q 182 -51 224 -51 z "},"Î":{"ha":447,"x_min":19,"x_max":724,"o":"m 182 -51 q 108 -27 139 -51 q 58 36 78 -3 q 29 117 39 75 q 19 194 19 160 q 21 209 19 200 q 29 218 22 218 q 32 214 32 218 q 35 190 32 203 q 40 164 38 176 q 63 100 47 132 q 106 47 79 68 q 169 26 132 26 q 229 40 203 26 q 276 79 256 54 q 355 212 321 133 q 417 374 389 290 q 465 524 444 457 q 472 545 467 528 q 483 580 478 563 q 489 600 489 597 q 492 648 490 625 q 513 689 493 671 q 412 656 463 672 q 313 621 361 640 q 258 586 282 608 q 235 528 235 564 q 248 474 235 500 q 274 422 261 447 q 286 369 286 397 q 266 318 286 342 q 217 294 246 294 q 200 297 211 294 q 189 306 189 300 q 193 310 189 310 q 197 308 194 310 q 204 306 200 306 q 231 322 221 306 q 247 357 242 338 q 253 389 253 376 q 238 449 253 421 q 209 506 224 478 q 194 563 194 533 q 222 622 194 600 q 294 658 250 644 q 388 679 339 671 q 480 697 436 688 q 549 721 524 706 q 575 745 558 726 q 597 764 592 764 q 601 756 601 764 q 594 726 601 744 q 579 699 588 707 q 553 660 563 681 q 533 615 543 639 q 507 544 519 581 q 482 472 494 508 q 420 297 450 385 q 353 122 390 208 q 315 49 339 89 q 257 -22 290 8 q 182 -51 224 -51 m 717 818 q 689 830 711 817 q 651 854 667 843 q 624 872 640 863 q 600 888 608 882 q 578 877 590 882 q 554 867 565 872 q 492 835 511 844 q 461 821 472 825 q 460 825 458 821 q 483 849 465 833 q 528 883 501 864 q 564 910 547 899 q 601 940 581 922 q 615 950 611 950 q 625 940 618 950 q 642 916 628 935 q 665 885 656 897 q 698 848 678 869 q 719 824 718 826 q 717 818 724 818 z "},"Ȉ":{"ha":447,"x_min":19,"x_max":631,"o":"m 629 836 q 603 848 629 828 q 549 889 578 868 q 519 910 531 903 q 493 928 507 917 q 476 954 475 943 q 497 972 478 975 q 510 967 504 972 l 558 915 q 616 858 601 874 q 629 836 631 843 m 539 840 q 512 850 539 833 q 453 885 485 867 q 421 902 433 896 q 393 918 408 908 q 374 942 374 931 q 393 963 374 963 q 406 958 400 963 l 460 913 q 523 861 507 875 q 539 840 539 847 m 182 -51 q 108 -27 139 -51 q 58 36 78 -3 q 29 117 39 75 q 19 194 19 160 q 21 209 19 200 q 29 218 22 218 q 32 214 32 218 q 35 190 32 203 q 40 164 38 176 q 63 100 47 132 q 106 47 79 68 q 169 26 132 26 q 229 40 203 26 q 276 79 256 54 q 355 212 321 133 q 417 374 389 290 q 465 524 444 457 q 472 545 467 528 q 483 580 478 563 q 489 600 489 597 q 492 648 490 625 q 513 689 493 671 q 412 656 463 672 q 313 621 361 640 q 258 586 282 608 q 235 528 235 564 q 248 474 235 500 q 274 422 261 447 q 286 369 286 397 q 266 318 286 342 q 217 294 246 294 q 200 297 211 294 q 189 306 189 300 q 193 310 189 310 q 197 308 194 310 q 204 306 200 306 q 231 322 221 306 q 247 357 242 338 q 253 389 253 376 q 238 449 253 421 q 209 506 224 478 q 194 563 194 533 q 222 622 194 600 q 294 658 250 644 q 388 679 339 671 q 480 697 436 688 q 549 721 524 706 q 575 745 558 726 q 597 764 592 764 q 601 756 601 764 q 594 726 601 744 q 579 699 588 707 q 553 660 563 681 q 533 615 543 639 q 507 544 519 581 q 482 472 494 508 q 420 297 450 385 q 353 122 390 208 q 315 49 339 89 q 257 -22 290 8 q 182 -51 224 -51 m 539 840 q 512 850 539 833 q 453 885 485 867 q 421 902 433 896 q 393 918 408 908 q 374 942 374 931 q 393 963 374 963 q 406 958 400 963 l 460 913 q 523 861 507 875 q 539 840 539 847 z "},"Ï":{"ha":447,"x_min":19,"x_max":714,"o":"m 182 -51 q 108 -27 139 -51 q 58 36 78 -3 q 29 117 39 75 q 19 194 19 160 q 21 209 19 200 q 29 218 22 218 q 32 214 32 218 q 35 190 32 203 q 40 164 38 176 q 63 100 47 132 q 106 47 79 68 q 169 26 132 26 q 229 40 203 26 q 276 79 256 54 q 355 212 321 133 q 417 374 389 290 q 465 524 444 457 q 472 545 467 528 q 483 580 478 563 q 489 600 489 597 q 492 648 490 625 q 513 689 493 671 q 412 656 463 672 q 313 621 361 640 q 258 586 282 608 q 235 528 235 564 q 248 474 235 500 q 274 422 261 447 q 286 369 286 397 q 266 318 286 342 q 217 294 246 294 q 200 297 211 294 q 189 306 189 300 q 193 310 189 310 q 197 308 194 310 q 204 306 200 306 q 231 322 221 306 q 247 357 242 338 q 253 389 253 376 q 238 449 253 421 q 209 506 224 478 q 194 563 194 533 q 222 622 194 600 q 294 658 250 644 q 388 679 339 671 q 480 697 436 688 q 549 721 524 706 q 575 745 558 726 q 597 764 592 764 q 601 756 601 764 q 594 726 601 744 q 579 699 588 707 q 553 660 563 681 q 533 615 543 639 q 507 544 519 581 q 482 472 494 508 q 420 297 450 385 q 353 122 390 208 q 315 49 339 89 q 257 -22 290 8 q 182 -51 224 -51 m 647 840 q 633 856 633 840 q 636 871 633 863 q 665 907 643 890 q 707 924 686 924 q 714 921 714 924 q 709 908 713 915 q 700 890 706 900 l 685 865 q 673 846 683 851 q 647 840 663 840 m 528 840 q 517 854 517 840 q 517 863 517 858 q 518 871 518 867 q 546 907 525 890 q 589 924 568 924 q 596 921 599 924 q 581 890 594 911 l 568 865 q 528 840 560 840 z "},"İ":{"ha":447,"x_min":19,"x_max":651,"o":"m 182 -51 q 108 -27 139 -51 q 58 36 78 -3 q 29 117 39 75 q 19 194 19 160 q 21 209 19 200 q 29 218 22 218 q 32 214 32 218 q 35 190 32 203 q 40 164 38 176 q 63 100 47 132 q 106 47 79 68 q 169 26 132 26 q 229 40 203 26 q 276 79 256 54 q 355 212 321 133 q 417 374 389 290 q 465 524 444 457 q 472 545 467 528 q 483 580 478 563 q 489 600 489 597 q 492 648 490 625 q 513 689 493 671 q 412 656 463 672 q 313 621 361 640 q 258 586 282 608 q 235 528 235 564 q 248 474 235 500 q 274 422 261 447 q 286 369 286 397 q 266 318 286 342 q 217 294 246 294 q 200 297 211 294 q 189 306 189 300 q 193 310 189 310 q 197 308 194 310 q 204 306 200 306 q 231 322 221 306 q 247 357 242 338 q 253 389 253 376 q 238 449 253 421 q 209 506 224 478 q 194 563 194 533 q 222 622 194 600 q 294 658 250 644 q 388 679 339 671 q 480 697 436 688 q 549 721 524 706 q 575 745 558 726 q 597 764 592 764 q 601 756 601 764 q 594 726 601 744 q 579 699 588 707 q 553 660 563 681 q 533 615 543 639 q 507 544 519 581 q 482 472 494 508 q 420 297 450 385 q 353 122 390 208 q 315 49 339 89 q 257 -22 290 8 q 182 -51 224 -51 m 581 839 q 567 856 567 839 q 567 864 567 860 q 569 872 568 868 q 600 910 576 892 q 643 928 622 928 q 651 924 651 928 q 646 910 650 918 q 636 892 642 903 q 626 875 631 882 q 621 865 622 868 q 581 839 615 839 z "},"Ị":{"ha":447,"x_min":19,"x_max":601,"o":"m 182 -51 q 108 -27 139 -51 q 58 36 78 -3 q 29 117 39 75 q 19 194 19 160 q 21 209 19 200 q 29 218 22 218 q 32 214 32 218 q 35 190 32 203 q 40 164 38 176 q 63 100 47 132 q 106 47 79 68 q 169 26 132 26 q 229 40 203 26 q 276 79 256 54 q 355 212 321 133 q 417 374 389 290 q 465 524 444 457 q 472 545 467 528 q 483 580 478 563 q 489 600 489 597 q 492 648 490 625 q 513 689 493 671 q 412 656 463 672 q 313 621 361 640 q 258 586 282 608 q 235 528 235 564 q 248 474 235 500 q 274 422 261 447 q 286 369 286 397 q 266 318 286 342 q 217 294 246 294 q 200 297 211 294 q 189 306 189 300 q 193 310 189 310 q 197 308 194 310 q 204 306 200 306 q 231 322 221 306 q 247 357 242 338 q 253 389 253 376 q 238 449 253 421 q 209 506 224 478 q 194 563 194 533 q 222 622 194 600 q 294 658 250 644 q 388 679 339 671 q 480 697 436 688 q 549 721 524 706 q 575 745 558 726 q 597 764 592 764 q 601 756 601 764 q 594 726 601 744 q 579 699 588 707 q 553 660 563 681 q 533 615 543 639 q 507 544 519 581 q 482 472 494 508 q 420 297 450 385 q 353 122 390 208 q 315 49 339 89 q 257 -22 290 8 q 182 -51 224 -51 m 126 -208 q 113 -192 113 -208 q 113 -183 113 -187 q 115 -175 114 -179 q 146 -137 122 -156 q 189 -119 168 -119 q 197 -124 197 -119 q 192 -137 196 -129 q 182 -156 188 -144 q 172 -172 176 -165 q 167 -182 168 -179 q 126 -208 161 -208 z "},"Ì":{"ha":447,"x_min":19,"x_max":636,"o":"m 182 -51 q 108 -27 139 -51 q 58 36 78 -3 q 29 117 39 75 q 19 194 19 160 q 21 209 19 200 q 29 218 22 218 q 32 214 32 218 q 35 190 32 203 q 40 164 38 176 q 63 100 47 132 q 106 47 79 68 q 169 26 132 26 q 229 40 203 26 q 276 79 256 54 q 355 212 321 133 q 417 374 389 290 q 465 524 444 457 q 472 545 467 528 q 483 580 478 563 q 489 600 489 597 q 492 648 490 625 q 513 689 493 671 q 412 656 463 672 q 313 621 361 640 q 258 586 282 608 q 235 528 235 564 q 248 474 235 500 q 274 422 261 447 q 286 369 286 397 q 266 318 286 342 q 217 294 246 294 q 200 297 211 294 q 189 306 189 300 q 193 310 189 310 q 197 308 194 310 q 204 306 200 306 q 231 322 221 306 q 247 357 242 338 q 253 389 253 376 q 238 449 253 421 q 209 506 224 478 q 194 563 194 533 q 222 622 194 600 q 294 658 250 644 q 388 679 339 671 q 480 697 436 688 q 549 721 524 706 q 575 745 558 726 q 597 764 592 764 q 601 756 601 764 q 594 726 601 744 q 579 699 588 707 q 553 660 563 681 q 533 615 543 639 q 507 544 519 581 q 482 472 494 508 q 420 297 450 385 q 353 122 390 208 q 315 49 339 89 q 257 -22 290 8 q 182 -51 224 -51 m 636 840 q 622 842 636 836 q 585 860 607 849 q 542 879 564 871 q 508 894 521 889 q 479 907 494 899 q 457 928 457 918 l 457 931 q 474 951 457 949 q 486 949 478 951 l 546 908 q 615 862 596 876 q 636 840 635 847 z "},"Ỉ":{"ha":447,"x_min":19,"x_max":703,"o":"m 182 -51 q 108 -27 139 -51 q 58 36 78 -3 q 29 117 39 75 q 19 194 19 160 q 21 209 19 200 q 29 218 22 218 q 32 214 32 218 q 35 190 32 203 q 40 164 38 176 q 63 100 47 132 q 106 47 79 68 q 169 26 132 26 q 229 40 203 26 q 276 79 256 54 q 355 212 321 133 q 417 374 389 290 q 465 524 444 457 q 472 545 467 528 q 483 580 478 563 q 489 600 489 597 q 492 648 490 625 q 513 689 493 671 q 412 656 463 672 q 313 621 361 640 q 258 586 282 608 q 235 528 235 564 q 248 474 235 500 q 274 422 261 447 q 286 369 286 397 q 266 318 286 342 q 217 294 246 294 q 200 297 211 294 q 189 306 189 300 q 193 310 189 310 q 197 308 194 310 q 204 306 200 306 q 231 322 221 306 q 247 357 242 338 q 253 389 253 376 q 238 449 253 421 q 209 506 224 478 q 194 563 194 533 q 222 622 194 600 q 294 658 250 644 q 388 679 339 671 q 480 697 436 688 q 549 721 524 706 q 575 745 558 726 q 597 764 592 764 q 601 756 601 764 q 594 726 601 744 q 579 699 588 707 q 553 660 563 681 q 533 615 543 639 q 507 544 519 581 q 482 472 494 508 q 420 297 450 385 q 353 122 390 208 q 315 49 339 89 q 257 -22 290 8 q 182 -51 224 -51 m 586 840 q 608 879 596 865 q 628 903 619 893 q 638 921 635 911 q 643 936 642 931 l 643 940 q 622 958 643 958 q 578 951 592 958 q 554 944 564 944 q 550 953 547 944 q 586 976 554 963 q 650 990 618 990 q 694 953 703 990 q 690 936 694 944 q 663 901 681 914 q 628 876 646 888 q 599 842 610 864 q 591 838 597 839 q 586 840 585 836 z "},"Ȋ":{"ha":447,"x_min":19,"x_max":683,"o":"m 603 936 q 663 916 643 936 q 683 864 683 896 q 681 837 683 854 q 668 821 679 819 q 653 874 667 854 q 594 893 639 893 q 519 875 544 893 q 484 839 494 857 q 469 821 474 821 q 468 824 468 821 q 469 831 468 826 q 472 839 471 836 q 517 908 488 879 q 603 936 547 936 m 182 -51 q 108 -27 139 -51 q 58 36 78 -3 q 29 117 39 75 q 19 194 19 160 q 21 209 19 200 q 29 218 22 218 q 32 214 32 218 q 35 190 32 203 q 40 164 38 176 q 63 100 47 132 q 106 47 79 68 q 169 26 132 26 q 229 40 203 26 q 276 79 256 54 q 355 212 321 133 q 417 374 389 290 q 465 524 444 457 q 472 545 467 528 q 483 580 478 563 q 489 600 489 597 q 492 648 490 625 q 513 689 493 671 q 412 656 463 672 q 313 621 361 640 q 258 586 282 608 q 235 528 235 564 q 248 474 235 500 q 274 422 261 447 q 286 369 286 397 q 266 318 286 342 q 217 294 246 294 q 200 297 211 294 q 189 306 189 300 q 193 310 189 310 q 197 308 194 310 q 204 306 200 306 q 231 322 221 306 q 247 357 242 338 q 253 389 253 376 q 238 449 253 421 q 209 506 224 478 q 194 563 194 533 q 222 622 194 600 q 294 658 250 644 q 388 679 339 671 q 480 697 436 688 q 549 721 524 706 q 575 745 558 726 q 597 764 592 764 q 601 756 601 764 q 594 726 601 744 q 579 699 588 707 q 553 660 563 681 q 533 615 543 639 q 507 544 519 581 q 482 472 494 508 q 420 297 450 385 q 353 122 390 208 q 315 49 339 89 q 257 -22 290 8 q 182 -51 224 -51 z "},"Ī":{"ha":447,"x_min":19,"x_max":694,"o":"m 182 -51 q 108 -27 139 -51 q 58 36 78 -3 q 29 117 39 75 q 19 194 19 160 q 21 209 19 200 q 29 218 22 218 q 32 214 32 218 q 35 190 32 203 q 40 164 38 176 q 63 100 47 132 q 106 47 79 68 q 169 26 132 26 q 229 40 203 26 q 276 79 256 54 q 355 212 321 133 q 417 374 389 290 q 465 524 444 457 q 472 545 467 528 q 483 580 478 563 q 489 600 489 597 q 492 648 490 625 q 513 689 493 671 q 412 656 463 672 q 313 621 361 640 q 258 586 282 608 q 235 528 235 564 q 248 474 235 500 q 274 422 261 447 q 286 369 286 397 q 266 318 286 342 q 217 294 246 294 q 200 297 211 294 q 189 306 189 300 q 193 310 189 310 q 197 308 194 310 q 204 306 200 306 q 231 322 221 306 q 247 357 242 338 q 253 389 253 376 q 238 449 253 421 q 209 506 224 478 q 194 563 194 533 q 222 622 194 600 q 294 658 250 644 q 388 679 339 671 q 480 697 436 688 q 549 721 524 706 q 575 745 558 726 q 597 764 592 764 q 601 756 601 764 q 594 726 601 744 q 579 699 588 707 q 553 660 563 681 q 533 615 543 639 q 507 544 519 581 q 482 472 494 508 q 420 297 450 385 q 353 122 390 208 q 315 49 339 89 q 257 -22 290 8 q 182 -51 224 -51 m 458 840 q 460 864 458 850 q 472 878 463 878 l 694 872 q 693 858 694 863 q 681 853 692 854 l 458 840 z "},"Į":{"ha":447,"x_min":19,"x_max":601,"o":"m 182 -51 q 108 -27 139 -51 q 58 36 78 -3 q 29 117 39 75 q 19 194 19 160 q 21 209 19 200 q 29 218 22 218 q 32 214 32 218 q 35 190 32 203 q 40 164 38 176 q 63 100 47 132 q 106 47 79 68 q 169 26 132 26 q 229 40 203 26 q 276 79 256 54 q 355 212 321 133 q 417 374 389 290 q 465 524 444 457 q 472 545 467 528 q 483 580 478 563 q 489 600 489 597 q 492 648 490 625 q 513 689 493 671 q 412 656 463 672 q 313 621 361 640 q 258 586 282 608 q 235 528 235 564 q 248 474 235 500 q 274 422 261 447 q 286 369 286 397 q 266 318 286 342 q 217 294 246 294 q 200 297 211 294 q 189 306 189 300 q 193 310 189 310 q 197 308 194 310 q 204 306 200 306 q 231 322 221 306 q 247 357 242 338 q 253 389 253 376 q 238 449 253 421 q 209 506 224 478 q 194 563 194 533 q 222 622 194 600 q 294 658 250 644 q 388 679 339 671 q 480 697 436 688 q 549 721 524 706 q 575 745 558 726 q 597 764 592 764 q 601 756 601 764 q 594 726 601 744 q 579 699 588 707 q 553 660 563 681 q 533 615 543 639 q 507 544 519 581 q 482 472 494 508 q 420 297 450 385 q 353 122 390 208 q 315 49 339 89 q 257 -22 290 8 q 182 -51 224 -51 m 128 -224 q 84 -212 100 -224 q 74 -175 68 -201 q 99 -113 79 -147 q 143 -53 118 -79 q 190 -26 168 -28 q 194 -33 194 -26 q 142 -103 161 -68 q 122 -161 122 -137 q 158 -190 122 -190 q 210 -181 182 -190 q 235 -170 225 -174 q 246 -167 244 -167 q 258 -174 258 -167 q 247 -190 258 -182 q 218 -204 235 -197 q 128 -224 168 -224 z "},"Ĩ":{"ha":447,"x_min":19,"x_max":735,"o":"m 182 -51 q 108 -27 139 -51 q 58 36 78 -3 q 29 117 39 75 q 19 194 19 160 q 21 209 19 200 q 29 218 22 218 q 32 214 32 218 q 35 190 32 203 q 40 164 38 176 q 63 100 47 132 q 106 47 79 68 q 169 26 132 26 q 229 40 203 26 q 276 79 256 54 q 355 212 321 133 q 417 374 389 290 q 465 524 444 457 q 472 545 467 528 q 483 580 478 563 q 489 600 489 597 q 492 648 490 625 q 513 689 493 671 q 412 656 463 672 q 313 621 361 640 q 258 586 282 608 q 235 528 235 564 q 248 474 235 500 q 274 422 261 447 q 286 369 286 397 q 266 318 286 342 q 217 294 246 294 q 200 297 211 294 q 189 306 189 300 q 193 310 189 310 q 197 308 194 310 q 204 306 200 306 q 231 322 221 306 q 247 357 242 338 q 253 389 253 376 q 238 449 253 421 q 209 506 224 478 q 194 563 194 533 q 222 622 194 600 q 294 658 250 644 q 388 679 339 671 q 480 697 436 688 q 549 721 524 706 q 575 745 558 726 q 597 764 592 764 q 601 756 601 764 q 594 726 601 744 q 579 699 588 707 q 553 660 563 681 q 533 615 543 639 q 507 544 519 581 q 482 472 494 508 q 420 297 450 385 q 353 122 390 208 q 315 49 339 89 q 257 -22 290 8 q 182 -51 224 -51 m 654 838 q 615 850 635 838 q 577 874 596 863 q 538 886 558 886 q 507 878 517 886 q 489 860 497 871 q 482 845 483 851 q 478 839 481 839 q 475 851 475 839 q 485 881 475 861 q 510 917 494 900 q 542 935 525 935 q 579 922 560 935 q 619 895 599 908 q 657 882 639 882 q 685 888 669 882 q 713 910 701 893 q 720 921 717 917 q 728 925 724 925 q 731 917 735 925 q 713 885 725 904 q 686 852 701 867 q 654 838 671 838 z "},"J":{"ha":568,"x_min":13,"x_max":788,"o":"m 169 -215 q 60 -176 108 -215 q 13 -56 13 -137 q 42 82 13 22 q 108 185 72 142 q 158 227 132 211 q 194 249 185 243 q 202 244 204 253 q 194 222 200 235 q 186 203 189 210 q 174 192 183 197 q 158 186 165 186 q 146 197 147 186 q 81 101 99 153 q 64 0 64 49 q 101 -115 64 -79 q 189 -151 138 -151 q 293 -123 239 -151 q 388 -43 347 -94 q 472 92 431 11 q 551 266 514 174 q 617 448 588 358 q 667 608 647 538 q 671 626 671 619 q 677 680 671 663 q 697 711 683 697 l 499 643 q 421 547 421 617 q 441 481 421 515 q 469 417 461 446 q 472 405 472 411 q 472 393 472 399 q 449 338 472 358 q 401 317 426 317 q 378 324 389 317 q 374 330 372 326 q 382 331 376 333 q 417 346 397 321 q 438 410 438 371 q 433 443 438 426 q 417 485 429 460 q 397 525 404 511 q 384 558 388 543 q 381 585 381 572 q 401 638 381 617 q 454 671 422 658 q 519 690 486 683 q 578 700 553 696 q 624 708 596 703 q 683 723 653 714 q 735 742 714 732 l 738 744 q 756 763 747 754 q 776 783 765 771 q 788 778 788 790 q 780 747 788 767 q 765 721 772 726 q 745 695 756 711 q 719 638 735 679 q 658 466 690 563 q 587 268 625 369 q 501 74 549 167 q 393 -90 453 -19 q 258 -196 333 -161 q 169 -215 215 -215 z "},"Ĵ":{"ha":568,"x_min":13,"x_max":908,"o":"m 169 -215 q 60 -176 108 -215 q 13 -56 13 -137 q 42 82 13 22 q 108 185 72 142 q 158 227 132 211 q 194 249 185 243 q 202 244 204 253 q 194 222 200 235 q 186 203 189 210 q 174 192 183 197 q 158 186 165 186 q 146 197 147 186 q 81 101 99 153 q 64 0 64 49 q 101 -115 64 -79 q 189 -151 138 -151 q 293 -123 239 -151 q 388 -43 347 -94 q 472 92 431 11 q 551 266 514 174 q 617 448 588 358 q 667 608 647 538 q 671 626 671 619 q 677 680 671 663 q 697 711 683 697 l 499 643 q 421 547 421 617 q 441 481 421 515 q 469 417 461 446 q 472 405 472 411 q 472 393 472 399 q 449 338 472 358 q 401 317 426 317 q 378 324 389 317 q 374 330 372 326 q 382 331 376 333 q 417 346 397 321 q 438 410 438 371 q 433 443 438 426 q 417 485 429 460 q 397 525 404 511 q 384 558 388 543 q 381 585 381 572 q 401 638 381 617 q 454 671 422 658 q 519 690 486 683 q 578 700 553 696 q 624 708 596 703 q 683 723 653 714 q 735 742 714 732 l 738 744 q 756 763 747 754 q 776 783 765 771 q 788 778 788 790 q 780 747 788 767 q 765 721 772 726 q 745 695 756 711 q 719 638 735 679 q 658 466 690 563 q 587 268 625 369 q 501 74 549 167 q 393 -90 453 -19 q 258 -196 333 -161 q 169 -215 215 -215 m 901 813 q 874 824 896 811 q 836 849 851 838 q 809 867 825 857 q 785 882 793 876 q 763 872 775 876 q 739 861 750 867 q 676 829 696 839 q 646 815 657 819 q 644 819 643 815 q 668 843 650 828 q 713 878 686 858 q 749 905 732 893 q 786 935 765 917 q 800 944 796 944 q 810 935 803 944 q 826 910 813 929 q 850 879 840 892 q 883 842 863 864 q 904 818 903 821 q 901 813 908 813 z "},"K":{"ha":894,"x_min":11,"x_max":1219,"o":"m 819 -61 q 768 -47 794 -61 q 692 15 731 -26 q 619 108 654 57 q 557 205 585 158 q 511 283 529 251 q 488 315 493 314 q 444 277 471 301 q 382 213 418 253 l 346 125 q 306 48 331 88 q 249 -19 282 8 q 176 -47 217 -47 q 139 -40 158 -47 q 99 -18 119 -33 q 47 49 67 6 q 19 137 28 92 q 13 210 11 182 q 22 221 15 217 q 26 214 28 225 q 44 134 31 176 q 88 61 58 92 q 163 31 117 31 q 219 42 192 31 q 271 83 247 53 q 335 187 304 125 q 390 315 365 249 q 432 439 414 382 q 460 526 450 496 l 483 604 l 483 611 q 489 663 483 646 q 507 693 494 679 q 395 656 451 675 q 307 624 339 636 q 229 529 229 597 q 249 462 229 496 q 278 399 269 428 q 281 387 281 393 q 281 374 281 381 q 258 318 281 339 q 210 297 235 297 q 186 304 197 297 q 183 310 181 307 q 190 311 185 314 q 226 327 206 303 q 246 390 246 351 q 242 424 246 407 q 225 466 238 440 q 206 507 213 492 q 192 540 196 525 q 189 567 189 554 q 210 619 189 599 q 263 653 231 640 q 328 672 294 665 q 386 682 361 678 q 431 690 403 685 q 490 704 460 696 q 540 721 519 713 q 543 724 542 722 q 546 726 544 725 q 585 764 563 740 q 596 758 596 771 q 588 728 596 747 q 574 701 581 708 q 553 677 564 693 q 528 619 543 661 l 475 476 q 442 381 463 442 q 399 257 422 321 q 556 428 472 340 q 722 593 640 515 q 868 722 804 671 q 938 770 897 746 q 1022 811 978 794 q 1107 828 1067 828 q 1170 813 1140 828 q 1219 763 1200 799 l 1219 757 q 1214 749 1219 749 q 1203 758 1208 749 q 1169 794 1189 783 q 1126 804 1150 804 q 1072 793 1100 804 q 1019 767 1043 782 q 909 688 971 736 q 785 586 847 640 q 667 482 722 532 q 573 395 611 432 q 524 347 535 358 q 556 294 533 329 q 605 222 579 258 q 647 161 631 185 q 688 106 664 139 q 742 42 713 74 q 804 -8 772 10 q 821 -15 813 -12 q 838 -18 829 -18 q 863 -9 853 -18 q 872 22 872 0 q 858 86 872 51 q 829 147 844 121 q 826 154 826 153 q 829 158 826 158 q 840 150 836 158 q 864 108 853 132 q 882 63 875 83 q 892 15 892 39 q 872 -40 892 -18 q 819 -61 851 -61 z "}}}
